<?xml version="1.0" encoding="UTF-8" standalone="no"?>
<!-- Created with Inkscape (http://www.inkscape.org/) -->

<svg
   xmlns:dc="http://purl.org/dc/elements/1.1/"
   xmlns:cc="http://creativecommons.org/ns#"
   xmlns:rdf="http://www.w3.org/1999/02/22-rdf-syntax-ns#"
   xmlns:svg="http://www.w3.org/2000/svg"
   xmlns="http://www.w3.org/2000/svg"
   xmlns:sodipodi="http://sodipodi.sourceforge.net/DTD/sodipodi-0.dtd"
   xmlns:inkscape="http://www.inkscape.org/namespaces/inkscape"
   width="210mm"
   height="297mm"
   viewBox="0 0 210 297"
   version="1.1"
   id="svg7321"
   inkscape:version="0.92.1 r"
   sodipodi:docname="omnibar.svg">
  <defs
     id="defs7315">
    <inkscape:path-effect
       effect="spiro"
       id="path-effect8915-0-8-2-7-4-4-8"
       is_visible="true" />
  </defs>
  <sodipodi:namedview
     id="base"
     pagecolor="#ffffff"
     bordercolor="#666666"
     borderopacity="1.0"
     inkscape:pageopacity="0.0"
     inkscape:pageshadow="2"
     inkscape:zoom="0.35"
     inkscape:cx="-110"
     inkscape:cy="560"
     inkscape:document-units="mm"
     inkscape:current-layer="layer1"
     showgrid="false"
     inkscape:window-width="1920"
     inkscape:window-height="1016"
     inkscape:window-x="0"
     inkscape:window-y="27"
     inkscape:window-maximized="1" />
  <metadata
     id="metadata7318">
    <rdf:RDF>
      <cc:Work
         rdf:about="">
        <dc:format>image/svg+xml</dc:format>
        <dc:type
           rdf:resource="http://purl.org/dc/dcmitype/StillImage" />
        <dc:title></dc:title>
      </cc:Work>
    </rdf:RDF>
  </metadata>
  <g
     inkscape:label="Layer 1"
     inkscape:groupmode="layer"
     id="layer1">
    <path
       sodipodi:nodetypes="scccssssssss"
       inkscape:connector-curvature="0"
       id="path15396"
       d="m 149.68865,110.70261 h -46.64361 l -4.007164,-3.95111 -4.00716,3.95111 h -46.94214 c -1.40716,0 -2.54,1.13284 -2.54,2.54 v 90.86685 c 0,1.40713 1.13284,2.54 2.54,2.54 H 149.68865 c 1.40716,0 2.54,-1.13287 2.54,-2.54 v -90.86685 c 0,-1.40716 -1.13284,-2.54 -2.54,-2.54 z"
       style="display:inline;fill:#ededed;fill-opacity:1;stroke:#a7aba7;stroke-width:0.28222224;stroke-linecap:square;stroke-linejoin:miter;stroke-miterlimit:4;stroke-dasharray:none;stroke-opacity:1" />
    <rect
       style="color:#000000;display:inline;overflow:visible;visibility:visible;fill:#f2f2f2;fill-opacity:1;fill-rule:nonzero;stroke:#919191;stroke-width:0.28222224;stroke-linecap:butt;stroke-linejoin:miter;stroke-miterlimit:4;stroke-dasharray:none;stroke-dashoffset:0;stroke-opacity:1;marker:none;enable-background:accumulate"
       id="rect13348"
       width="125.5889"
       height="9.3133335"
       x="36.235306"
       y="89.809464"
       rx="0.84666663"
       ry="0.84666669"
       inkscape:export-filename="/home/lapo.fedora/SparkleShare/gnome-mockups/content selection/content-selection.png"
       inkscape:export-xdpi="90"
       inkscape:export-ydpi="90" />
    <flowRoot
       transform="matrix(0.28222223,0,0,0.28222223,-86.745524,-331.77794)"
       style="font-style:normal;font-variant:normal;font-weight:normal;font-stretch:normal;line-height:0.01%;font-family:Cantarell;-inkscape-font-specification:Cantarell;text-align:start;letter-spacing:0px;word-spacing:0px;text-anchor:start;fill:#2e3436;fill-opacity:1;stroke:none;stroke-width:1px;stroke-linecap:butt;stroke-linejoin:miter;stroke-opacity:1"
       id="flowRoot13350"
       xml:space="preserve"><flowRegion
         id="flowRegion13352"><rect
           style="font-style:normal;font-variant:normal;font-weight:normal;font-stretch:normal;font-size:13.75px;font-family:Cantarell;-inkscape-font-specification:Cantarell;text-align:start;text-anchor:start;fill:#2e3436"
           y="1502"
           x="450"
           height="43"
           width="546"
           id="rect13354" /></flowRegion><flowPara
         id="flowPara13356"
         style="font-weight:normal;font-size:13.75px;line-height:1.25;text-align:start;text-anchor:start"><flowSpan
   id="flowSpan13358"
   style="font-weight:bold">gnome-calculator</flowSpan> / master</flowPara></flowRoot>    <flowRoot
       transform="matrix(0.28222223,0,0,0.28222223,-132.75375,-331.77794)"
       style="font-style:normal;font-variant:normal;font-weight:normal;font-stretch:normal;line-height:0.01%;font-family:Cantarell;-inkscape-font-specification:Cantarell;text-align:end;letter-spacing:0px;word-spacing:0px;text-anchor:end;fill:#2e3436;fill-opacity:1;stroke:none;stroke-width:1px;stroke-linecap:butt;stroke-linejoin:miter;stroke-opacity:1"
       id="flowRoot13360"
       xml:space="preserve"><flowRegion
         id="flowRegion13362"><rect
           style="font-style:normal;font-variant:normal;font-weight:normal;font-stretch:normal;font-size:13.75px;font-family:Cantarell;-inkscape-font-specification:Cantarell;text-align:end;text-anchor:end;fill:#2e3436"
           y="1502"
           x="450"
           height="43"
           width="546"
           id="rect13364" /></flowRegion><flowPara
         id="flowPara13366"
         style="font-weight:normal;font-size:13.75px;line-height:1.25;text-align:end;text-anchor:end">Build failed</flowPara></flowRoot>    <path
       sodipodi:nodetypes="sccccssss"
       inkscape:connector-curvature="0"
       id="path13378"
       d="m 160.97751,99.122811 h -8.46667 v -0.846667 -7.620003 -0.84666 h 8.46667 c 0.46905,0 0.84667,0.37761 0.84667,0.84666 v 7.620003 c 0,0.469053 -0.37762,0.846667 -0.84667,0.846667 z"
       style="color:#000000;display:inline;overflow:visible;visibility:visible;fill:#eaeaea;fill-opacity:1;fill-rule:nonzero;stroke:#919191;stroke-width:0.28222224;stroke-linecap:butt;stroke-linejoin:miter;stroke-miterlimit:4;stroke-dasharray:none;stroke-dashoffset:0;stroke-opacity:1;marker:none;enable-background:accumulate" />
    <flowRoot
       transform="matrix(0.28222223,0,0,0.28222223,-73.339404,-305.27237)"
       style="font-style:normal;font-variant:normal;font-weight:normal;font-stretch:normal;line-height:0.01%;font-family:Cantarell;-inkscape-font-specification:Cantarell;text-align:start;letter-spacing:0px;word-spacing:0px;text-anchor:start;fill:#919191;fill-opacity:1;stroke:none;stroke-width:1px;stroke-linecap:butt;stroke-linejoin:miter;stroke-opacity:1"
       id="flowRoot13424"
       xml:space="preserve"><flowRegion
         id="flowRegion13426"><rect
           style="font-style:normal;font-variant:normal;font-weight:normal;font-stretch:normal;font-size:13.75px;font-family:Cantarell;-inkscape-font-specification:Cantarell;text-align:start;text-anchor:start;fill:#919191"
           y="1502"
           x="450"
           height="43"
           width="546"
           id="rect13428" /></flowRegion><flowPara
         id="flowPara13430"
         style="font-weight:bold;font-size:13.75px;line-height:1.25;text-align:start;text-anchor:start;fill:#919191">Project</flowPara></flowRoot>    <flowRoot
       xml:space="preserve"
       id="flowRoot13432"
       style="font-style:normal;font-variant:normal;font-weight:normal;font-stretch:normal;line-height:0.01%;font-family:Cantarell;-inkscape-font-specification:Cantarell;text-align:start;letter-spacing:0px;word-spacing:0px;text-anchor:start;fill:#2e3436;fill-opacity:1;stroke:none;stroke-width:1px;stroke-linecap:butt;stroke-linejoin:miter;stroke-opacity:1"
       transform="matrix(0.28222223,0,0,0.28222223,-55.841634,-305.27237)"><flowRegion
         id="flowRegion13434"><rect
           id="rect13436"
           width="546"
           height="43"
           x="450"
           y="1502"
           style="font-style:normal;font-variant:normal;font-weight:normal;font-stretch:normal;font-size:13.75px;font-family:Cantarell;-inkscape-font-specification:Cantarell;text-align:start;text-anchor:start;fill:#2e3436" /></flowRegion><flowPara
         style="font-weight:normal;font-size:13.75px;line-height:1.25;text-align:start;text-anchor:start"
         id="flowPara13438">~/Projects/gnome-builder</flowPara></flowRoot>    <flowRoot
       xml:space="preserve"
       id="flowRoot13440"
       style="font-style:normal;font-variant:normal;font-weight:normal;font-stretch:normal;line-height:0.01%;font-family:Cantarell;-inkscape-font-specification:Cantarell;text-align:start;letter-spacing:0px;word-spacing:0px;text-anchor:start;fill:#919191;fill-opacity:1;stroke:none;stroke-width:1px;stroke-linecap:butt;stroke-linejoin:miter;stroke-opacity:1"
       transform="matrix(0.28222223,0,0,0.28222223,-73.339404,-297.93458)"><flowRegion
         id="flowRegion13442"><rect
           id="rect13444"
           width="546"
           height="43"
           x="450"
           y="1502"
           style="font-style:normal;font-variant:normal;font-weight:normal;font-stretch:normal;font-size:13.75px;font-family:Cantarell;-inkscape-font-specification:Cantarell;text-align:start;text-anchor:start;fill:#919191" /></flowRegion><flowPara
         style="font-weight:bold;font-size:13.75px;line-height:1.25;text-align:start;text-anchor:start;fill:#919191"
         id="flowPara13446">Branch</flowPara></flowRoot>    <flowRoot
       transform="matrix(0.28222223,0,0,0.28222223,-55.841634,-297.93458)"
       style="font-style:normal;font-variant:normal;font-weight:normal;font-stretch:normal;line-height:0.01%;font-family:Cantarell;-inkscape-font-specification:Cantarell;text-align:start;letter-spacing:0px;word-spacing:0px;text-anchor:start;fill:#2e3436;fill-opacity:1;stroke:none;stroke-width:1px;stroke-linecap:butt;stroke-linejoin:miter;stroke-opacity:1"
       id="flowRoot13448"
       xml:space="preserve"><flowRegion
         id="flowRegion13450"><rect
           style="font-style:normal;font-variant:normal;font-weight:normal;font-stretch:normal;font-size:13.75px;font-family:Cantarell;-inkscape-font-specification:Cantarell;text-align:start;text-anchor:start;fill:#2e3436"
           y="1502"
           x="450"
           height="43"
           width="546"
           id="rect13452" /></flowRegion><flowPara
         id="flowPara13454"
         style="font-weight:normal;font-size:13.75px;line-height:1.25;text-align:start;text-anchor:start">master</flowPara></flowRoot>    <flowRoot
       xml:space="preserve"
       id="flowRoot13456"
       style="font-style:normal;font-variant:normal;font-weight:normal;font-stretch:normal;line-height:0.01%;font-family:Cantarell;-inkscape-font-specification:Cantarell;text-align:start;letter-spacing:0px;word-spacing:0px;text-anchor:start;fill:#2e3436;fill-opacity:1;stroke:none;stroke-width:1px;stroke-linecap:butt;stroke-linejoin:miter;stroke-opacity:1"
       transform="matrix(0.28222223,0,0,0.28222223,-73.339404,-233.3309)"><flowRegion
         id="flowRegion13458"><rect
           id="rect13460"
           width="546"
           height="43"
           x="450"
           y="1502"
           style="font-style:normal;font-variant:normal;font-weight:normal;font-stretch:normal;font-size:13.75px;font-family:Cantarell;-inkscape-font-specification:Cantarell;text-align:start;text-anchor:start;fill:#2e3436" /></flowRegion><flowPara
         style="font-weight:bold;font-size:13.75px;line-height:1.25;text-align:start;text-anchor:start"
         id="flowPara13462">Last build</flowPara></flowRoot>    <flowRoot
       xml:space="preserve"
       id="flowRoot13464"
       style="font-style:normal;font-variant:normal;font-weight:normal;font-stretch:normal;line-height:0.01%;font-family:Cantarell;-inkscape-font-specification:Cantarell;text-align:end;letter-spacing:0px;word-spacing:0px;text-anchor:end;fill:#919191;fill-opacity:1;stroke:none;stroke-width:1px;stroke-linecap:butt;stroke-linejoin:miter;stroke-opacity:1"
       transform="matrix(0.28222223,0,0,0.28222223,-73.339404,-286.64571)"><flowRegion
         id="flowRegion13466"><rect
           id="rect13468"
           width="546"
           height="43"
           x="450"
           y="1502"
           style="font-style:normal;font-variant:normal;font-weight:normal;font-stretch:normal;font-size:13.75px;font-family:Cantarell;-inkscape-font-specification:Cantarell;text-align:end;text-anchor:end;fill:#919191" /></flowRegion><flowPara
         style="font-weight:bold;font-size:13.75px;line-height:1.25;text-align:start;text-anchor:start;fill:#2e3436"
         id="flowPara13470">Build Profile</flowPara></flowRoot>    <flowRoot
       xml:space="preserve"
       id="flowRoot13512"
       style="font-style:normal;font-variant:normal;font-weight:normal;font-stretch:normal;line-height:0.01%;font-family:Cantarell;-inkscape-font-specification:Cantarell;text-align:end;letter-spacing:0px;word-spacing:0px;text-anchor:end;fill:#2e3436;fill-opacity:1;stroke:none;stroke-width:1px;stroke-linecap:butt;stroke-linejoin:miter;stroke-opacity:1"
       transform="matrix(0.28222223,0,0,0.28222223,-171.59557,-232.66944)"><flowRegion
         id="flowRegion13514"><rect
           id="rect13516"
           width="90.62323"
           height="40.171574"
           x="905.37677"
           y="1504.8284"
           style="font-style:normal;font-variant:normal;font-weight:normal;font-stretch:normal;font-size:13.75px;font-family:Cantarell;-inkscape-font-specification:Cantarell;text-align:end;text-anchor:end;fill:#2e3436" /></flowRegion><flowPara
         style="font-weight:bold;font-size:13.75px;line-height:1.25;text-align:end;text-anchor:end;fill:#ee2222"
         id="flowPara13518">Failed</flowPara></flowRoot>    <flowRoot
       transform="matrix(0.28222223,0,0,0.28222223,-73.339404,-228.4846)"
       style="font-style:normal;font-variant:normal;font-weight:normal;font-stretch:normal;line-height:0.01%;font-family:Cantarell;-inkscape-font-specification:Cantarell;text-align:start;letter-spacing:0px;word-spacing:0px;text-anchor:start;fill:#2e3436;fill-opacity:1;stroke:none;stroke-width:1px;stroke-linecap:butt;stroke-linejoin:miter;stroke-opacity:1"
       id="flowRoot13520"
       xml:space="preserve"><flowRegion
         id="flowRegion13522"><rect
           style="font-style:normal;font-variant:normal;font-weight:normal;font-stretch:normal;font-size:11.25px;font-family:Cantarell;-inkscape-font-specification:Cantarell;text-align:start;text-anchor:start;fill:#2e3436"
           y="1502"
           x="450"
           height="43"
           width="546"
           id="rect13524" /></flowRegion><flowPara
         id="flowPara13526"
         style="font-weight:normal;font-size:11.25px;line-height:1.25;text-align:start;text-anchor:start">Friday June 3rd, 11:49</flowPara></flowRoot>    <g
       id="g15389"
       transform="matrix(0.28222223,0,0,0.28222223,-77.641424,171.97502)">
      <rect
         style="color:#000000;display:inline;overflow:visible;visibility:visible;fill:#eaeaea;fill-opacity:1;fill-rule:nonzero;stroke:#919191;stroke-width:1;stroke-linecap:butt;stroke-linejoin:miter;stroke-miterlimit:4;stroke-dasharray:none;stroke-dashoffset:0;stroke-opacity:1;marker:none;enable-background:accumulate"
         id="rect13528"
         width="107.00001"
         height="33"
         x="679.49951"
         y="62.862244"
         rx="3"
         ry="3"
         inkscape:export-filename="/home/lapo.fedora/SparkleShare/gnome-mockups/content selection/content-selection.png"
         inkscape:export-xdpi="90"
         inkscape:export-ydpi="90" />
      <flowRoot
         transform="translate(9.54796,-1431.6389)"
         style="font-style:normal;font-variant:normal;font-weight:normal;font-stretch:normal;line-height:0.01%;font-family:Cantarell;-inkscape-font-specification:Cantarell;text-align:center;letter-spacing:0px;word-spacing:0px;text-anchor:middle;fill:#2e3436;fill-opacity:1;stroke:none;stroke-width:1px;stroke-linecap:butt;stroke-linejoin:miter;stroke-opacity:1"
         id="flowRoot13530"
         xml:space="preserve"><flowRegion
           id="flowRegion13532"><rect
             style="font-style:normal;font-variant:normal;font-weight:normal;font-stretch:normal;font-size:13.75px;font-family:Cantarell;-inkscape-font-specification:Cantarell;text-align:center;text-anchor:middle;fill:#2e3436"
             y="1502"
             x="450"
             height="43"
             width="546"
             id="rect13534" /></flowRegion><flowPara
           id="flowPara13536"
           style="font-weight:normal;font-size:13.75px;line-height:1.25;text-align:center;text-anchor:middle">View Output</flowPara></flowRoot>    </g>
    <g
       transform="matrix(0.28222223,0,0,0.28222223,38.351956,19.677251)"
       style="display:inline"
       id="g13538">
      <rect
         style="color:#bebebe;display:inline;overflow:visible;visibility:visible;fill:none;stroke:none;stroke-width:1.78124988;marker:none;enable-background:new"
         id="rect13540"
         y="257"
         x="301"
         height="16"
         width="16" />
      <path
         inkscape:connector-curvature="0"
         id="path13542"
         transform="translate(221.0002,217)"
         d="m 87.90625,40.09375 c -0.5255,-0.0286 -1.03823,0.28305 -1.4375,0.96875 l -6.25,11.59375 C 79.68528,53.61964 80.26697,55 81.3125,55 h 13.15625 c 0.98172,0 1.90311,-1.15939 1.21875,-2.34375 L 89.375,41.125 c -0.39872,-0.64617 -0.94325,-1.00262 -1.46875,-1.03125 z m 0.0625,3.9375 C 88.51323,44.01405 89.01724,44.51802 89,45.0625 V 49 c 0.007,0.52831 -0.47163,1 -1,1 -0.52836,0 -1.00747,-0.47169 -1,-1 v -3.9375 c -0.008,-0.4666 0.3541,-0.91253 0.8125,-1 0.0511,-0.0145 0.10345,-0.02495 0.15625,-0.03125 z M 88,51 c 0.552285,0 1,0.447715 1,1 0,0.552285 -0.447715,1 -1,1 -0.552285,0 -1,-0.447715 -1,-1 0,-0.552285 0.447715,-1 1,-1 z"
         style="color:#bebebe;display:inline;overflow:visible;visibility:visible;fill:#f57900;fill-opacity:1;fill-rule:nonzero;stroke:none;stroke-width:1.78124988;marker:none;enable-background:new" />
    </g>
    <rect
       inkscape:export-ydpi="90"
       inkscape:export-xdpi="90"
       inkscape:export-filename="/home/lapo.fedora/SparkleShare/gnome-mockups/content selection/content-selection.png"
       y="144.56056"
       x="52.886398"
       height="9.3133335"
       width="81.56205"
       id="rect31653"
       style="color:#000000;display:inline;overflow:visible;visibility:visible;fill:#ffffff;fill-opacity:1;fill-rule:nonzero;stroke:#919191;stroke-width:0.28222221;stroke-linecap:butt;stroke-linejoin:miter;stroke-miterlimit:4;stroke-dasharray:none;stroke-dashoffset:0;stroke-opacity:1;marker:none;enable-background:accumulate" />
    <rect
       inkscape:export-ydpi="90"
       inkscape:export-xdpi="90"
       inkscape:export-filename="/home/lapo.fedora/SparkleShare/gnome-mockups/content selection/content-selection.png"
       y="144.56056"
       x="52.886398"
       height="38.382221"
       width="91.439972"
       id="rect31655"
       style="color:#000000;display:inline;overflow:visible;visibility:visible;fill:#ffffff;fill-opacity:1;fill-rule:nonzero;stroke:#919191;stroke-width:0.28222221;stroke-linecap:butt;stroke-linejoin:miter;stroke-miterlimit:4;stroke-dasharray:none;stroke-dashoffset:0;stroke-opacity:1;marker:none;enable-background:accumulate" />
    <flowRoot
       xml:space="preserve"
       id="flowRoot31657"
       style="font-style:normal;font-variant:normal;font-weight:normal;font-stretch:normal;line-height:0.01%;font-family:Cantarell;-inkscape-font-specification:Cantarell;text-align:end;letter-spacing:0px;word-spacing:0px;text-anchor:end;fill:#919191;fill-opacity:1;stroke:none;stroke-width:1px;stroke-linecap:butt;stroke-linejoin:miter;stroke-opacity:1"
       transform="matrix(0.28222223,0,0,0.28222223,-212.19262,-270.84125)"><flowRegion
         id="flowRegion31659"><rect
           id="rect31661"
           width="546"
           height="43"
           x="450"
           y="1502"
           style="font-style:normal;font-variant:normal;font-weight:normal;font-stretch:normal;font-size:11.25px;font-family:Cantarell;-inkscape-font-specification:Cantarell;text-align:end;text-anchor:end;fill:#919191" /></flowRegion><flowPara
         style="font-weight:normal;font-size:11.25px;line-height:1.25;text-align:end;text-anchor:end;fill:#919191"
         id="flowPara31663">Device</flowPara></flowRoot>    <flowRoot
       transform="matrix(0.28222223,0,0,0.28222223,-55.841524,-270.84125)"
       style="font-style:normal;font-variant:normal;font-weight:normal;font-stretch:normal;line-height:0.01%;font-family:Cantarell;-inkscape-font-specification:Cantarell;text-align:start;letter-spacing:0px;word-spacing:0px;text-anchor:start;fill:#2e3436;fill-opacity:1;stroke:none;stroke-width:1px;stroke-linecap:butt;stroke-linejoin:miter;stroke-opacity:1"
       id="flowRoot31665"
       xml:space="preserve"><flowRegion
         id="flowRegion31667"><rect
           style="font-style:normal;font-variant:normal;font-weight:normal;font-stretch:normal;font-size:11.25px;font-family:Cantarell;-inkscape-font-specification:Cantarell;text-align:start;text-anchor:start;fill:#2e3436"
           y="1502"
           x="450"
           height="43"
           width="546"
           id="rect31669" /></flowRegion><flowPara
         id="flowPara31671"
         style="font-weight:normal;font-size:11.25px;line-height:1.25;text-align:start;text-anchor:start">Christian's Computer</flowPara></flowRoot>    <flowRoot
       transform="matrix(0.28222223,0,0,0.28222223,-212.19262,-265.76125)"
       style="font-style:normal;font-variant:normal;font-weight:normal;font-stretch:normal;line-height:0.01%;font-family:Cantarell;-inkscape-font-specification:Cantarell;text-align:end;letter-spacing:0px;word-spacing:0px;text-anchor:end;fill:#919191;fill-opacity:1;stroke:none;stroke-width:1px;stroke-linecap:butt;stroke-linejoin:miter;stroke-opacity:1"
       id="flowRoot31673"
       xml:space="preserve"><flowRegion
         id="flowRegion31675"><rect
           style="font-style:normal;font-variant:normal;font-weight:normal;font-stretch:normal;font-size:11.25px;font-family:Cantarell;-inkscape-font-specification:Cantarell;text-align:end;text-anchor:end;fill:#919191"
           y="1502"
           x="450"
           height="43"
           width="546"
           id="rect31677" /></flowRegion><flowPara
         id="flowPara31679"
         style="font-weight:normal;font-size:11.25px;line-height:1.25;text-align:end;text-anchor:end;fill:#919191">Runtime</flowPara></flowRoot>    <flowRoot
       xml:space="preserve"
       id="flowRoot31681"
       style="font-style:normal;font-variant:normal;font-weight:normal;font-stretch:normal;line-height:0.01%;font-family:Cantarell;-inkscape-font-specification:Cantarell;text-align:start;letter-spacing:0px;word-spacing:0px;text-anchor:start;fill:#2e3436;fill-opacity:1;stroke:none;stroke-width:1px;stroke-linecap:butt;stroke-linejoin:miter;stroke-opacity:1"
       transform="matrix(0.28222223,0,0,0.28222223,-55.841524,-265.76125)"><flowRegion
         id="flowRegion31683"><rect
           id="rect31685"
           width="546"
           height="43"
           x="450"
           y="1502"
           style="font-style:normal;font-variant:normal;font-weight:normal;font-stretch:normal;font-size:11.25px;font-family:Cantarell;-inkscape-font-specification:Cantarell;text-align:start;text-anchor:start;fill:#2e3436" /></flowRegion><flowPara
         style="font-weight:normal;font-size:11.25px;line-height:1.25;text-align:start;text-anchor:start"
         id="flowPara31687">Host operating system</flowPara></flowRoot>    <flowRoot
       xml:space="preserve"
       id="flowRoot31689"
       style="font-style:normal;font-variant:normal;font-weight:normal;font-stretch:normal;line-height:0.01%;font-family:Cantarell;-inkscape-font-specification:Cantarell;text-align:start;letter-spacing:0px;word-spacing:0px;text-anchor:start;fill:#2e3436;fill-opacity:1;stroke:none;stroke-width:1px;stroke-linecap:butt;stroke-linejoin:miter;stroke-opacity:1"
       transform="matrix(0.28222223,0,0,0.28222223,-71.081514,-277.05014)"><flowRegion
         id="flowRegion31691"><rect
           id="rect31693"
           width="546"
           height="43"
           x="450"
           y="1502"
           style="font-style:normal;font-variant:normal;font-weight:normal;font-stretch:normal;font-size:13.75px;font-family:Cantarell;-inkscape-font-specification:Cantarell;text-align:start;text-anchor:start;fill:#2e3436" /></flowRegion><flowPara
         style="font-weight:normal;font-size:13.75px;line-height:1.25;text-align:start;text-anchor:start"
         id="flowPara31695">gnome-calculator (Host)</flowPara></flowRoot>    <flowRoot
       transform="matrix(0.28222223,0,0,0.28222223,-71.081514,-257.29458)"
       style="font-style:normal;font-variant:normal;font-weight:normal;font-stretch:normal;line-height:0.01%;font-family:Cantarell;-inkscape-font-specification:Cantarell;text-align:start;letter-spacing:0px;word-spacing:0px;text-anchor:start;fill:#2e3436;fill-opacity:1;stroke:none;stroke-width:1px;stroke-linecap:butt;stroke-linejoin:miter;stroke-opacity:1"
       id="flowRoot31697"
       xml:space="preserve"><flowRegion
         id="flowRegion31699"><rect
           style="font-style:normal;font-variant:normal;font-weight:normal;font-stretch:normal;font-size:13.75px;font-family:Cantarell;-inkscape-font-specification:Cantarell;text-align:start;text-anchor:start;fill:#2e3436"
           y="1502"
           x="450"
           height="43"
           width="546"
           id="rect31701" /></flowRegion><flowPara
         id="flowPara31703"
         style="font-weight:normal;font-size:13.75px;line-height:1.25;text-align:start;text-anchor:start">gnome-calculator (Release)</flowPara></flowRoot>    <flowRoot
       xml:space="preserve"
       id="flowRoot31705"
       style="font-style:normal;font-variant:normal;font-weight:normal;font-stretch:normal;line-height:0.01%;font-family:Cantarell;-inkscape-font-specification:Cantarell;text-align:start;letter-spacing:0px;word-spacing:0px;text-anchor:start;fill:#2e3436;fill-opacity:1;stroke:none;stroke-width:1px;stroke-linecap:butt;stroke-linejoin:miter;stroke-opacity:1"
       transform="matrix(0.28222223,0,0,0.28222223,-71.081514,-247.98127)"><flowRegion
         id="flowRegion31707"><rect
           id="rect31709"
           width="546"
           height="43"
           x="450"
           y="1502"
           style="font-style:normal;font-variant:normal;font-weight:normal;font-stretch:normal;font-size:13.75px;font-family:Cantarell;-inkscape-font-specification:Cantarell;text-align:start;text-anchor:start;fill:#2e3436" /></flowRegion><flowPara
         style="font-weight:normal;font-size:13.75px;line-height:1.25;text-align:start;text-anchor:start"
         id="flowPara31711">gnome-calculator (Debug)</flowPara></flowRoot>    <g
       id="g31713"
       inkscape:label="emblem-system"
       transform="matrix(0.28222223,0,0,0.28222223,12.387506,33.506151)"
       style="display:inline">
      <rect
         style="color:#bebebe;display:inline;overflow:visible;visibility:visible;fill:none;stroke:none;stroke-width:2;marker:none;enable-background:accumulate"
         id="rect31715"
         width="16"
         height="16"
         x="442"
         y="401.99997" />
      <path
         style="color:#000000;display:inline;overflow:visible;visibility:visible;fill:#2e3436;fill-opacity:1;fill-rule:nonzero;stroke:none;marker:none;enable-background:accumulate"
         d="m 450.0002,403 c -0.22065,0 -0.44081,0.0113 -0.65625,0.0312 l -0.40625,2.09375 c -0.33446,0.0733 -0.66305,0.17589 -0.96875,0.3125 l -1.53125,-1.46875 c -0.38863,0.23011 -0.72695,0.51408 -1.0625,0.8125 l 0.90625,1.90625 c -0.22242,0.24899 -0.42425,0.5225 -0.59375,0.8125 l -2.09375,-0.28125 c -0.17772,0.40877 -0.30872,0.83637 -0.40625,1.28125 l 1.84375,1 c -0.0171,0.16809 -0.0312,0.3274 -0.0312,0.5 0,0.1726 0.0142,0.33191 0.0312,0.5 l -1.84375,1 c 0.0975,0.44488 0.22853,0.87248 0.40625,1.28125 l 2.09375,-0.28125 c 0.1695,0.29 0.37133,0.56351 0.59375,0.8125 l -0.90625,1.90625 c 0.33555,0.29842 0.67387,0.58239 1.0625,0.8125 l 1.53125,-1.46875 c 0.3057,0.13661 0.63429,0.23916 0.96875,0.3125 l 0.40625,2.09375 c 0.21544,0.02 0.4356,0.0312 0.65625,0.0312 0.22065,0 0.44081,-0.0113 0.65625,-0.0312 l 0.40625,-2.09375 c 0.33446,-0.0733 0.66305,-0.17589 0.96875,-0.3125 l 1.53125,1.46875 c 0.38863,-0.23011 0.72695,-0.51408 1.0625,-0.8125 l -0.90625,-1.90625 c 0.22242,-0.24899 0.42425,-0.5225 0.59375,-0.8125 l 2.09375,0.28125 c 0.17772,-0.40877 0.30872,-0.83637 0.40625,-1.28125 l -1.84375,-1 c 0.0171,-0.16809 0.0312,-0.3274 0.0312,-0.5 0,-0.1726 -0.0142,-0.33191 -0.0312,-0.5 l 1.84375,-1 c -0.0975,-0.44488 -0.22853,-0.87248 -0.40625,-1.28125 l -2.09375,0.28125 c -0.1695,-0.29 -0.37133,-0.56351 -0.59375,-0.8125 l 0.90625,-1.90625 c -0.33555,-0.29842 -0.67387,-0.58239 -1.0625,-0.8125 l -1.53125,1.46875 c -0.3057,-0.13661 -0.63429,-0.23916 -0.96875,-0.3125 l -0.40625,-2.09375 C 450.44101,403.0112 450.22085,403 450.0002,403 Z m 0,4 c 1.65685,0 3,1.34315 3,3 0,1.65685 -1.34315,3 -3,3 -1.65685,0 -3,-1.34315 -3,-3 0,-1.65685 1.34315,-3 3,-3 z"
         id="path31717"
         inkscape:connector-curvature="0"
         sodipodi:nodetypes="sccccccccccsccccccccccsccccccccccsccccccccccssssss" />
    </g>
    <path
       style="fill:none;fill-rule:evenodd;stroke:#dbdbdb;stroke-width:0.28222221px;stroke-linecap:butt;stroke-linejoin:miter;stroke-opacity:1"
       d="M 144.18529,173.62948 H 53.027496"
       id="path31719"
       inkscape:connector-curvature="0" />
    <path
       inkscape:connector-curvature="0"
       id="path31721"
       d="M 144.18529,164.31615 H 53.027496"
       style="fill:none;fill-rule:evenodd;stroke:#dbdbdb;stroke-width:0.28222221px;stroke-linecap:butt;stroke-linejoin:miter;stroke-opacity:1" />
    <g
       style="display:inline"
       transform="matrix(0.28222223,0,0,0.28222223,82.096306,-75.149409)"
       inkscape:label="object-select"
       id="g31723">
      <path
         style="fill:none;stroke:#2e3436;stroke-width:3;stroke-linecap:butt;stroke-linejoin:miter;stroke-miterlimit:4;stroke-dasharray:none;stroke-opacity:1"
         d="m 65.00055,794.99698 2.999913,2.99886 5.999826,-5.99773"
         id="path31725"
         inkscape:path-effect="#path-effect8915-0-8-2-7-4-4-8"
         inkscape:original-d="m 65.00055,794.99698 2.999913,2.99886 5.999826,-5.99773"
         inkscape:connector-curvature="0"
         sodipodi:nodetypes="ccc" />
      <rect
         style="color:#bebebe;display:inline;overflow:visible;visibility:visible;fill:none;stroke:none;stroke-width:1;marker:none"
         id="rect31727"
         width="16"
         height="16"
         x="61.000198"
         y="787"
         inkscape:label="a" />
    </g>
    <g
       transform="matrix(0.28222223,0,0,0.28222223,143.33855,-2.9005186)"
       id="g13370"
       inkscape:label="system-run"
       style="display:inline">
      <rect
         inkscape:label="a"
         y="337"
         x="41.000198"
         height="16"
         width="16"
         id="rect13372"
         style="color:#bebebe;display:inline;overflow:visible;visibility:visible;fill:none;stroke:none;stroke-width:1;marker:none" />
      <path
         inkscape:connector-curvature="0"
         id="path13374"
         d="m 52.375,337.25 c -0.239942,0.43525 -0.467624,1.00577 -0.71875,1.4375 -0.09387,-0.007 -0.185709,-0.0313 -0.28125,-0.0313 -0.332255,0 -0.660088,0.0487 -0.96875,0.125 -0.305025,-0.3828 -0.630342,-0.89813 -0.9375,-1.28125 -0.284596,0.10504 -0.552268,0.22648 -0.8125,0.375 0.09593,0.48262 0.276896,1.07105 0.375,1.5625 -0.343004,0.24882 -0.626184,0.532 -0.875,0.875 -0.491453,-0.0981 -1.079882,-0.27907 -1.5625,-0.375 -0.148521,0.26023 -0.269963,0.5279 -0.375,0.8125 0.383118,0.30716 0.898446,0.63248 1.28125,0.9375 -0.07635,0.30866 -0.125,0.6365 -0.125,0.96875 0,0.0955 0.02466,0.18738 0.03125,0.28125 -0.431735,0.25113 -1.00225,0.47881 -1.4375,0.71875 0.05124,0.27476 0.128303,0.55374 0.21875,0.8125 0.491399,-0.01 1.099493,-0.0946 1.59375,-0.0937 0.187125,0.39176 0.420532,0.75381 0.71875,1.0625 -0.172042,0.46783 -0.448123,1.0086 -0.625,1.46875 0.212898,0.1757 0.449497,0.32623 0.6875,0.46875 0.369206,-0.32011 0.775422,-0.77147 1.15625,-1.09375 0.378045,0.17256 0.788621,0.26529 1.21875,0.3125 0.164542,0.47676 0.304284,1.08808 0.46875,1.5625 0.30154,-0.002 0.586801,-0.0141 0.875,-0.0625 0.08055,-0.49291 0.110368,-1.11855 0.1875,-1.625 0.410087,-0.11684 0.811342,-0.26698 1.15625,-0.5 0.424331,0.26446 0.898868,0.62889 1.3125,0.875 0.223737,-0.19067 0.43433,-0.40126 0.625,-0.625 -0.246108,-0.41363 -0.610541,-0.88817 -0.875,-1.3125 0.233016,-0.34491 0.383162,-0.74616 0.5,-1.15625 0.506449,-0.0771 1.132085,-0.10695 1.625,-0.1875 0.04835,-0.2882 0.06081,-0.57346 0.0625,-0.875 -0.474423,-0.16447 -1.085738,-0.30421 -1.5625,-0.46875 C 55.265292,341.78862 55.172555,341.37805 55,341 c 0.32228,-0.38083 0.773639,-0.78704 1.09375,-1.15625 -0.142521,-0.238 -0.293051,-0.4746 -0.46875,-0.6875 -0.460149,0.17688 -1.000924,0.45296 -1.46875,0.625 -0.308689,-0.29822 -0.670736,-0.53162 -1.0625,-0.71875 -8.87e-4,-0.49426 0.08396,-1.10235 0.09375,-1.59375 -0.258762,-0.0904 -0.537737,-0.16751 -0.8125,-0.21875 z m -1,3.40625 c 1.104569,0 2,0.89543 2,2 0,1.10457 -0.895431,2 -2,2 -1.104569,0 -2,-0.89543 -2,-2 0,-1.10457 0.895431,-2 2,-2 z"
         style="color:#000000;display:inline;overflow:visible;visibility:visible;fill:#2e3436;fill-opacity:1;fill-rule:nonzero;stroke:none;stroke-width:1;marker:none;enable-background:accumulate" />
      <path
         id="path13376"
         transform="translate(-20)"
         d="m 64.6875,344.75 c -0.230139,0.0471 -0.443908,0.13096 -0.65625,0.21875 -0.01671,0.62433 0.08693,1.44177 -0.15625,1.65625 -0.238965,0.21077 -1.038358,0.0343 -1.65625,-0.0313 -0.131388,0.23649 -0.235259,0.48523 -0.3125,0.75 0.478093,0.39586 1.140508,0.83901 1.15625,1.15625 0.01594,0.32119 -0.626418,0.80489 -1.0625,1.25 0.103387,0.25783 0.250144,0.49354 0.40625,0.71875 0.608323,-0.12641 1.366392,-0.37354 1.625,-0.1875 0.263308,0.18942 0.265212,1.00535 0.34375,1.625 0.249548,0.075 0.512509,0.1045 0.78125,0.125 0.281352,-0.55462 0.567413,-1.3198 0.875,-1.40625 0.315752,-0.0887 0.963545,0.45813 1.5,0.78125 0.21871,-0.1516 0.412931,-0.33706 0.59375,-0.53125 -0.253838,-0.57232 -0.721084,-1.29192 -0.59375,-1.59375 0.127453,-0.30211 0.975404,-0.46963 1.5625,-0.6875 0.0044,-0.0735 0.03125,-0.14414 0.03125,-0.21875 0,-0.19137 -0.0344,-0.37899 -0.0625,-0.5625 -0.606097,-0.16082 -1.467207,-0.2413 -1.625,-0.53125 -0.156736,-0.28801 0.241786,-1.0614 0.4375,-1.65625 -0.201161,-0.17858 -0.419409,-0.33716 -0.65625,-0.46875 -0.500893,0.37513 -1.084329,0.99436 -1.40625,0.9375 -0.316887,-0.056 -0.662888,-0.81955 -1,-1.34375 -0.04019,0.007 -0.08527,-0.008 -0.125,0 z m 0.625,1.875 c 0.931981,0 1.6875,0.75552 1.6875,1.6875 0,0.93198 -0.755519,1.6875 -1.6875,1.6875 -0.931981,0 -1.6875,-0.75552 -1.6875,-1.6875 0,-0.93198 0.755519,-1.6875 1.6875,-1.6875 z"
         style="color:#000000;display:inline;overflow:visible;visibility:visible;fill:#2e3436;fill-opacity:1;fill-rule:nonzero;stroke:none;stroke-width:1;marker:none;enable-background:accumulate"
         inkscape:connector-curvature="0" />
    </g>
    <flowRoot
       transform="matrix(0.28222223,0,0,0.28222223,-46.891334,-351.69619)"
       style="font-style:normal;font-variant:normal;font-weight:normal;font-stretch:normal;line-height:0.01%;font-family:Cantarell;-inkscape-font-specification:Cantarell;text-align:center;letter-spacing:0px;word-spacing:0px;text-anchor:middle;fill:#2e3436;fill-opacity:1;stroke:none;stroke-width:1px;stroke-linecap:butt;stroke-linejoin:miter;stroke-opacity:1"
       id="flowRoot32751"
       xml:space="preserve"><flowRegion
         id="flowRegion32753"><rect
           style="font-style:normal;font-variant:normal;font-weight:normal;font-stretch:normal;font-size:13.75px;font-family:Cantarell;-inkscape-font-specification:Cantarell;text-align:center;text-anchor:middle;fill:#2e3436"
           y="1502"
           x="450"
           height="43"
           width="546"
           id="rect32755" /></flowRegion><flowPara
         id="flowPara32757"
         style="font-weight:normal;font-size:13.75px;line-height:1.25;text-align:center;text-anchor:middle">Build</flowPara></flowRoot>    <path
       inkscape:connector-curvature="0"
       id="path32759"
       d="m 157.0264,79.226111 v 6.77334"
       style="fill:none;fill-rule:evenodd;stroke:#2e3436;stroke-width:0.28222224px;stroke-linecap:butt;stroke-linejoin:miter;stroke-opacity:1" />
  </g>
</svg>
