<?xml version="1.0" encoding="UTF-8" standalone="no"?>
<!-- Created with Inkscape (http://www.inkscape.org/) -->

<svg
   xmlns:dc="http://purl.org/dc/elements/1.1/"
   xmlns:cc="http://creativecommons.org/ns#"
   xmlns:rdf="http://www.w3.org/1999/02/22-rdf-syntax-ns#"
   xmlns:svg="http://www.w3.org/2000/svg"
   xmlns="http://www.w3.org/2000/svg"
   xmlns:sodipodi="http://sodipodi.sourceforge.net/DTD/sodipodi-0.dtd"
   xmlns:inkscape="http://www.inkscape.org/namespaces/inkscape"
   width="63.208mm"
   height="72.813004mm"
   viewBox="0 0 63.208 72.813004"
   version="1.1"
   id="svg6386"
   inkscape:version="0.92.1 r"
   sodipodi:docname="perspectives.svg"
   inkscape:export-filename="/home/christian/Projects/gnome-builder/doc/figures/perspectives.png"
   inkscape:export-xdpi="200"
   inkscape:export-ydpi="200">
  <defs
     id="defs6380" />
  <sodipodi:namedview
     id="base"
     pagecolor="#ffffff"
     bordercolor="#666666"
     borderopacity="1.0"
     inkscape:pageopacity="0.0"
     inkscape:pageshadow="2"
     inkscape:zoom="1"
     inkscape:cx="211.68581"
     inkscape:cy="175.64998"
     inkscape:document-units="mm"
     inkscape:current-layer="layer1"
     showgrid="false"
     inkscape:window-width="1920"
     inkscape:window-height="1016"
     inkscape:window-x="0"
     inkscape:window-y="27"
     inkscape:window-maximized="1"
     showguides="true"
     inkscape:guide-bbox="true" />
  <metadata
     id="metadata6383">
    <rdf:RDF>
      <cc:Work
         rdf:about="">
        <dc:format>image/svg+xml</dc:format>
        <dc:type
           rdf:resource="http://purl.org/dc/dcmitype/StillImage" />
        <dc:title></dc:title>
      </cc:Work>
    </rdf:RDF>
  </metadata>
  <g
     inkscape:label="Layer 1"
     inkscape:groupmode="layer"
     id="layer1"
     transform="translate(0,-224.187)">
    <path
       style="display:inline;fill:#ededed;fill-opacity:1;stroke:#a7aba7;stroke-width:0.28477517;stroke-linecap:square;stroke-linejoin:miter;stroke-miterlimit:4;stroke-dasharray:none;stroke-opacity:1"
       d="M 60.479748,240.42317 H 14.137882 l -4.079985,-3.95111 -4.0799844,3.95111 H 3.0094609 c -1.4327329,0 -2.58616032,1.13284 -2.58616032,2.54 v 51.35572 c 0,1.40713 1.15342742,2.54 2.58616032,2.54 H 60.479748 c 1.432733,0 2.586161,-1.13287 2.586161,-2.54 v -51.35572 c 0,-1.40716 -1.153428,-2.54 -2.586161,-2.54 z"
       id="path24504"
       inkscape:connector-curvature="0"
       sodipodi:nodetypes="scccssssssss" />
    <g
       transform="matrix(0.28222223,0,0,0.28222223,-34.713339,143.75335)"
       inkscape:label="utilities-system-monitor"
       id="g24514"
       style="display:inline">
      <path
         style="color:#bebebe;display:inline;overflow:visible;visibility:visible;fill:none;stroke:#2e3436;stroke-width:2;stroke-miterlimit:4;stroke-opacity:1;marker:none"
         d="m 144.1962,399 h 11.6076 c 0.66269,0 1.1962,0.53919 1.1962,1.20895 v 10.5821 C 157,411.46081 156.46649,412 155.8038,412 H 144.1962 C 143.53351,412 143,411.46081 143,410.79105 v -10.5821 C 143,399.53919 143.53351,399 144.1962,399 Z"
         id="path24516"
         sodipodi:nodetypes="ccccccccc"
         inkscape:connector-curvature="0" />
      <rect
         style="fill:none;stroke:none"
         id="rect24518"
         width="16"
         height="16"
         x="142"
         y="398"
         rx="0"
         ry="0" />
      <path
         inkscape:connector-curvature="0"
         style="fill:none;stroke:#2e3436;stroke-width:1;stroke-linecap:square;stroke-linejoin:round;stroke-miterlimit:4;stroke-dasharray:none;stroke-opacity:1"
         d="m 145.5,407.5 h 2.5 l 1.46967,2 1.99437,-7.04419 L 153,407.5 h 1.5"
         id="path24520"
         sodipodi:nodetypes="cccccc" />
    </g>
    <flowRoot
       xml:space="preserve"
       id="flowRoot24530"
       style="font-style:normal;font-weight:normal;line-height:0.01%;font-family:sans-serif;letter-spacing:0px;word-spacing:0px;display:inline;fill:#2e3436;fill-opacity:1;stroke:none;stroke-width:1px;stroke-linecap:butt;stroke-linejoin:miter;stroke-opacity:1"
       transform="matrix(0.28222223,0,0,0.28222223,222.10885,-549.93475)"><flowRegion
         id="flowRegion24532"><rect
           id="rect24534"
           width="446"
           height="631"
           x="-738"
           y="2818"
           style="fill:#2e3436" /></flowRegion><flowPara
         id="flowPara24536"
         style="font-style:normal;font-variant:normal;font-weight:normal;font-stretch:normal;font-size:13.75px;line-height:150%;font-family:Cantarell;-inkscape-font-specification:Cantarell;fill:#2e3436">Editor</flowPara></flowRoot>    <flowRoot
       transform="matrix(0.28222223,0,0,0.28222223,222.10885,-540.0337)"
       style="font-style:normal;font-weight:normal;line-height:0.01%;font-family:sans-serif;letter-spacing:0px;word-spacing:0px;display:inline;fill:#2e3436;fill-opacity:1;stroke:none;stroke-width:1px;stroke-linecap:butt;stroke-linejoin:miter;stroke-opacity:1"
       id="flowRoot24538"
       xml:space="preserve"><flowRegion
         id="flowRegion24540"><rect
           style="fill:#2e3436"
           y="2818"
           x="-738"
           height="631"
           width="446"
           id="rect24542" /></flowRegion><flowPara
         style="font-style:normal;font-variant:normal;font-weight:normal;font-stretch:normal;font-size:13.75px;line-height:150%;font-family:Cantarell;-inkscape-font-specification:Cantarell;fill:#2e3436"
         id="flowPara24544">Profiler</flowPara></flowRoot>    <flowRoot
       xml:space="preserve"
       id="flowRoot24546"
       style="font-style:normal;font-weight:normal;line-height:0.01%;font-family:sans-serif;letter-spacing:0px;word-spacing:0px;display:inline;fill:#2e3436;fill-opacity:1;stroke:none;stroke-width:1px;stroke-linecap:butt;stroke-linejoin:miter;stroke-opacity:1"
       transform="matrix(0.28222223,0,0,0.28222223,222.10885,-530.17918)"><flowRegion
         id="flowRegion24548"><rect
           id="rect24550"
           width="446"
           height="631"
           x="-738"
           y="2818"
           style="fill:#2e3436" /></flowRegion><flowPara
         style="font-style:normal;font-variant:normal;font-weight:normal;font-stretch:normal;font-size:13.75px;line-height:150%;font-family:Cantarell;-inkscape-font-specification:Cantarell;fill:#2e3436"
         id="flowPara24552">Documentation</flowPara></flowRoot>    <g
       style="display:inline;opacity:1"
       transform="matrix(0,-0.28222223,-0.28222223,0,93.415544,285.99327)"
       inkscape:label="builder-build-configure"
       id="g24554">
      <rect
         style="color:#bebebe;display:inline;overflow:visible;visibility:visible;fill:none;stroke:none;stroke-width:2;marker:none"
         id="rect24556"
         width="16"
         height="16"
         x="19.99975"
         y="296" />
      <g
         id="g24558"
         style="opacity:0.25" />
      <path
         inkscape:connector-curvature="0"
         style="color:#000000;clip-rule:nonzero;display:inline;overflow:visible;visibility:visible;opacity:1;isolation:auto;mix-blend-mode:normal;color-interpolation:sRGB;color-interpolation-filters:linearRGB;solid-color:#000000;solid-opacity:1;fill:#2e3436;fill-opacity:1;fill-rule:nonzero;stroke:none;stroke-width:1;stroke-linecap:butt;stroke-linejoin:miter;stroke-miterlimit:4;stroke-dasharray:1, 2;stroke-dashoffset:0;stroke-opacity:1;marker:none;marker-start:none;marker-mid:none;marker-end:none;paint-order:normal;color-rendering:auto;image-rendering:auto;shape-rendering:auto;text-rendering:auto;enable-background:new"
         d="m -38.935547,-70.953125 v 2.960937 h 5.966797 v -2.960937 z m 6.96875,0 v 2.960937 H -26 v -2.960937 z M -39,-66.960938 V -64 h 1.998047 v -2.960938 z m 3.033203,0 V -64 h 2.574219 A 5.5000052,5.5000052 0 0 1 -30,-66.789062 v -0.171876 z m 8.09375,0 A 5.5000052,5.5000052 0 0 1 -26,-66.392578 v -0.56836 z m -11.0625,4.101563 v 2.960937 h 5.179688 A 5.5000052,5.5000052 0 0 1 -34,-61.5 a 5.5000052,5.5000052 0 0 1 0.177734,-1.359375 z"
         transform="matrix(0,-1,-1,0,-36.989426,271.99995)"
         id="path24560" />
      <path
         sodipodi:nodetypes="sccccccsscccccss"
         inkscape:connector-curvature="0"
         id="path24562"
         d="m 28.079085,300.5609 c 0,0.40656 -0.0924,0.79288 -0.21875,1.15625 l -1.90625,-1.90625 c -0.39326,-0.39436 -1.01297,-0.39436 -1.40625,0 l -0.75,0.71875 c -0.39327,0.39436 -0.39327,1.0119 0,1.40625 l 1.9375,1.9375 c -0.36235,0.12669 -0.75081,0.21875 -1.15625,0.21875 -1.94058,0 -3.53125,-1.58533 -3.53125,-3.53125 0,-0.40656 0.0924,-0.79288 0.21875,-1.15625 l -1.1875,-1.21875 c 2.6e-4,-0.021 2.6e-4,-0.0415 0,-0.0625 l 2.09375,-2.09375 1.21875,1.21875 c 0.36235,-0.1267 0.78205,-0.21875 1.1875,-0.21875 1.94057,0 3.5,1.58534 3.5,3.53125 z"
         style="color:#000000;font-style:normal;font-variant:normal;font-weight:normal;font-stretch:normal;font-size:medium;line-height:normal;font-family:Sans;-inkscape-font-specification:Sans;text-indent:0;text-align:start;text-decoration:none;text-decoration-line:none;letter-spacing:normal;word-spacing:normal;text-transform:none;writing-mode:lr-tb;direction:ltr;text-anchor:start;display:inline;overflow:visible;visibility:visible;fill:#2e3436;fill-opacity:1;fill-rule:nonzero;stroke:none;stroke-width:3;marker:none;enable-background:accumulate" />
    </g>
    <g
       id="g24564"
       transform="matrix(0.28217633,0,0,0.2814021,-5.9248944,86.491562)"
       inkscape:label="preferences-system"
       style="display:inline">
      <path
         inkscape:connector-curvature="0"
         id="path24566"
         d="m 43.549718,708.04419 c -0.399396,0 -0.786509,0.0919 -1.143474,0.21635 l 1.885188,1.88519 c 0.387409,0.3874 0.387409,1.00329 0,1.39071 l -0.710808,0.71081 c -0.387409,0.3874 -1.003305,0.3874 -1.390714,0 l -1.885188,-1.88519 c -0.12446,0.35695 -0.216334,0.74407 -0.216334,1.14347 0,1.91164 1.549691,3.46132 3.46133,3.46132 0.399396,0 0.786511,-0.0919 1.143476,-0.21633 l 1.17438,1.17438 a 2.4726259,2.4726259 0 0 1 0.0618,0 l 2.070622,-2.07061 -1.205284,-1.20529 c 0.124458,-0.35695 0.216332,-0.74407 0.216332,-1.14347 0,-1.91164 -1.549689,-3.46134 -3.46133,-3.46134 z m 6.551804,7.91162 -2.070618,2.07061 a 2.4726259,2.4726259 0 0 1 0.03091,0.0927 l 1.143474,1.14347 c -0.124458,0.357 -0.216332,0.74412 -0.216332,1.14352 0,1.91164 1.549689,3.46134 3.46133,3.46134 0.433532,0 0.853742,-0.1017 1.236188,-0.24724 l -2.008806,-2.00881 c -0.387409,-0.38742 -0.387409,-1.0342 0,-1.42162 l 0.679904,-0.6799 c 0.193705,-0.19371 0.458013,-0.30906 0.710808,-0.30906 0.252795,0 0.517105,0.11535 0.71081,0.30906 l 1.946998,1.94699 c 0.104867,-0.33054 0.185428,-0.6855 0.185428,-1.05076 0,-1.91164 -1.549691,-3.46132 -3.46133,-3.46132 -0.399396,0 -0.786511,0.0919 -1.143476,0.21633 l -1.205286,-1.2053 z"
         style="color:#000000;font-style:normal;font-variant:normal;font-weight:normal;font-stretch:normal;font-size:medium;line-height:normal;font-family:Sans;-inkscape-font-specification:Sans;text-indent:0;text-align:start;text-decoration:none;text-decoration-line:none;letter-spacing:normal;word-spacing:normal;text-transform:none;writing-mode:lr-tb;direction:ltr;text-anchor:start;display:inline;overflow:visible;visibility:visible;fill:#2e3436;fill-opacity:1;fill-rule:nonzero;stroke:none;stroke-width:3;marker:none;enable-background:accumulate" />
      <path
         inkscape:connector-curvature="0"
         id="path24568"
         d="m 53.860505,707.95337 -1.542705,1.44172 c -0.451586,0.42201 -0.529293,1.15218 -0.266343,1.71144 l -5.889182,6.01323 a 1.4919155,1.4919127 0 0 0 -0.03108,2.5e-4 1.4919155,1.4919127 0 0 0 -0.840306,-0.14884 1.4919155,1.4919127 0 0 0 -0.866771,0.44188 l -3.94684,4.00899 a 1.4943601,1.4943574 0 1 0 2.129781,2.09677 l 3.946839,-4.00899 a 1.4919155,1.4919127 0 0 0 0.297178,-1.74277 l 5.889423,-5.98216 c 0.557911,0.2491 1.273451,0.1474 1.707079,-0.29305 l 1.417423,-1.56504 -2.004499,-1.97343 z"
         style="color:#000000;font-style:normal;font-variant:normal;font-weight:normal;font-stretch:normal;font-size:medium;line-height:normal;font-family:Sans;-inkscape-font-specification:Sans;text-indent:0;text-align:start;text-decoration:none;text-decoration-line:none;letter-spacing:normal;word-spacing:normal;text-transform:none;writing-mode:lr-tb;direction:ltr;text-anchor:start;display:inline;overflow:visible;visibility:visible;fill:#2e3436;fill-opacity:1;fill-rule:nonzero;stroke:none;stroke-width:3;marker:none;enable-background:accumulate" />
      <rect
         style="color:#000000;display:inline;overflow:visible;visibility:visible;fill:none;stroke:none;stroke-width:1;marker:none;enable-background:new"
         id="rect24570"
         width="16"
         height="16"
         x="201"
         y="245"
         transform="matrix(1.0001626,0,0,1.0029144,-161.03248,462.23935)" />
    </g>
    <flowRoot
       transform="matrix(0.28222223,0,0,0.28222223,222.10885,-520.27813)"
       style="font-style:normal;font-weight:normal;line-height:0.01%;font-family:sans-serif;letter-spacing:0px;word-spacing:0px;display:inline;fill:#2e3436;fill-opacity:1;stroke:none;stroke-width:1px;stroke-linecap:butt;stroke-linejoin:miter;stroke-opacity:1"
       id="flowRoot24592"
       xml:space="preserve"><flowRegion
         id="flowRegion24594"><rect
           style="fill:#2e3436"
           y="2818"
           x="-738"
           height="631"
           width="446"
           id="rect24596" /></flowRegion><flowPara
         style="font-style:normal;font-variant:normal;font-weight:normal;font-stretch:normal;font-size:13.75px;line-height:150%;font-family:Cantarell;-inkscape-font-specification:Cantarell;fill:#2e3436"
         id="flowPara24598">Build Preferences</flowPara></flowRoot>    <flowRoot
       xml:space="preserve"
       id="flowRoot24600"
       style="font-style:normal;font-weight:normal;line-height:0.01%;font-family:sans-serif;letter-spacing:0px;word-spacing:0px;display:inline;fill:#2e3436;fill-opacity:1;stroke:none;stroke-width:1px;stroke-linecap:butt;stroke-linejoin:miter;stroke-opacity:1"
       transform="matrix(0.28222223,0,0,0.28222223,222.10885,-510.40034)"><flowRegion
         id="flowRegion24602"><rect
           id="rect24604"
           width="446"
           height="631"
           x="-738"
           y="2818"
           style="fill:#2e3436" /></flowRegion><flowPara
         id="flowPara24606"
         style="font-style:normal;font-variant:normal;font-weight:normal;font-stretch:normal;font-size:13.75px;line-height:150%;font-family:Cantarell;-inkscape-font-specification:Cantarell;fill:#2e3436">Preferences</flowPara></flowRoot>    <g
       inkscape:label="builder-editor"
       id="g24776"
       style="display:inline"
       transform="matrix(0.28222223,0,0,0.28222223,-40.678331,191.16618)">
      <path
         style="fill:#2e3436;fill-opacity:1;stroke:none"
         d="m 165.99812,205.0006 -0.99931,3.9996 h 11.99173 l -0.99931,-3.9996 h -2.99793 l -2.49005,1.9998 h -3.50581 v -1.9998 z"
         id="path24778"
         inkscape:connector-curvature="0"
         sodipodi:nodetypes="ccccccccc" />
      <rect
         y="195.00317"
         x="163.1358"
         height="16"
         width="16"
         id="rect24780"
         style="fill:none;stroke:none" />
      <rect
         y="210.00011"
         x="164.99881"
         height="0.99988312"
         width="11.991719"
         id="rect24782"
         style="fill:#2e3436;fill-opacity:1;stroke:none"
         ry="0" />
      <path
         inkscape:connector-curvature="0"
         sodipodi:nodetypes="cccccc"
         id="path24784"
         d="m 167.99856,204.00069 6.99336,-6.9993 c 0.9993,0 1.99862,0.9999 1.99862,1.9998 l -6.99517,6.99931 h -1.99862 z"
         style="fill:#2e3436;fill-opacity:1;fill-rule:evenodd;stroke:none" />
      <path
         inkscape:connector-curvature="0"
         sodipodi:nodetypes="ccccc"
         id="path24786"
         d="m 175.99123,196.00149 c 0.99931,0 1.99863,0.9999 1.99863,1.9998 l 0.99931,-0.9999 c 0,-0.9999 -0.75134,-1.9998 -1.99863,-1.9998 z"
         style="display:inline;overflow:visible;visibility:visible;fill:#2e3436;fill-opacity:1;fill-rule:nonzero;stroke:none;stroke-width:1;marker:none;enable-background:new" />
    </g>
    <g
       transform="matrix(0.28222223,0,0,0.28222223,-8.2172644,153.63113)"
       inkscape:label="builder-documentation"
       id="g24788">
      <rect
         style="color:#bebebe;display:inline;overflow:visible;visibility:visible;opacity:0.51464431;fill:none;stroke:none;stroke-width:3;marker:none;enable-background:accumulate"
         id="rect24790"
         width="16"
         height="16"
         x="48.116268"
         y="398" />
      <path
         style="color:#000000;display:inline;overflow:visible;visibility:visible;fill:#2e3436;fill-opacity:1;stroke:none;stroke-width:0.99999976;marker:none;enable-background:new"
         d="m -153.61075,-40.9375 c -0.85693,0.0028 -2.358,0.913597 -2.358,2.521828 v 9.853172 c 0,0.85692 0.70558,1.5625 1.5625,1.5625 h 9.4375 c 1.125,0.03125 0.93388,-0.98875 0.93388,-0.98875 l -9.33599,0.0253 c -2.28266,0.0062 -2.08441,-2.991236 -0.0372,-2.99375 l 9.40809,-0.01155 0.0312,-10 z m 0.63848,1.875 h 2.6875 c 3.31698,0 4.27148,1.263093 4.25,3.03125 -0.03,2.467798 -2.19062,3.011827 -4.81434,3.103464 -0.62199,0.02172 -1.50599,0.02154 -2.12316,0.02154 z m 2.03125,1.0625 v 4.03125 c 1.94269,0.02302 2.99796,-0.683252 3,-2.0625 0.003,-1.76848 -1.24077,-1.938279 -3,-1.96875 z"
         transform="translate(206,440)"
         id="path24792"
         inkscape:connector-curvature="0"
         sodipodi:nodetypes="ssssccssccscsssccccsc" />
      <g
         transform="matrix(0.28893613,0,0,0.28893613,95.491581,418.94283)"
         style="font-style:normal;font-variant:normal;font-weight:bold;font-stretch:normal;font-size:40px;line-height:125%;font-family:Cantarell;-inkscape-font-specification:'Cantarell Bold';text-align:start;letter-spacing:0px;word-spacing:0px;writing-mode:lr-tb;text-anchor:start;fill:#000000;fill-opacity:1;stroke:none"
         id="g24794" />
      <path
         style="color:#000000;display:inline;overflow:visible;visibility:visible;opacity:0.3;fill:#2e3436;fill-opacity:1;fill-rule:nonzero;stroke:none;stroke-width:0.99999976;marker:none;enable-background:new"
         d="m 50.52067,409.0625 h 10.44808 c -1.18379,0.49216 -1.2956,2.4585 0,3 H 50.52067 Z"
         id="path24796"
         inkscape:connector-curvature="0"
         sodipodi:nodetypes="ccccc" />
    </g>
    <rect
       style="color:#000000;display:inline;overflow:visible;visibility:visible;fill:#dbdbdb;fill-opacity:1;fill-rule:nonzero;stroke:#919191;stroke-width:0.28222221;stroke-linecap:butt;stroke-linejoin:miter;stroke-miterlimit:4;stroke-dasharray:none;stroke-dashoffset:0;stroke-opacity:1;marker:none;enable-background:accumulate"
       id="rect24798"
       width="19.473335"
       height="9.3133335"
       x="0.14111111"
       y="224.32777"
       rx="0.84666663"
       ry="0.84666669"
       inkscape:export-filename="/home/lapo.fedora/SparkleShare/gnome-mockups/content selection/content-selection.png"
       inkscape:export-xdpi="90"
       inkscape:export-ydpi="90" />
    <g
       inkscape:label="builder-editor"
       id="g24800"
       style="display:inline"
       transform="matrix(0.28222223,0,0,0.28222223,-41.807215,171.69268)">
      <path
         style="fill:#2e3436;fill-opacity:1;stroke:none"
         d="m 165.99812,205.0006 -0.99931,3.9996 h 11.99173 l -0.99931,-3.9996 h -2.99793 l -2.49005,1.9998 h -3.50581 v -1.9998 z"
         id="path24802"
         inkscape:connector-curvature="0"
         sodipodi:nodetypes="ccccccccc" />
      <rect
         y="195.00317"
         x="163.1358"
         height="16"
         width="16"
         id="rect24804"
         style="fill:none;stroke:none" />
      <rect
         y="210.00011"
         x="164.99881"
         height="0.99988312"
         width="11.991719"
         id="rect24806"
         style="fill:#2e3436;fill-opacity:1;stroke:none"
         ry="0" />
      <path
         inkscape:connector-curvature="0"
         sodipodi:nodetypes="cccccc"
         id="path24808"
         d="m 167.99856,204.00069 6.99336,-6.9993 c 0.9993,0 1.99862,0.9999 1.99862,1.9998 l -6.99517,6.99931 h -1.99862 z"
         style="fill:#2e3436;fill-opacity:1;fill-rule:evenodd;stroke:none" />
      <path
         inkscape:connector-curvature="0"
         sodipodi:nodetypes="ccccc"
         id="path24810"
         d="m 175.99123,196.00149 c 0.99931,0 1.99863,0.9999 1.99863,1.9998 l 0.99931,-0.9999 c 0,-0.9999 -0.75134,-1.9998 -1.99863,-1.9998 z"
         style="display:inline;overflow:visible;visibility:visible;fill:#2e3436;fill-opacity:1;fill-rule:nonzero;stroke:none;stroke-width:1;marker:none;enable-background:new" />
    </g>
    <g
       transform="matrix(0,-0.28222223,0.28222223,0,-198.96666,259.46452)"
       id="g24812">
      <path
         style="fill:#2e3436;fill-opacity:1;stroke:none"
         d="m 110.00021,758 -5,-5 5,-5 z"
         id="path24814"
         inkscape:connector-curvature="0"
         sodipodi:nodetypes="cccc" />
      <rect
         width="16"
         height="16"
         x="-116.0002"
         y="745"
         id="rect24816"
         style="color:#bebebe;display:inline;overflow:visible;visibility:visible;fill:none;stroke:none;stroke-width:1;marker:none;enable-background:new"
         transform="scale(-1,1)" />
    </g>
    <flowRoot
       xml:space="preserve"
       id="flowRoot24530-3"
       style="font-style:normal;font-weight:normal;line-height:0.01%;font-family:sans-serif;letter-spacing:0px;word-spacing:0px;display:inline;fill:#2e3436;fill-opacity:1;stroke:none;stroke-width:1px;stroke-linecap:butt;stroke-linejoin:miter;stroke-opacity:1"
       transform="matrix(0.28222223,0,0,0.28222223,256.72673,-549.94399)"><flowRegion
         id="flowRegion24532-6"><rect
           id="rect24534-7"
           width="446"
           height="631"
           x="-738"
           y="2818"
           style="fill:#2e3436" /></flowRegion><flowPara
         id="flowPara24536-5"
         style="font-style:normal;font-variant:normal;font-weight:normal;font-stretch:normal;font-size:13.75px;line-height:150%;font-family:Cantarell;-inkscape-font-specification:Cantarell;fill:#999999">Alt+1</flowPara></flowRoot>  </g>
</svg>
