<?xml version="1.0" encoding="UTF-8" standalone="no"?>
<!-- Created with Inkscape (http://www.inkscape.org/) -->

<svg
   xmlns:dc="http://purl.org/dc/elements/1.1/"
   xmlns:cc="http://creativecommons.org/ns#"
   xmlns:rdf="http://www.w3.org/1999/02/22-rdf-syntax-ns#"
   xmlns:svg="http://www.w3.org/2000/svg"
   xmlns="http://www.w3.org/2000/svg"
   xmlns:sodipodi="http://sodipodi.sourceforge.net/DTD/sodipodi-0.dtd"
   xmlns:inkscape="http://www.inkscape.org/namespaces/inkscape"
   width="395.11099mm"
   height="35.395mm"
   viewBox="0 0 395.11099 35.395"
   version="1.1"
   id="svg6118"
   inkscape:version="0.92.1 r"
   sodipodi:docname="workbench.svg">
  <defs
     id="defs6112" />
  <sodipodi:namedview
     id="base"
     pagecolor="#ffffff"
     bordercolor="#666666"
     borderopacity="1.0"
     inkscape:pageopacity="0.0"
     inkscape:pageshadow="2"
     inkscape:zoom="0.7"
     inkscape:cx="641.03474"
     inkscape:cy="-41.438412"
     inkscape:document-units="mm"
     inkscape:current-layer="layer1"
     showgrid="false"
     inkscape:window-width="1920"
     inkscape:window-height="1016"
     inkscape:window-x="0"
     inkscape:window-y="27"
     inkscape:window-maximized="1" />
  <metadata
     id="metadata6115">
    <rdf:RDF>
      <cc:Work
         rdf:about="">
        <dc:format>image/svg+xml</dc:format>
        <dc:type
           rdf:resource="http://purl.org/dc/dcmitype/StillImage" />
        <dc:title></dc:title>
      </cc:Work>
    </rdf:RDF>
  </metadata>
  <g
     inkscape:label="Layer 1"
     inkscape:groupmode="layer"
     id="layer1"
     transform="translate(0,-261.605)">
    <rect
       ry="2.5400002"
       rx="2.5400002"
       y="261.74646"
       x="0.14111108"
       height="26.52792"
       width="394.82892"
       id="rect11472"
       style="display:inline;fill:#f2f2f2;fill-opacity:1;stroke:#a7a7a7;stroke-width:0.28222215;stroke-linecap:square;stroke-miterlimit:4;stroke-dasharray:none;stroke-dashoffset:0;stroke-opacity:1" />
    <g
       id="g11474"
       transform="matrix(0.28222223,0,0,0.28222223,385.51554,266.12096)"
       style="display:inline;fill:#919191"
       inkscape:export-xdpi="90"
       inkscape:export-ydpi="90">
      <g
         style="display:inline;fill:#919191"
         id="g11476"
         transform="translate(-60,-518)" />
      <g
         id="g11478"
         transform="translate(-60,-518)"
         style="fill:#919191" />
      <g
         id="g11480"
         transform="translate(-60,-518)"
         style="fill:#919191" />
      <g
         id="g11482"
         transform="translate(-60,-518)"
         style="fill:#919191">
        <g
           style="display:inline;fill:#919191"
           id="g11484"
           transform="translate(19,-242)">
          <path
             style="color:#bebebe;font-style:normal;font-variant:normal;font-weight:normal;font-stretch:normal;font-size:medium;line-height:normal;font-family:'Andale Mono';-inkscape-font-specification:'Andale Mono';text-indent:0;text-align:start;text-decoration:none;text-decoration-line:none;letter-spacing:normal;word-spacing:normal;text-transform:none;writing-mode:lr-tb;direction:ltr;text-anchor:start;display:inline;overflow:visible;visibility:visible;fill:#919191;fill-opacity:1;fill-rule:nonzero;stroke:none;stroke-width:1.78124988;marker:none;enable-background:new"
             id="path11486"
             d="m 45,764 h 1 c 0.01037,-1.2e-4 0.02079,-4.6e-4 0.03125,0 0.254951,0.0112 0.50987,0.12858 0.6875,0.3125 L 49,766.59375 51.3125,764.3125 C 51.578125,764.082 51.759172,764.007 52,764 h 1 v 1 c 0,0.28647 -0.03434,0.55065 -0.25,0.75 l -2.28125,2.28125 2.25,2.25 C 52.906938,770.46942 52.999992,770.7347 53,771 v 1 h -1 c -0.265301,-10e-6 -0.530586,-0.0931 -0.71875,-0.28125 L 49,769.4375 46.71875,771.71875 C 46.530586,771.90694 46.26529,772 46,772 h -1 v -1 c -3e-6,-0.26529 0.09306,-0.53058 0.28125,-0.71875 l 2.28125,-2.25 L 45.28125,765.75 C 45.070508,765.55537 44.97809,765.28075 45,765 Z"
             inkscape:connector-curvature="0" />
        </g>
      </g>
      <g
         id="g11488"
         transform="translate(-60,-518)"
         style="fill:#919191" />
      <g
         id="g11490"
         transform="translate(-60,-518)"
         style="fill:#919191" />
      <g
         id="g11492"
         transform="translate(-60,-518)"
         style="fill:#919191" />
    </g>
    <path
       sodipodi:nodetypes="cccc"
       inkscape:connector-curvature="0"
       id="path11494"
       d="M 0.14111984,296.85889 V 275.44037 H 394.97 v 21.41852"
       style="display:inline;opacity:1;fill:#ffffff;fill-opacity:1;stroke:#a7a7a7;stroke-width:0.28222224;stroke-linecap:square;stroke-miterlimit:4;stroke-dasharray:none;stroke-dashoffset:0;stroke-opacity:1" />
    <rect
       style="color:#000000;display:inline;overflow:visible;visibility:visible;fill:#eaeaea;fill-opacity:1;fill-rule:nonzero;stroke:#919191;stroke-width:0.28222224;stroke-linecap:butt;stroke-linejoin:miter;stroke-miterlimit:4;stroke-dasharray:none;stroke-dashoffset:0;stroke-opacity:1;marker:none;enable-background:accumulate"
       id="rect11496"
       width="9.3133335"
       height="9.3133335"
       x="370.98117"
       y="263.72202"
       rx="0.84666669"
       ry="0.84666669"
       inkscape:export-filename="/home/lapo.fedora/SparkleShare/gnome-mockups/content selection/content-selection.png"
       inkscape:export-xdpi="90"
       inkscape:export-ydpi="90" />
    <g
       inkscape:label="open-menu"
       id="g11498"
       transform="matrix(0.28222223,0,0,0.28222223,367.73554,188.22759)"
       style="display:inline">
      <rect
         style="color:#bebebe;display:inline;overflow:visible;visibility:visible;fill:none;stroke:none;stroke-width:1;marker:none"
         id="rect11500"
         width="16"
         height="16"
         x="20"
         y="276"
         inkscape:label="a" />
      <rect
         style="color:#bebebe;display:inline;overflow:visible;visibility:visible;fill:#2e3436;fill-opacity:1;stroke:none;stroke-width:1;marker:none"
         id="rect11502"
         width="9.9996014"
         height="2.0002136"
         x="23.000198"
         y="278.99979"
         inkscape:label="a" />
      <rect
         style="color:#bebebe;display:inline;overflow:visible;visibility:visible;fill:#2e3436;fill-opacity:1;stroke:none;stroke-width:1;marker:none"
         id="rect11504"
         width="9.9996014"
         height="2.0002136"
         x="23.000198"
         y="282.99979"
         inkscape:label="a" />
      <rect
         style="color:#bebebe;display:inline;overflow:visible;visibility:visible;fill:#2e3436;fill-opacity:1;stroke:none;stroke-width:1;marker:none"
         id="rect11506"
         width="9.9996014"
         height="2.0002136"
         x="23.000198"
         y="286.99979"
         inkscape:label="a" />
    </g>
    <rect
       inkscape:export-ydpi="90"
       inkscape:export-xdpi="90"
       inkscape:export-filename="/home/lapo.fedora/SparkleShare/gnome-mockups/content selection/content-selection.png"
       ry="0.84666669"
       rx="0.84666669"
       y="263.72202"
       x="30.338924"
       height="9.3133335"
       width="9.3133335"
       id="rect11582"
       style="color:#000000;display:inline;overflow:visible;visibility:visible;fill:#eaeaea;fill-opacity:1;fill-rule:nonzero;stroke:#919191;stroke-width:0.28222224;stroke-linecap:butt;stroke-linejoin:miter;stroke-miterlimit:4;stroke-dasharray:none;stroke-dashoffset:0;stroke-opacity:1;marker:none;enable-background:accumulate" />
    <g
       transform="matrix(0.28175664,0,0,0.28222223,-12.33957,128.67871)"
       inkscape:label="document-new"
       id="g11584"
       style="display:inline">
      <rect
         style="color:#bebebe;display:inline;overflow:visible;visibility:visible;fill:none;stroke:none;stroke-width:1;marker:none"
         id="rect11586"
         width="16"
         height="16"
         x="160"
         y="487"
         rx="0"
         ry="0" />
      <path
         sodipodi:nodetypes="ccccc"
         inkscape:connector-curvature="0"
         id="path11588"
         d="m 173.00765,496.93761 v 5.03814 h -10.00439 v -12.9489 h 2.96591"
         style="display:inline;fill:none;stroke:#2e3436;stroke-width:2.00165176;stroke-linecap:round;stroke-linejoin:round;stroke-miterlimit:4;stroke-dasharray:none;stroke-opacity:1" />
      <path
         transform="matrix(1.0016524,0,0,0.99836583,160.0001,486.96869)"
         style="display:inline;fill:#2e3436;fill-opacity:1;stroke:none"
         d="m 9,2.03125 v 2 H 7 v 2 h 2 v 2 h 2 v -2 h 2 v -2 h -2 v -2 z"
         id="path11590"
         inkscape:connector-curvature="0" />
    </g>
    <rect
       inkscape:export-ydpi="90"
       inkscape:export-xdpi="90"
       inkscape:export-filename="/home/lapo.fedora/SparkleShare/gnome-mockups/content selection/content-selection.png"
       ry="0.84666669"
       rx="0.84666663"
       y="263.72202"
       x="2.1166973"
       height="9.3133335"
       width="19.473335"
       id="rect11688"
       style="color:#000000;display:inline;overflow:visible;visibility:visible;fill:#eaeaea;fill-opacity:1;fill-rule:nonzero;stroke:#919191;stroke-width:0.28222221;stroke-linecap:butt;stroke-linejoin:miter;stroke-miterlimit:4;stroke-dasharray:none;stroke-dashoffset:0;stroke-opacity:1;marker:none;enable-background:accumulate" />
    <g
       transform="matrix(0.28222223,0,0,0.28222223,-39.83166,211.08692)"
       style="display:inline"
       id="g11690"
       inkscape:label="builder-editor">
      <path
         sodipodi:nodetypes="ccccccccc"
         inkscape:connector-curvature="0"
         id="path11692"
         d="m 165.99812,205.0006 -0.99931,3.9996 h 11.99173 l -0.99931,-3.9996 h -2.99793 l -2.49005,1.9998 h -3.50581 v -1.9998 z"
         style="fill:#2e3436;fill-opacity:1;stroke:none" />
      <rect
         style="fill:none;stroke:none"
         id="rect11694"
         width="16"
         height="16"
         x="163.1358"
         y="195.00317" />
      <rect
         ry="0"
         style="fill:#2e3436;fill-opacity:1;stroke:none"
         id="rect11696"
         width="11.991719"
         height="0.99988312"
         x="164.99881"
         y="210.00011" />
      <path
         style="fill:#2e3436;fill-opacity:1;fill-rule:evenodd;stroke:none"
         d="m 167.99856,204.00069 6.99336,-6.9993 c 0.9993,0 1.99862,0.9999 1.99862,1.9998 l -6.99517,6.99931 h -1.99862 z"
         id="path11698"
         sodipodi:nodetypes="cccccc"
         inkscape:connector-curvature="0" />
      <path
         style="display:inline;overflow:visible;visibility:visible;fill:#2e3436;fill-opacity:1;fill-rule:nonzero;stroke:none;stroke-width:1;marker:none;enable-background:new"
         d="m 175.99123,196.00149 c 0.99931,0 1.99863,0.9999 1.99863,1.9998 l 0.99931,-0.9999 c 0,-0.9999 -0.75134,-1.9998 -1.99863,-1.9998 z"
         id="path11700"
         sodipodi:nodetypes="ccccc"
         inkscape:connector-curvature="0" />
    </g>
    <g
       id="g11758"
       transform="matrix(0,-0.28222223,0.28222223,0,-196.9911,298.85877)">
      <path
         sodipodi:nodetypes="cccc"
         inkscape:connector-curvature="0"
         id="path11760"
         d="m 110.00021,758 -5,-5 5,-5 z"
         style="fill:#2e3436;fill-opacity:1;stroke:none" />
      <rect
         transform="scale(-1,1)"
         style="color:#bebebe;display:inline;overflow:visible;visibility:visible;fill:none;stroke:none;stroke-width:1;marker:none;enable-background:new"
         id="rect11762"
         y="745"
         x="-116.0002"
         height="16"
         width="16" />
    </g>
    <g
       id="g24412"
       transform="matrix(0.28222223,0,0,0.28222223,20.319953,415.87871)">
      <rect
         style="color:#000000;display:inline;overflow:visible;visibility:visible;fill:#ffffff;fill-opacity:1;fill-rule:nonzero;stroke:#919191;stroke-width:0.82460189;stroke-linecap:butt;stroke-linejoin:miter;stroke-miterlimit:4;stroke-dasharray:none;stroke-dashoffset:0;stroke-opacity:1;marker:none;enable-background:accumulate"
         id="rect11574"
         width="259.17538"
         height="29.175398"
         x="952.41248"
         y="-537.22571"
         rx="2.3073158"
         ry="2.6523089"
         inkscape:export-filename="/home/lapo.fedora/SparkleShare/gnome-mockups/content selection/content-selection.png"
         inkscape:export-xdpi="90"
         inkscape:export-ydpi="90" />
      <g
         id="g11576"
         style="display:inline;stroke:#888a85"
         transform="translate(817.99804,-1297.6431)"
         inkscape:export-xdpi="90"
         inkscape:export-ydpi="90">
        <circle
           r="3.5"
           cy="386.5"
           cx="307.5"
           transform="matrix(1.2871768,0,0,1.2857143,-248.29906,276.57143)"
           id="circle11578"
           style="color:#000000;display:inline;overflow:visible;visibility:visible;fill:none;stroke:#919191;stroke-width:1.55467153;stroke-linecap:round;stroke-linejoin:round;stroke-miterlimit:4;stroke-dasharray:none;stroke-dashoffset:0;stroke-opacity:1;marker:none;enable-background:new" />
        <path
           sodipodi:nodetypes="cc"
           id="path11580"
           d="m 151.01179,777.00001 4.00455,4"
           style="color:#000000;display:inline;overflow:visible;visibility:visible;fill:none;stroke:#919191;stroke-width:2;stroke-linecap:round;stroke-linejoin:round;stroke-miterlimit:4;stroke-dasharray:none;stroke-dashoffset:0;stroke-opacity:1;marker:none;enable-background:new"
           inkscape:connector-curvature="0" />
      </g>
      <flowRoot
         transform="translate(533.7413,-2032.9514)"
         style="font-style:normal;font-variant:normal;font-weight:normal;font-stretch:normal;line-height:0.01%;font-family:Cantarell;-inkscape-font-specification:Cantarell;text-align:start;letter-spacing:0px;word-spacing:0px;text-anchor:start;fill:#919191;fill-opacity:1;stroke:none;stroke-width:1px;stroke-linecap:butt;stroke-linejoin:miter;stroke-opacity:1"
         id="flowRoot15295"
         xml:space="preserve"><flowRegion
           id="flowRegion15297"><rect
             style="font-style:normal;font-variant:normal;font-weight:normal;font-stretch:normal;font-size:13.75px;font-family:Cantarell;-inkscape-font-specification:Cantarell;text-align:start;text-anchor:start;fill:#919191;fill-opacity:1"
             y="1502"
             x="450"
             height="43"
             width="546"
             id="rect15299" /></flowRegion><flowPara
           id="flowPara15301"
           style="font-weight:normal;font-size:13.75px;line-height:1.25;text-align:start;text-anchor:start;fill:#919191;fill-opacity:1">Press Ctrl+. to search</flowPara></flowRoot>    </g>
    <g
       id="g7364"
       transform="matrix(0.28222223,0,0,0.28222223,-16.93337,618.51424)">
      <g
         transform="translate(86,-718)"
         id="g24443">
        <rect
           style="color:#000000;display:inline;overflow:visible;visibility:visible;fill:#f2f2f2;fill-opacity:1;fill-rule:nonzero;stroke:#919191;stroke-width:1;stroke-linecap:butt;stroke-linejoin:miter;stroke-miterlimit:4;stroke-dasharray:none;stroke-dashoffset:0;stroke-opacity:1;marker:none;enable-background:accumulate"
           id="rect11942"
           width="445"
           height="33"
           x="451.50012"
           y="-539.1377"
           rx="2.9999998"
           ry="3"
           inkscape:export-filename="/home/lapo.fedora/SparkleShare/gnome-mockups/content selection/content-selection.png"
           inkscape:export-xdpi="90"
           inkscape:export-ydpi="90" />
        <flowRoot
           transform="translate(15.7413,-2032.9514)"
           style="font-style:normal;font-variant:normal;font-weight:normal;font-stretch:normal;line-height:0.01%;font-family:Cantarell;-inkscape-font-specification:Cantarell;text-align:start;letter-spacing:0px;word-spacing:0px;text-anchor:start;fill:#2e3436;fill-opacity:1;stroke:none;stroke-width:1px;stroke-linecap:butt;stroke-linejoin:miter;stroke-opacity:1"
           id="flowRoot11944"
           xml:space="preserve"><flowRegion
             id="flowRegion11946"><rect
               style="font-style:normal;font-variant:normal;font-weight:normal;font-stretch:normal;font-size:13.75px;font-family:Cantarell;-inkscape-font-specification:Cantarell;text-align:start;text-anchor:start;fill:#2e3436"
               y="1502"
               x="450"
               height="43"
               width="546"
               id="rect11948" /></flowRegion><flowPara
             id="flowPara11950"
             style="font-weight:normal;font-size:13.75px;line-height:1.25;text-align:start;text-anchor:start"><flowSpan
   id="flowSpan11952"
   style="font-weight:bold">gnome-builder</flowSpan> / master</flowPara></flowRoot>        <flowRoot
           transform="translate(39.7413,-2032.9514)"
           style="font-style:normal;font-variant:normal;font-weight:normal;font-stretch:normal;line-height:0.01%;font-family:Cantarell;-inkscape-font-specification:Cantarell;text-align:center;letter-spacing:0px;word-spacing:0px;text-anchor:middle;fill:#2e3436;fill-opacity:1;stroke:none;stroke-width:1px;stroke-linecap:butt;stroke-linejoin:miter;stroke-opacity:1"
           id="flowRoot11954"
           xml:space="preserve"><flowRegion
             id="flowRegion11956"><rect
               style="font-style:normal;font-variant:normal;font-weight:normal;font-stretch:normal;font-size:13.75px;font-family:Cantarell;-inkscape-font-specification:Cantarell;text-align:center;text-anchor:middle;fill:#2e3436"
               y="1502"
               x="450"
               height="43"
               width="546"
               id="rect11958" /></flowRegion><flowPara
             id="flowPara11960"
             style="font-weight:normal;font-size:13.75px;line-height:1.25">Target: host OS</flowPara></flowRoot>        <rect
           inkscape:export-ydpi="90"
           inkscape:export-xdpi="90"
           inkscape:export-filename="/home/lapo.fedora/SparkleShare/gnome-mockups/content selection/content-selection.png"
           y="-539.1377"
           x="830.5"
           height="33"
           width="33"
           id="rect11962"
           style="color:#000000;display:inline;overflow:visible;visibility:visible;fill:#eaeaea;fill-opacity:1;fill-rule:nonzero;stroke:#919191;stroke-width:1;stroke-linecap:butt;stroke-linejoin:miter;stroke-miterlimit:4;stroke-dasharray:none;stroke-dashoffset:0;stroke-opacity:1;marker:none;enable-background:accumulate" />
        <g
           transform="translate(797.9996,-867.6377)"
           id="g11964"
           inkscape:label="system-run"
           style="display:inline">
          <rect
             inkscape:label="a"
             y="337"
             x="41.000198"
             height="16"
             width="16"
             id="rect11966"
             style="color:#bebebe;display:inline;overflow:visible;visibility:visible;fill:none;stroke:none;stroke-width:1;marker:none" />
          <path
             inkscape:connector-curvature="0"
             id="path11968"
             d="m 52.375,337.25 c -0.239942,0.43525 -0.467624,1.00577 -0.71875,1.4375 -0.09387,-0.007 -0.185709,-0.0313 -0.28125,-0.0313 -0.332255,0 -0.660088,0.0487 -0.96875,0.125 -0.305025,-0.3828 -0.630342,-0.89813 -0.9375,-1.28125 -0.284596,0.10504 -0.552268,0.22648 -0.8125,0.375 0.09593,0.48262 0.276896,1.07105 0.375,1.5625 -0.343004,0.24882 -0.626184,0.532 -0.875,0.875 -0.491453,-0.0981 -1.079882,-0.27907 -1.5625,-0.375 -0.148521,0.26023 -0.269963,0.5279 -0.375,0.8125 0.383118,0.30716 0.898446,0.63248 1.28125,0.9375 -0.07635,0.30866 -0.125,0.6365 -0.125,0.96875 0,0.0955 0.02466,0.18738 0.03125,0.28125 -0.431735,0.25113 -1.00225,0.47881 -1.4375,0.71875 0.05124,0.27476 0.128303,0.55374 0.21875,0.8125 0.491399,-0.01 1.099493,-0.0946 1.59375,-0.0937 0.187125,0.39176 0.420532,0.75381 0.71875,1.0625 -0.172042,0.46783 -0.448123,1.0086 -0.625,1.46875 0.212898,0.1757 0.449497,0.32623 0.6875,0.46875 0.369206,-0.32011 0.775422,-0.77147 1.15625,-1.09375 0.378045,0.17256 0.788621,0.26529 1.21875,0.3125 0.164542,0.47676 0.304284,1.08808 0.46875,1.5625 0.30154,-0.002 0.586801,-0.0141 0.875,-0.0625 0.08055,-0.49291 0.110368,-1.11855 0.1875,-1.625 0.410087,-0.11684 0.811342,-0.26698 1.15625,-0.5 0.424331,0.26446 0.898868,0.62889 1.3125,0.875 0.223737,-0.19067 0.43433,-0.40126 0.625,-0.625 -0.246108,-0.41363 -0.610541,-0.88817 -0.875,-1.3125 0.233016,-0.34491 0.383162,-0.74616 0.5,-1.15625 0.506449,-0.0771 1.132085,-0.10695 1.625,-0.1875 0.04835,-0.2882 0.06081,-0.57346 0.0625,-0.875 -0.474423,-0.16447 -1.085738,-0.30421 -1.5625,-0.46875 C 55.265292,341.78862 55.172555,341.37805 55,341 c 0.32228,-0.38083 0.773639,-0.78704 1.09375,-1.15625 -0.142521,-0.238 -0.293051,-0.4746 -0.46875,-0.6875 -0.460149,0.17688 -1.000924,0.45296 -1.46875,0.625 -0.308689,-0.29822 -0.670736,-0.53162 -1.0625,-0.71875 -8.87e-4,-0.49426 0.08396,-1.10235 0.09375,-1.59375 -0.258762,-0.0904 -0.537737,-0.16751 -0.8125,-0.21875 z m -1,3.40625 c 1.104569,0 2,0.89543 2,2 0,1.10457 -0.895431,2 -2,2 -1.104569,0 -2,-0.89543 -2,-2 0,-1.10457 0.895431,-2 2,-2 z"
             style="color:#000000;display:inline;overflow:visible;visibility:visible;fill:#2e3436;fill-opacity:1;fill-rule:nonzero;stroke:none;stroke-width:1;marker:none;enable-background:accumulate" />
          <path
             id="path11970"
             transform="translate(-20)"
             d="m 64.6875,344.75 c -0.230139,0.0471 -0.443908,0.13096 -0.65625,0.21875 -0.01671,0.62433 0.08693,1.44177 -0.15625,1.65625 -0.238965,0.21077 -1.038358,0.0343 -1.65625,-0.0313 -0.131388,0.23649 -0.235259,0.48523 -0.3125,0.75 0.478093,0.39586 1.140508,0.83901 1.15625,1.15625 0.01594,0.32119 -0.626418,0.80489 -1.0625,1.25 0.103387,0.25783 0.250144,0.49354 0.40625,0.71875 0.608323,-0.12641 1.366392,-0.37354 1.625,-0.1875 0.263308,0.18942 0.265212,1.00535 0.34375,1.625 0.249548,0.075 0.512509,0.1045 0.78125,0.125 0.281352,-0.55462 0.567413,-1.3198 0.875,-1.40625 0.315752,-0.0887 0.963545,0.45813 1.5,0.78125 0.21871,-0.1516 0.412931,-0.33706 0.59375,-0.53125 -0.253838,-0.57232 -0.721084,-1.29192 -0.59375,-1.59375 0.127453,-0.30211 0.975404,-0.46963 1.5625,-0.6875 0.0044,-0.0735 0.03125,-0.14414 0.03125,-0.21875 0,-0.19137 -0.0344,-0.37899 -0.0625,-0.5625 -0.606097,-0.16082 -1.467207,-0.2413 -1.625,-0.53125 -0.156736,-0.28801 0.241786,-1.0614 0.4375,-1.65625 -0.201161,-0.17858 -0.419409,-0.33716 -0.65625,-0.46875 -0.500893,0.37513 -1.084329,0.99436 -1.40625,0.9375 -0.316887,-0.056 -0.662888,-0.81955 -1,-1.34375 -0.04019,0.007 -0.08527,-0.008 -0.125,0 z m 0.625,1.875 c 0.931981,0 1.6875,0.75552 1.6875,1.6875 0,0.93198 -0.755519,1.6875 -1.6875,1.6875 -0.931981,0 -1.6875,-0.75552 -1.6875,-1.6875 0,-0.93198 0.755519,-1.6875 1.6875,-1.6875 z"
             style="color:#000000;display:inline;overflow:visible;visibility:visible;fill:#2e3436;fill-opacity:1;fill-rule:nonzero;stroke:none;stroke-width:1;marker:none;enable-background:accumulate"
             inkscape:connector-curvature="0" />
        </g>
        <path
           sodipodi:nodetypes="sccccssss"
           inkscape:connector-curvature="0"
           id="path11972"
           d="m 893.5,-506.1377 h -30 v -3 -27 -3 h 30 c 1.662,0 3,1.338 3,3 v 27 c 0,1.662 -1.338,3 -3,3 z"
           style="color:#000000;display:inline;overflow:visible;visibility:visible;fill:#eaeaea;fill-opacity:1;fill-rule:nonzero;stroke:#919191;stroke-width:1;stroke-linecap:butt;stroke-linejoin:miter;stroke-miterlimit:4;stroke-dasharray:none;stroke-dashoffset:0;stroke-opacity:1;marker:none;enable-background:accumulate" />
        <g
           style="display:inline"
           id="g11974"
           inkscape:label="media-playback-start"
           transform="translate(831.9997,-1017.6377)">
          <rect
             y="487"
             x="40"
             height="16"
             width="16"
             id="rect11976"
             style="color:#bebebe;display:inline;overflow:visible;visibility:visible;fill:none;stroke:none;stroke-width:1;marker:none" />
          <path
             sodipodi:nodetypes="ccccccsccccc"
             inkscape:connector-curvature="0"
             id="path11978"
             transform="translate(-39.99995,-119)"
             d="m 84,609 v 10 H 84.90625 85 c 0.174914,10e-4 0.347782,-0.0388 0.5,-0.125 l 7,-4 c 0.310699,-0.17189 0.46875,-0.52345 0.46875,-0.875 0,-0.35155 -0.158051,-0.70311 -0.46875,-0.875 l -7,-4 C 85.347782,609.03875 85.174914,608.99869 85,609 h -0.09375 z"
             style="color:#000000;font-style:normal;font-variant:normal;font-weight:normal;font-stretch:normal;font-size:medium;line-height:normal;font-family:'Bitstream Vera Sans';-inkscape-font-specification:'Bitstream Vera Sans';text-indent:0;text-align:start;text-decoration:none;text-decoration-line:none;letter-spacing:normal;word-spacing:normal;text-transform:none;writing-mode:lr-tb;direction:ltr;text-anchor:start;display:inline;overflow:visible;visibility:visible;fill:#2e3436;fill-opacity:1;fill-rule:nonzero;stroke:none;stroke-width:2;marker:none;enable-background:accumulate" />
        </g>
      </g>
      <rect
         style="color:#000000;display:inline;overflow:visible;visibility:visible;fill:#f2f2f2;fill-opacity:1;fill-rule:nonzero;stroke:#919191;stroke-width:1;stroke-linecap:butt;stroke-linejoin:miter;stroke-miterlimit:4;stroke-dasharray:none;stroke-dashoffset:0;stroke-opacity:1;marker:none;enable-background:accumulate"
         id="rect24466"
         width="445"
         height="33"
         x="537.50012"
         y="-1257.1377"
         rx="2.9999998"
         ry="3"
         inkscape:export-filename="/home/lapo.fedora/SparkleShare/gnome-mockups/content selection/content-selection.png"
         inkscape:export-xdpi="90"
         inkscape:export-ydpi="90" />
      <flowRoot
         transform="translate(101.7413,-2750.9514)"
         style="font-style:normal;font-variant:normal;font-weight:normal;font-stretch:normal;line-height:0.01%;font-family:Cantarell;-inkscape-font-specification:Cantarell;text-align:start;letter-spacing:0px;word-spacing:0px;text-anchor:start;fill:#2e3436;fill-opacity:1;stroke:none;stroke-width:1px;stroke-linecap:butt;stroke-linejoin:miter;stroke-opacity:1"
         id="flowRoot24468"
         xml:space="preserve"><flowRegion
           id="flowRegion24470"><rect
             style="font-style:normal;font-variant:normal;font-weight:normal;font-stretch:normal;font-size:13.75px;font-family:Cantarell;-inkscape-font-specification:Cantarell;text-align:start;text-anchor:start;fill:#2e3436"
             y="1502"
             x="450"
             height="43"
             width="546"
             id="rect24472" /></flowRegion><flowPara
           id="flowPara24474"
           style="font-weight:normal;font-size:13.75px;line-height:1.25;text-align:start;text-anchor:start"><flowSpan
   id="flowSpan24476"
   style="font-weight:bold">gnome-calculator</flowSpan> / master</flowPara></flowRoot>      <flowRoot
         transform="translate(163.7413,-2750.9514)"
         style="font-style:normal;font-variant:normal;font-weight:normal;font-stretch:normal;line-height:0.01%;font-family:Cantarell;-inkscape-font-specification:Cantarell;text-align:center;letter-spacing:0px;word-spacing:0px;text-anchor:middle;fill:#2e3436;fill-opacity:1;stroke:none;stroke-width:1px;stroke-linecap:butt;stroke-linejoin:miter;stroke-opacity:1"
         id="flowRoot24478"
         xml:space="preserve"><flowRegion
           id="flowRegion24480"><rect
             style="font-style:normal;font-variant:normal;font-weight:normal;font-stretch:normal;font-size:13.75px;font-family:Cantarell;-inkscape-font-specification:Cantarell;text-align:center;text-anchor:middle;fill:#2e3436"
             y="1502"
             x="450"
             height="43"
             width="546"
             id="rect24482" /></flowRegion><flowPara
           id="flowPara24484"
           style="font-weight:normal;font-size:13.75px;line-height:1.25">Target: host OS</flowPara></flowRoot>      <path
         sodipodi:nodetypes="sccccssss"
         inkscape:connector-curvature="0"
         id="path24496"
         d="m 979.5,-1224.1377 h -30 v -3 -27 -3 h 30 c 1.662,0 3,1.338 3,3 v 27 c 0,1.662 -1.338,3 -3,3 z"
         style="color:#000000;display:inline;overflow:visible;visibility:visible;fill:#eaeaea;fill-opacity:1;fill-rule:nonzero;stroke:#919191;stroke-width:1;stroke-linecap:butt;stroke-linejoin:miter;stroke-miterlimit:4;stroke-dasharray:none;stroke-dashoffset:0;stroke-opacity:1;marker:none;enable-background:accumulate" />
      <g
         transform="translate(-259.99988,1044)"
         id="g32726">
        <rect
           ry="3"
           rx="3"
           style="color:#000000;display:inline;overflow:visible;visibility:visible;fill:#eaeaea;fill-opacity:1;fill-rule:nonzero;stroke:#919191;stroke-width:1;stroke-linecap:butt;stroke-linejoin:miter;stroke-miterlimit:4;stroke-dasharray:none;stroke-dashoffset:0;stroke-opacity:1;marker:none;enable-background:accumulate"
           id="rect32718"
           width="33"
           height="33"
           x="1253.5"
           y="-2301.1377"
           inkscape:export-filename="/home/lapo.fedora/SparkleShare/gnome-mockups/content selection/content-selection.png"
           inkscape:export-xdpi="90"
           inkscape:export-ydpi="90" />
        <g
           inkscape:export-ydpi="90"
           inkscape:export-xdpi="90"
           transform="translate(1222,-2779.6377)"
           inkscape:label="media-playback-start"
           id="g32720"
           style="display:inline">
          <rect
             style="color:#bebebe;display:inline;overflow:visible;visibility:visible;fill:none;stroke:none;stroke-width:1;marker:none"
             id="rect32722"
             width="16"
             height="16"
             x="40"
             y="487" />
          <path
             style="color:#000000;font-style:normal;font-variant:normal;font-weight:normal;font-stretch:normal;font-size:medium;line-height:normal;font-family:'Bitstream Vera Sans';-inkscape-font-specification:'Bitstream Vera Sans';text-indent:0;text-align:start;text-decoration:none;text-decoration-line:none;letter-spacing:normal;word-spacing:normal;text-transform:none;writing-mode:lr-tb;direction:ltr;text-anchor:start;display:inline;overflow:visible;visibility:visible;fill:#2e3436;fill-opacity:1;fill-rule:nonzero;stroke:none;stroke-width:2;marker:none;enable-background:accumulate"
             d="m 84,609 v 10 H 84.90625 85 c 0.174914,10e-4 0.347782,-0.0388 0.5,-0.125 l 7,-4 c 0.310699,-0.17189 0.46875,-0.52345 0.46875,-0.875 0,-0.35155 -0.158051,-0.70311 -0.46875,-0.875 l -7,-4 C 85.347782,609.03875 85.174914,608.99869 85,609 h -0.09375 z"
             transform="translate(-39.99995,-119)"
             id="path32724"
             inkscape:connector-curvature="0"
             sodipodi:nodetypes="ccccccsccccc" />
        </g>
      </g>
      <g
         transform="translate(916.9998,-1585.6377)"
         id="g24488"
         inkscape:label="system-run"
         style="display:inline">
        <rect
           inkscape:label="a"
           y="337"
           x="41.000198"
           height="16"
           width="16"
           id="rect24490"
           style="color:#bebebe;display:inline;overflow:visible;visibility:visible;fill:none;stroke:none;stroke-width:1;marker:none" />
        <path
           inkscape:connector-curvature="0"
           id="path24492"
           d="m 52.375,337.25 c -0.239942,0.43525 -0.467624,1.00577 -0.71875,1.4375 -0.09387,-0.007 -0.185709,-0.0313 -0.28125,-0.0313 -0.332255,0 -0.660088,0.0487 -0.96875,0.125 -0.305025,-0.3828 -0.630342,-0.89813 -0.9375,-1.28125 -0.284596,0.10504 -0.552268,0.22648 -0.8125,0.375 0.09593,0.48262 0.276896,1.07105 0.375,1.5625 -0.343004,0.24882 -0.626184,0.532 -0.875,0.875 -0.491453,-0.0981 -1.079882,-0.27907 -1.5625,-0.375 -0.148521,0.26023 -0.269963,0.5279 -0.375,0.8125 0.383118,0.30716 0.898446,0.63248 1.28125,0.9375 -0.07635,0.30866 -0.125,0.6365 -0.125,0.96875 0,0.0955 0.02466,0.18738 0.03125,0.28125 -0.431735,0.25113 -1.00225,0.47881 -1.4375,0.71875 0.05124,0.27476 0.128303,0.55374 0.21875,0.8125 0.491399,-0.01 1.099493,-0.0946 1.59375,-0.0937 0.187125,0.39176 0.420532,0.75381 0.71875,1.0625 -0.172042,0.46783 -0.448123,1.0086 -0.625,1.46875 0.212898,0.1757 0.449497,0.32623 0.6875,0.46875 0.369206,-0.32011 0.775422,-0.77147 1.15625,-1.09375 0.378045,0.17256 0.788621,0.26529 1.21875,0.3125 0.164542,0.47676 0.304284,1.08808 0.46875,1.5625 0.30154,-0.002 0.586801,-0.0141 0.875,-0.0625 0.08055,-0.49291 0.110368,-1.11855 0.1875,-1.625 0.410087,-0.11684 0.811342,-0.26698 1.15625,-0.5 0.424331,0.26446 0.898868,0.62889 1.3125,0.875 0.223737,-0.19067 0.43433,-0.40126 0.625,-0.625 -0.246108,-0.41363 -0.610541,-0.88817 -0.875,-1.3125 0.233016,-0.34491 0.383162,-0.74616 0.5,-1.15625 0.506449,-0.0771 1.132085,-0.10695 1.625,-0.1875 0.04835,-0.2882 0.06081,-0.57346 0.0625,-0.875 -0.474423,-0.16447 -1.085738,-0.30421 -1.5625,-0.46875 C 55.265292,341.78862 55.172555,341.37805 55,341 c 0.32228,-0.38083 0.773639,-0.78704 1.09375,-1.15625 -0.142521,-0.238 -0.293051,-0.4746 -0.46875,-0.6875 -0.460149,0.17688 -1.000924,0.45296 -1.46875,0.625 -0.308689,-0.29822 -0.670736,-0.53162 -1.0625,-0.71875 -8.87e-4,-0.49426 0.08396,-1.10235 0.09375,-1.59375 -0.258762,-0.0904 -0.537737,-0.16751 -0.8125,-0.21875 z m -1,3.40625 c 1.104569,0 2,0.89543 2,2 0,1.10457 -0.895431,2 -2,2 -1.104569,0 -2,-0.89543 -2,-2 0,-1.10457 0.895431,-2 2,-2 z"
           style="color:#000000;display:inline;overflow:visible;visibility:visible;fill:#2e3436;fill-opacity:1;fill-rule:nonzero;stroke:none;stroke-width:1;marker:none;enable-background:accumulate" />
        <path
           id="path24494"
           transform="translate(-20)"
           d="m 64.6875,344.75 c -0.230139,0.0471 -0.443908,0.13096 -0.65625,0.21875 -0.01671,0.62433 0.08693,1.44177 -0.15625,1.65625 -0.238965,0.21077 -1.038358,0.0343 -1.65625,-0.0313 -0.131388,0.23649 -0.235259,0.48523 -0.3125,0.75 0.478093,0.39586 1.140508,0.83901 1.15625,1.15625 0.01594,0.32119 -0.626418,0.80489 -1.0625,1.25 0.103387,0.25783 0.250144,0.49354 0.40625,0.71875 0.608323,-0.12641 1.366392,-0.37354 1.625,-0.1875 0.263308,0.18942 0.265212,1.00535 0.34375,1.625 0.249548,0.075 0.512509,0.1045 0.78125,0.125 0.281352,-0.55462 0.567413,-1.3198 0.875,-1.40625 0.315752,-0.0887 0.963545,0.45813 1.5,0.78125 0.21871,-0.1516 0.412931,-0.33706 0.59375,-0.53125 -0.253838,-0.57232 -0.721084,-1.29192 -0.59375,-1.59375 0.127453,-0.30211 0.975404,-0.46963 1.5625,-0.6875 0.0044,-0.0735 0.03125,-0.14414 0.03125,-0.21875 0,-0.19137 -0.0344,-0.37899 -0.0625,-0.5625 -0.606097,-0.16082 -1.467207,-0.2413 -1.625,-0.53125 -0.156736,-0.28801 0.241786,-1.0614 0.4375,-1.65625 -0.201161,-0.17858 -0.419409,-0.33716 -0.65625,-0.46875 -0.500893,0.37513 -1.084329,0.99436 -1.40625,0.9375 -0.316887,-0.056 -0.662888,-0.81955 -1,-1.34375 -0.04019,0.007 -0.08527,-0.008 -0.125,0 z m 0.625,1.875 c 0.931981,0 1.6875,0.75552 1.6875,1.6875 0,0.93198 -0.755519,1.6875 -1.6875,1.6875 -0.931981,0 -1.6875,-0.75552 -1.6875,-1.6875 0,-0.93198 0.755519,-1.6875 1.6875,-1.6875 z"
           style="color:#000000;display:inline;overflow:visible;visibility:visible;fill:#2e3436;fill-opacity:1;fill-rule:nonzero;stroke:none;stroke-width:1;marker:none;enable-background:accumulate"
           inkscape:connector-curvature="0" />
      </g>
    </g>
  </g>
</svg>
