<?xml version="1.0" encoding="UTF-8"?>
<svg height="16px" viewBox="0 0 16 16" width="16px" xmlns="http://www.w3.org/2000/svg" xmlns:xlink="http://www.w3.org/1999/xlink">
    <filter id="a" height="100%" width="100%" x="0%" y="0%">
        <feColorMatrix in="SourceGraphic" type="matrix" values="0 0 0 0 1 0 0 0 0 1 0 0 0 0 1 0 0 0 1 0"/>
    </filter>
    <mask id="b">
        <g filter="url(#a)">
            <path d="m 0 0 h 16 v 16 h -16 z" fill-opacity="0.3"/>
        </g>
    </mask>
    <clipPath id="c">
        <path d="m 0 0 h 800 v 800 h -800 z"/>
    </clipPath>
    <mask id="d">
        <g filter="url(#a)">
            <path d="m 0 0 h 16 v 16 h -16 z" fill-opacity="0.35"/>
        </g>
    </mask>
    <clipPath id="e">
        <path d="m 0 0 h 800 v 800 h -800 z"/>
    </clipPath>
    <mask id="f">
        <g filter="url(#a)">
            <path d="m 0 0 h 16 v 16 h -16 z" fill-opacity="0.35"/>
        </g>
    </mask>
    <clipPath id="g">
        <path d="m 0 0 h 800 v 800 h -800 z"/>
    </clipPath>
    <mask id="h">
        <g filter="url(#a)">
            <path d="m 0 0 h 16 v 16 h -16 z" fill-opacity="0.35"/>
        </g>
    </mask>
    <clipPath id="i">
        <path d="m 0 0 h 800 v 800 h -800 z"/>
    </clipPath>
    <mask id="j">
        <g filter="url(#a)">
            <path d="m 0 0 h 16 v 16 h -16 z" fill-opacity="0.35"/>
        </g>
    </mask>
    <clipPath id="k">
        <path d="m 0 0 h 800 v 800 h -800 z"/>
    </clipPath>
    <g clip-path="url(#c)" mask="url(#b)" transform="matrix(1 0 0 1 -100 -320)">
        <path d="m 142.5 351 h 10.449219 c -1.183594 0.492188 -1.296875 2.457031 0 3 h -10.449219 z m 0 0" fill="#2e3436"/>
    </g>
    <g clip-path="url(#e)" mask="url(#d)" transform="matrix(1 0 0 1 -100 -320)">
        <path d="m 104 502 c 0 0.550781 -0.449219 1 -1 1 s -1 -0.449219 -1 -1 s 0.449219 -1 1 -1 s 1 0.449219 1 1 z m 0 0" fill="#2e3436"/>
    </g>
    <g clip-path="url(#g)" mask="url(#f)" transform="matrix(1 0 0 1 -100 -320)">
        <path d="m 106 501 v 2 h 8 v -2 z m 0 0" fill="#2e3436" fill-rule="evenodd"/>
    </g>
    <g clip-path="url(#i)" mask="url(#h)" transform="matrix(1 0 0 1 -100 -320)">
        <path d="m 104 514 c 0 0.550781 -0.449219 1 -1 1 s -1 -0.449219 -1 -1 s 0.449219 -1 1 -1 s 1 0.449219 1 1 z m 0 0" fill="#2e3436"/>
    </g>
    <g clip-path="url(#k)" mask="url(#j)" transform="matrix(1 0 0 1 -100 -320)">
        <path d="m 106 513 v 2 h 8 v -2 z m 0 0" fill="#2e3436" fill-rule="evenodd"/>
    </g>
    <g fill="#2e3436">
        <path d="m 8.140625 0.273438 c -1.15625 0.007812 -2.515625 0.296874 -3.894531 0.878906 c -0.238282 0.175781 -0.332032 0.484375 -0.234375 0.761718 c 0.101562 0.273438 0.371093 0.453126 0.664062 0.441407 c 0.933594 -0.039063 2.3125 0.222656 2.972657 0.878906 c 0.273437 0.269531 0.828124 0.796875 0.210937 1.421875 c -0.25 0.238281 -1.089844 1.066406 -1.089844 1.066406 l 2.113281 2.109375 l 1.273438 -1.277343 c 0.367188 -0.363282 0.859375 -0.554688 1.34375 -0.554688 s 0.976562 0.191406 1.34375 0.554688 l 1.699219 1.699218 l 1.101562 -1.101562 c 0.390625 -0.390625 0.390625 -1.027344 0 -1.417969 v 0.003906 l -0.480469 -0.480469 c -0.132812 -0.128906 -0.664062 -0.304687 -0.925781 -0.042968 c -0.265625 0.253906 -0.679687 0.253906 -0.945312 0 c -0.1875 -0.1875 -0.25 -0.46875 -0.148438 -0.71875 c 0.210938 -0.5 0.105469 -0.964844 -0.175781 -1.246094 c -0.960938 -0.960938 -1.628906 -1.65625 -2.1875 -2.167969 c -0.539062 -0.546875 -1.484375 -0.816406 -2.640625 -0.808593 z m -2.3125 6.375 l -5.296875 5.269531 c -0.375 0.375 -0.5039062 0.570312 -0.5 1.097656 c 0.0234375 1.09375 0.90625 1.976563 2 2 c 0.34375 0.003906 0.644531 -0.246094 1.019531 -0.621094 l 2.960938 -2.957031 c 0.011719 -0.46875 0.195312 -0.929688 0.542969 -1.28125 l 1.40625 -1.40625 z m 7.171875 2.894531 v 0.164062 c 0.035156 -0.015625 0.074219 -0.03125 0.109375 -0.054687 z m 0 0"/>
        <path d="m 11.5 7 c -0.230469 0 -0.460938 0.089844 -0.636719 0.261719 l -3.601562 3.601562 c -0.347657 0.351563 -0.347657 0.921875 0 1.273438 l 3.601562 3.597656 c 0.351563 0.351563 0.921875 0.351563 1.273438 0 l 3.601562 -3.597656 c 0.347657 -0.351563 0.347657 -0.921875 0 -1.273438 l -3.601562 -3.601562 c -0.175781 -0.171875 -0.40625 -0.261719 -0.636719 -0.261719 z m -0.5 2 h 1 v 3 h -1 z m 0.5 3.898438 c 0.332031 0.003906 0.597656 0.269531 0.601562 0.601562 c -0.003906 0.332031 -0.269531 0.597656 -0.601562 0.597656 s -0.597656 -0.265625 -0.601562 -0.597656 c 0.003906 -0.332031 0.269531 -0.597656 0.601562 -0.601562 z m 0 0"/>
    </g>
</svg>
