<svg width="16" height="16" xmlns="http://www.w3.org/2000/svg"><path style="line-height:normal;font-variant-ligatures:normal;font-variant-position:normal;font-variant-caps:normal;font-variant-numeric:normal;font-variant-alternates:normal;font-feature-settings:normal;text-indent:0;text-align:start;text-decoration-line:none;text-decoration-style:solid;text-decoration-color:#000;text-transform:none;text-orientation:mixed;shape-padding:0;isolation:auto;mix-blend-mode:normal;marker:none" d="m5.27 1-.291.29L1 5.228v5.476L5.262 15h5.48L15 10.705V5.232L10.732 1H5.27zM5 5h1a1 1 0 0 1 .74.328L8 6.586l1.293-1.293.002.002A1 1 0 0 1 10 5h1v1a1 1 0 0 1-.295.705l.002.002L9.414 8l1.258 1.26A1 1 0 0 1 11 10v1h-1a1 1 0 0 1-.705-.295l-.002.002L8 9.414l-1.293 1.293-.002-.002A1 1 0 0 1 6 11H5v-1a1 1 0 0 1 .295-.705l-.002-.002L6.586 8 5.293 6.707l.002-.002A1 1 0 0 1 5 6V5z" color="#bebebe" fill="#474747"/></svg>