<svg width="16" height="16" xmlns="http://www.w3.org/2000/svg"><path style="fill:#2e3436;fill-opacity:1;stroke-width:.999998" d="M10.784 1.08c.558.512 1.224 1.21 2.182 2.17.281.282.39.746.176 1.246a.669.669 0 0 0 .15.72.683.683 0 0 0 .945 0c.262-.261.794-.088.924.042l.48.48v-.003a1.003 1.003 0 0 1 0 1.418l-2.364 2.365a1.003 1.003 0 0 1-1.418 0l-.46-.522a.668.668 0 0 1 0-.945.668.668 0 0 0 0-.945c-.264-.253-.747-.297-1.011-.045L9.216 8.167 6.772 5.722s.84-.828 1.088-1.065c.615-.625.06-1.152-.21-1.42-.664-.66-2.042-.921-2.977-.881a.676.676 0 0 1-.66-.442.67.67 0 0 1 .232-.761C7-.007 9.698-.007 10.784 1.08ZM8.337 9.116l-5.288 5.28c-.374.375-.674.624-1.02.622a2.052 2.052 0 0 1-2-2c-.001-.531.126-.724.503-1.098l5.296-5.272Z"/></svg>