<svg width="16" height="16" xmlns="http://www.w3.org/2000/svg"><path style="fill:#2e3436;fill-opacity:1;stroke-width:.999998" d="M8.14.273c-1.154.01-2.517.3-3.894.88a.67.67 0 0 0-.232.761.676.676 0 0 0 .66.441c.935-.04 2.313.221 2.976.881.27.269.825.797.21 1.422-.249.237-1.089 1.065-1.089 1.065l2.11 2.109 1.275-1.275A1.907 1.907 0 0 1 11.5 6c.485 0 .977.192 1.342.557l1.699 1.697 1.102-1.102a1.003 1.003 0 0 0 0-1.418v.004l-.48-.48c-.131-.13-.664-.304-.925-.043a.683.683 0 0 1-.945 0 .669.669 0 0 1-.15-.719c.213-.5.105-.964-.176-1.246-.958-.96-1.625-1.658-2.184-2.17C10.24.536 9.295.264 8.141.274ZM5.829 6.648.531 11.92c-.376.374-.503.567-.502 1.098a2.052 2.052 0 0 0 2 2c.347.002.646-.247 1.02-.622l2.96-2.959c.015-.467.197-.93.548-1.28L7.963 8.75ZM13 9.543v.166c.037-.018.074-.034.11-.057z"/><path style="color:#000;fill:#f5c211;stroke-width:1;stroke-linejoin:round;-inkscape-stroke:none" d="M11.5 7a.898.898 0 0 0-.637.264l-3.6 3.6a.899.899 0 0 0 0 1.27l3.6 3.602a.9.9 0 0 0 1.274 0l3.6-3.6a.9.9 0 0 0 0-1.273l-3.602-3.6A.894.894 0 0 0 11.5 7ZM11 9h1v3h-1zm.5 3.9a.6.6 0 1 1 0 1.2.6.6 0 0 1 0-1.2Z" class="warning"/></svg>