<?xml version="1.0" encoding="UTF-8"?>
<svg height="16px" viewBox="0 0 16 16" width="16px" xmlns="http://www.w3.org/2000/svg" xmlns:xlink="http://www.w3.org/1999/xlink">
    <filter id="a" height="100%" width="100%" x="0%" y="0%">
        <feColorMatrix color-interpolation-filters="sRGB" values="0 0 0 0 1 0 0 0 0 1 0 0 0 0 1 0 0 0 1 0"/>
    </filter>
    <mask id="b">
        <g filter="url(#a)">
            <rect fill-opacity="0.1" height="19.2" width="19.2" x="-1.6" y="-1.6"/>
        </g>
    </mask>
    <clipPath id="c">
        <rect height="152" width="192"/>
    </clipPath>
    <g mask="url(#b)">
        <g clip-path="url(#c)" transform="matrix(1 0 0 1 -168 -16)">
            <path d="m 128 118.65625 c -0.082031 4.089844 -3.378906 7.34375 -7.492188 7.34375 h -0.5 v 1 h 0.5 c 3.246094 0 6.058594 -1.8125 7.492188 -4.480469 z m -46 7.34375 l 38 1 v -1 z m 0 0"/>
            <path d="m 128 121.65625 c -0.082031 4.089844 -3.378906 7.34375 -7.492188 7.34375 h -0.5 v 1 h 0.5 c 3.222657 0 6.023438 -1.789062 7.464844 -4.425781 c 0.011719 -0.191407 0.027344 -0.382813 0.027344 -0.574219 z m -46 7.34375 l 38 1 v -1 z m 0 0"/>
            <path d="m 128 115.65625 c -0.082031 4.089844 -3.378906 7.34375 -7.492188 7.34375 h -0.5 v 1 h 0.5 c 3.246094 0 6.058594 -1.8125 7.492188 -4.480469 z m -46 7.34375 l 38 1 v -1 z m 0 0"/>
        </g>
    </g>
    <g fill="#241f31">
        <path d="m 6.835938 4.652344 v 1.113281 h -0.152344 c -0.4375 0 -0.648438 0.140625 -0.648438 0.390625 v 0.78125 c 0 0.363281 -0.191406 0.519531 -0.601562 0.59375 c 0.410156 0.070312 0.601562 0.226562 0.601562 0.589844 v 0.800781 c 0 0.246094 0.210938 0.390625 0.648438 0.390625 h 0.152344 v 1.15625 h -0.3125 c -1.117188 0 -1.691407 -0.804688 -1.691407 -1.414062 v -0.914063 c 0 -0.167969 -0.148437 -0.25 -0.390625 -0.246094 h -0.40625 v -0.707031 h 0.40625 c 0.242188 0 0.390625 -0.078125 0.390625 -0.246094 v -0.9375 c 0 -0.605468 0.574219 -1.351562 1.691407 -1.351562 z m 0 0"/>
        <path d="m 9.199219 4.652344 v 1.113281 h 0.152343 c 0.4375 0 0.652344 0.140625 0.652344 0.390625 v 0.78125 c 0 0.363281 0.1875 0.519531 0.597656 0.59375 c -0.410156 0.070312 -0.597656 0.226562 -0.597656 0.589844 v 0.800781 c 0 0.246094 -0.214844 0.390625 -0.652344 0.390625 h -0.152343 v 1.15625 h 0.316406 c 1.113281 0 1.6875 -0.804688 1.6875 -1.414062 v -0.914063 c 0 -0.167969 0.152344 -0.25 0.390625 -0.246094 h 0.40625 v -0.707031 h -0.40625 c -0.238281 0 -0.390625 -0.078125 -0.390625 -0.246094 v -0.9375 c 0 -0.605468 -0.574219 -1.351562 -1.6875 -1.351562 z m 0 0"/>
        <path d="m 0 2.164062 v 11.671876 c 0 1.195312 0.96875 2.164062 2.164062 2.164062 h 11.671876 c 1.195312 0 2.164062 -0.96875 2.164062 -2.164062 v -11.671876 c 0 -1.195312 -0.96875 -2.164062 -2.164062 -2.164062 h -3.835938 c -0.886719 0 -1.511719 0.386719 -2 0.84375 c -0.488281 -0.457031 -1.113281 -0.84375 -2 -0.84375 h -3.835938 c -1.195312 0 -2.164062 0.96875 -2.164062 2.164062 z m 2 -0.164062 h 3 c 2.328125 0 3 1.167969 3 2 c 0 -0.8125 1 -2 3 -2 h 3 v 10 h -3 c -2 0 -3 1.425781 -3 2 c 0 -0.550781 -1 -2 -3.011719 -2 h -2.988281 z m 0 0"/>
    </g>
</svg>
