<?xml version="1.0" encoding="UTF-8"?>
<svg height="16px" viewBox="0 0 16 16" width="16px" xmlns="http://www.w3.org/2000/svg" xmlns:xlink="http://www.w3.org/1999/xlink">
    <filter id="a" height="100%" width="100%" x="0%" y="0%">
        <feColorMatrix in="SourceGraphic" type="matrix" values="0 0 0 0 1 0 0 0 0 1 0 0 0 0 1 0 0 0 1 0"/>
    </filter>
    <mask id="b">
        <g filter="url(#a)">
            <path d="m 0 0 h 16 v 16 h -16 z" fill-opacity="0.3"/>
        </g>
    </mask>
    <clipPath id="c">
        <path d="m 0 0 h 800 v 800 h -800 z"/>
    </clipPath>
    <mask id="d">
        <g filter="url(#a)">
            <path d="m 0 0 h 16 v 16 h -16 z" fill-opacity="0.35"/>
        </g>
    </mask>
    <clipPath id="e">
        <path d="m 0 0 h 800 v 800 h -800 z"/>
    </clipPath>
    <mask id="f">
        <g filter="url(#a)">
            <path d="m 0 0 h 16 v 16 h -16 z" fill-opacity="0.35"/>
        </g>
    </mask>
    <clipPath id="g">
        <path d="m 0 0 h 800 v 800 h -800 z"/>
    </clipPath>
    <mask id="h">
        <g filter="url(#a)">
            <path d="m 0 0 h 16 v 16 h -16 z" fill-opacity="0.35"/>
        </g>
    </mask>
    <clipPath id="i">
        <path d="m 0 0 h 800 v 800 h -800 z"/>
    </clipPath>
    <mask id="j">
        <g filter="url(#a)">
            <path d="m 0 0 h 16 v 16 h -16 z" fill-opacity="0.35"/>
        </g>
    </mask>
    <clipPath id="k">
        <path d="m 0 0 h 800 v 800 h -800 z"/>
    </clipPath>
    <g clip-path="url(#c)" mask="url(#b)" transform="matrix(1 0 0 1 -360 -340)">
        <path d="m 142.5 351 h 10.449219 c -1.183594 0.492188 -1.296875 2.457031 0 3 h -10.449219 z m 0 0" fill="#2e3436"/>
    </g>
    <path d="m 7.804688 0.0078125 c -0.332032 0.0390625 -0.652344 0.1914065 -0.890626 0.4296875 l -1.882812 1.890625 l 1.824219 1.820313 c 0.199219 -0.097657 0.421875 -0.148438 0.644531 -0.148438 c 0.828125 0 1.5 0.671875 1.5 1.5 c 0 0.222656 -0.050781 0.445312 -0.148438 0.644531 l 1.503907 1.503907 c 0.199219 -0.097657 0.421875 -0.148438 0.644531 -0.148438 c 0.828125 0 1.5 0.671875 1.5 1.5 s -0.671875 1.5 -1.5 1.5 s -1.5 -0.671875 -1.5 -1.5 c 0 -0.222656 0.050781 -0.445312 0.148438 -0.644531 l -1.503907 -1.503907 c -0.046875 0.023438 -0.09375 0.042969 -0.144531 0.058594 v 3.175782 c 0.597656 0.214843 1 0.777343 1 1.414062 c 0 0.828125 -0.671875 1.5 -1.5 1.5 s -1.5 -0.671875 -1.5 -1.5 c 0 -0.636719 0.402344 -1.199219 1 -1.414062 v -3.175782 c -0.597656 -0.210937 -1 -0.773437 -1 -1.410156 c 0 -0.222656 0.050781 -0.445312 0.148438 -0.644531 l -1.820313 -1.820313 l -3.910156 3.929688 c -0.542969 0.550781 -0.542969 1.546875 0 2.101562 l 6.53125 6.527344 c 0.554687 0.542969 1.550781 0.542969 2.105469 0 l 6.53125 -6.492188 c 0.566406 -0.558593 0.566406 -1.582031 0 -2.136718 l -6.53125 -6.527344 c -0.035157 -0.027344 -0.070313 -0.050781 -0.105469 -0.070312 c -0.308594 -0.2695318 -0.734375 -0.4023442 -1.144531 -0.3593755 z m 0 0" fill="#2e3436"/>
    <g clip-path="url(#e)" mask="url(#d)" transform="matrix(1 0 0 1 -360 -340)">
        <path d="m 104 502 c 0 0.550781 -0.449219 1 -1 1 s -1 -0.449219 -1 -1 s 0.449219 -1 1 -1 s 1 0.449219 1 1 z m 0 0" fill="#2e3436"/>
    </g>
    <g clip-path="url(#g)" mask="url(#f)" transform="matrix(1 0 0 1 -360 -340)">
        <path d="m 106 501 v 2 h 8 v -2 z m 0 0" fill="#2e3436" fill-rule="evenodd"/>
    </g>
    <g clip-path="url(#i)" mask="url(#h)" transform="matrix(1 0 0 1 -360 -340)">
        <path d="m 104 514 c 0 0.550781 -0.449219 1 -1 1 s -1 -0.449219 -1 -1 s 0.449219 -1 1 -1 s 1 0.449219 1 1 z m 0 0" fill="#2e3436"/>
    </g>
    <g clip-path="url(#k)" mask="url(#j)" transform="matrix(1 0 0 1 -360 -340)">
        <path d="m 106 513 v 2 h 8 v -2 z m 0 0" fill="#2e3436" fill-rule="evenodd"/>
    </g>
</svg>
