<?xml version="1.0" encoding="UTF-8"?>
<svg xmlns="http://www.w3.org/2000/svg" xmlns:xlink="http://www.w3.org/1999/xlink" width="16px" height="16px" viewBox="0 0 16 16" version="1.1">
<g id="surface29631">
<path style=" stroke:none;fill-rule:nonzero;fill:rgb(18.039216%,20.392157%,21.176471%);fill-opacity:1;" d="M 3.949219 1 C 2.867188 1.027344 2 1.914062 2 3 C 2 3.714844 2.382812 4.375 3 4.730469 L 3 15 L 5 15 L 5 4.730469 C 5.617188 4.375 6 3.714844 6 3 C 6 1.894531 5.105469 1 4 1 C 3.984375 1 3.96875 1 3.949219 1 Z M 4 2 C 4.550781 2 5 2.449219 5 3 C 5 3.550781 4.550781 4 4 4 C 3.449219 4 3 3.550781 3 3 C 3 2.449219 3.449219 2 4 2 Z M 4 2 "/>
<path style=" stroke:none;fill-rule:nonzero;fill:rgb(18.039216%,20.392157%,21.176471%);fill-opacity:1;" d="M 11 3 L 11 7 C 11 7.84375 10.8125 8.292969 10.558594 8.550781 C 10.304688 8.804688 9.867188 9 9 9 L 8.996094 9 L 6.976562 9.011719 C 5.90625 9.019531 4.949219 9.527344 4.230469 10.238281 C 3.511719 10.953125 3 11.917969 3 13 L 5 13 C 5 12.582031 5.238281 12.058594 5.640625 11.65625 C 6.042969 11.257812 6.578125 11.015625 6.992188 11.011719 L 9 11 C 10.191406 11 11.253906 10.695312 11.984375 9.949219 C 12.714844 9.207031 13 8.15625 13 7 L 13 3 Z M 11 3 "/>
<path style=" stroke:none;fill-rule:nonzero;fill:rgb(18.039216%,20.392157%,21.176471%);fill-opacity:1;" d="M 15 5 L 9 5 L 12 1 Z M 15 5 "/>
</g>
</svg>
