<svg width="16" height="16" xmlns="http://www.w3.org/2000/svg"><path style="fill:#2e3436;fill-opacity:1;stroke-width:.999998" d="M8.14.274c-1.154.009-2.517.298-3.894.879a.67.67 0 0 0-.232.761.676.676 0 0 0 .66.442c.935-.04 2.313.22 2.976.88.27.269.825.795.21 1.42-.249.237-1.089 1.067-1.089 1.067l1.407 1.404A5.5 5.5 0 0 1 11.5 5.992a5.5 5.5 0 0 1 3.787 1.516l.356-.356a1.003 1.003 0 0 0 0-1.417v.004l-.48-.48c-.131-.131-.664-.304-.925-.044a.683.683 0 0 1-.945 0 .669.669 0 0 1-.15-.719c.213-.5.105-.964-.176-1.246-.958-.96-1.625-1.658-2.184-2.17C10.24.536 9.295.265 8.141.274ZM5.829 6.649.531 11.92c-.376.374-.503.567-.502 1.098a2.052 2.052 0 0 0 2 2c.347.002.646-.247 1.02-.621l2.955-2.952a5.5 5.5 0 0 1 1.232-3.412zM11.44 7.92c-.406 0-.792.092-1.156.219l1.906 1.906a.984.984 0 0 1 0 1.406l-.718.75a.986.986 0 0 1-1.407 0l-1.937-1.937c-.127.362-.219.75-.219 1.156a3.54 3.54 0 0 0 3.531 3.531 3.53 3.53 0 0 0 1.157-.218l1.218 1.187h.063l2.094-2.094-1.219-1.218a3.69 3.69 0 0 0 .219-1.188c0-1.94-1.586-3.5-3.532-3.5z"/></svg>