<svg xmlns="http://www.w3.org/2000/svg" width="16" height="16"><path style="stroke:none;fill-rule:nonzero;fill:#2e3436;fill-opacity:1" d="M3.95 1A1.998 1.998 0 0 0 3 4.73V15h2V4.73A1.998 1.998 0 0 0 4 1h-.05ZM4 2c.55 0 1 .45 1 1s-.45 1-1 1-1-.45-1-1 .45-1 1-1Zm0 0"/><path style="stroke:none;fill-rule:nonzero;fill:#2e3436;fill-opacity:1" d="M11 3v4c0 .844-.188 1.293-.441 1.55C10.305 8.806 9.867 9 9 9h-.004l-2.02.012c-1.07.008-2.027.515-2.746 1.226C3.512 10.953 3 11.918 3 13h2c0-.418.238-.941.64-1.344.403-.398.938-.64 1.352-.644L9 11c1.191 0 2.254-.305 2.984-1.05C12.714 9.206 13 8.155 13 7V3Zm0 0"/><path style="stroke:none;fill-rule:nonzero;fill:#2e3436;fill-opacity:1" d="M15 5H9l3-4Zm0 0"/></svg>