<?xml version="1.0" encoding="UTF-8"?>
<svg height="16px" viewBox="0 0 16 16" width="16px" xmlns="http://www.w3.org/2000/svg" xmlns:xlink="http://www.w3.org/1999/xlink">
    <filter id="a" height="100%" width="100%" x="0%" y="0%">
        <feColorMatrix in="SourceGraphic" type="matrix" values="0 0 0 0 1 0 0 0 0 1 0 0 0 0 1 0 0 0 1 0"/>
    </filter>
    <mask id="b">
        <g filter="url(#a)">
            <path d="m 0 0 h 16 v 16 h -16 z" fill-opacity="0.3"/>
        </g>
    </mask>
    <clipPath id="c">
        <path d="m 0 0 h 800 v 800 h -800 z"/>
    </clipPath>
    <mask id="d">
        <g filter="url(#a)">
            <path d="m 0 0 h 16 v 16 h -16 z" fill-opacity="0.35"/>
        </g>
    </mask>
    <clipPath id="e">
        <path d="m 0 0 h 800 v 800 h -800 z"/>
    </clipPath>
    <mask id="f">
        <g filter="url(#a)">
            <path d="m 0 0 h 16 v 16 h -16 z" fill-opacity="0.35"/>
        </g>
    </mask>
    <clipPath id="g">
        <path d="m 0 0 h 800 v 800 h -800 z"/>
    </clipPath>
    <mask id="h">
        <g filter="url(#a)">
            <path d="m 0 0 h 16 v 16 h -16 z" fill-opacity="0.35"/>
        </g>
    </mask>
    <clipPath id="i">
        <path d="m 0 0 h 800 v 800 h -800 z"/>
    </clipPath>
    <mask id="j">
        <g filter="url(#a)">
            <path d="m 0 0 h 16 v 16 h -16 z" fill-opacity="0.35"/>
        </g>
    </mask>
    <clipPath id="k">
        <path d="m 0 0 h 800 v 800 h -800 z"/>
    </clipPath>
    <g clip-path="url(#c)" mask="url(#b)" transform="matrix(1 0 0 1 -120 -420)">
        <path d="m 142.5 351 h 10.449219 c -1.183594 0.492188 -1.296875 2.457031 0 3 h -10.449219 z m 0 0" fill="#2e3436"/>
    </g>
    <g clip-path="url(#e)" mask="url(#d)" transform="matrix(1 0 0 1 -120 -420)">
        <path d="m 104 502 c 0 0.550781 -0.449219 1 -1 1 s -1 -0.449219 -1 -1 s 0.449219 -1 1 -1 s 1 0.449219 1 1 z m 0 0" fill="#2e3436"/>
    </g>
    <g clip-path="url(#g)" mask="url(#f)" transform="matrix(1 0 0 1 -120 -420)">
        <path d="m 106 501 v 2 h 8 v -2 z m 0 0" fill="#2e3436" fill-rule="evenodd"/>
    </g>
    <g clip-path="url(#i)" mask="url(#h)" transform="matrix(1 0 0 1 -120 -420)">
        <path d="m 104 514 c 0 0.550781 -0.449219 1 -1 1 s -1 -0.449219 -1 -1 s 0.449219 -1 1 -1 s 1 0.449219 1 1 z m 0 0" fill="#2e3436"/>
    </g>
    <g clip-path="url(#k)" mask="url(#j)" transform="matrix(1 0 0 1 -120 -420)">
        <path d="m 106 513 v 2 h 8 v -2 z m 0 0" fill="#2e3436" fill-rule="evenodd"/>
    </g>
    <path d="m 7.808594 0.0078125 c -0.335938 0.0390625 -0.65625 0.1914065 -0.894532 0.4296875 l -6.492187 6.527344 c -0.546875 0.550781 -0.546875 1.546875 0 2.101562 l 6.527344 6.527344 c 0.554687 0.542969 1.550781 0.542969 2.105469 0 l 6.53125 -6.492188 c 0.566406 -0.558593 0.566406 -1.582031 0 -2.136718 l -6.53125 -6.527344 c -0.035157 -0.027344 -0.070313 -0.050781 -0.105469 -0.070312 c -0.308594 -0.2695318 -0.734375 -0.4023442 -1.140625 -0.3593755 z m -0.808594 3.9921875 h 2 s 0.707031 -0.011719 1.445312 0.351562 c 0.738282 0.363282 1.5625 1.296876 1.574219 2.625 v 0.015626 l -0.039062 2.007812 h -5.980469 s 0.015625 0.292969 0.144531 0.550781 c 0.128907 0.261719 0.1875 0.449219 0.855469 0.449219 h 3 v 2 h -3 c -1.332031 0 -2.273438 -0.8125 -2.644531 -1.550781 c -0.371094 -0.742188 -0.355469 -1.449219 -0.355469 -1.449219 v -2 s -0.015625 -0.707031 0.355469 -1.449219 c 0.371093 -0.738281 1.3125 -1.550781 2.644531 -1.550781 z m 0 2 c -0.667969 0 -0.726562 0.1875 -0.855469 0.449219 c -0.128906 0.257812 -0.144531 0.550781 -0.144531 0.550781 h 4.019531 v -0.003906 c -0.003906 -0.65625 -0.191406 -0.71875 -0.457031 -0.851563 c -0.269531 -0.132812 -0.5625 -0.144531 -0.5625 -0.144531 z m 0 0" fill="#2e3436"/>
</svg>
