<?xml version="1.0" encoding="UTF-8"?>
<svg height="16px" viewBox="0 0 16 16" width="16px" xmlns="http://www.w3.org/2000/svg" xmlns:xlink="http://www.w3.org/1999/xlink">
    <filter id="a" height="100%" width="100%" x="0%" y="0%">
        <feColorMatrix in="SourceGraphic" type="matrix" values="0 0 0 0 1 0 0 0 0 1 0 0 0 0 1 0 0 0 1 0"/>
    </filter>
    <mask id="b">
        <g filter="url(#a)">
            <path d="m 0 0 h 16 v 16 h -16 z" fill-opacity="0.3"/>
        </g>
    </mask>
    <clipPath id="c">
        <path d="m 0 0 h 800 v 800 h -800 z"/>
    </clipPath>
    <mask id="d">
        <g filter="url(#a)">
            <path d="m 0 0 h 16 v 16 h -16 z" fill-opacity="0.35"/>
        </g>
    </mask>
    <clipPath id="e">
        <path d="m 0 0 h 800 v 800 h -800 z"/>
    </clipPath>
    <mask id="f">
        <g filter="url(#a)">
            <path d="m 0 0 h 16 v 16 h -16 z" fill-opacity="0.35"/>
        </g>
    </mask>
    <clipPath id="g">
        <path d="m 0 0 h 800 v 800 h -800 z"/>
    </clipPath>
    <mask id="h">
        <g filter="url(#a)">
            <path d="m 0 0 h 16 v 16 h -16 z" fill-opacity="0.35"/>
        </g>
    </mask>
    <clipPath id="i">
        <path d="m 0 0 h 800 v 800 h -800 z"/>
    </clipPath>
    <mask id="j">
        <g filter="url(#a)">
            <path d="m 0 0 h 16 v 16 h -16 z" fill-opacity="0.35"/>
        </g>
    </mask>
    <clipPath id="k">
        <path d="m 0 0 h 800 v 800 h -800 z"/>
    </clipPath>
    <g clip-path="url(#c)" mask="url(#b)" transform="matrix(1 0 0 1 -160 -520)">
        <path d="m 142.5 351 h 10.449219 c -1.183594 0.492188 -1.296875 2.457031 0 3 h -10.449219 z m 0 0" fill="#2e3436"/>
    </g>
    <g clip-path="url(#e)" mask="url(#d)" transform="matrix(1 0 0 1 -160 -520)">
        <path d="m 104 502 c 0 0.550781 -0.449219 1 -1 1 s -1 -0.449219 -1 -1 s 0.449219 -1 1 -1 s 1 0.449219 1 1 z m 0 0" fill="#2e3436"/>
    </g>
    <g clip-path="url(#g)" mask="url(#f)" transform="matrix(1 0 0 1 -160 -520)">
        <path d="m 106 501 v 2 h 8 v -2 z m 0 0" fill="#2e3436" fill-rule="evenodd"/>
    </g>
    <g clip-path="url(#i)" mask="url(#h)" transform="matrix(1 0 0 1 -160 -520)">
        <path d="m 104 514 c 0 0.550781 -0.449219 1 -1 1 s -1 -0.449219 -1 -1 s 0.449219 -1 1 -1 s 1 0.449219 1 1 z m 0 0" fill="#2e3436"/>
    </g>
    <g clip-path="url(#k)" mask="url(#j)" transform="matrix(1 0 0 1 -160 -520)">
        <path d="m 106 513 v 2 h 8 v -2 z m 0 0" fill="#2e3436" fill-rule="evenodd"/>
    </g>
    <g fill="#2e3436">
        <path d="m 8 0.03125 c -3.859375 0 -7 3.140625 -7 7 v 3.96875 c 0 0.550781 0.449219 1 1 1 h 12 c 0.550781 0 1 -0.449219 1 -1 v -3.96875 c 0 -3.859375 -3.140625 -7 -7 -7 z m 0 2 c 2.789062 0 5 2.214844 5 5 v 2.96875 h -10 v -2.96875 c 0 -2.785156 2.210938 -5 5 -5 z m 0 0"/>
        <path d="m 6.984375 5.023438 c 0 0.550781 -0.445313 1 -1 1 c -0.550781 0 -1 -0.449219 -1 -1 c 0 -0.550782 0.449219 -1 1 -1 c 0.554687 0 1 0.449218 1 1 z m 0 0"/>
        <path d="m 10.964844 5.023438 c 0 0.550781 -0.449219 1 -1 1 c -0.554688 0 -1 -0.449219 -1 -1 c 0 -0.550782 0.445312 -1 1 -1 c 0.550781 0 1 0.449218 1 1 z m 0 0"/>
        <path d="m 7.882812 6.144531 c -2.40625 0 -4.625 1.359375 -5.816406 3.535157 c -0.175781 0.324218 -0.054687 0.726562 0.265625 0.902343 c 0.324219 0.179688 0.726563 0.058594 0.902344 -0.261719 c 0.96875 -1.777343 2.742187 -2.847656 4.648437 -2.847656 s 3.679688 1.070313 4.648438 2.847656 c 0.175781 0.320313 0.578125 0.441407 0.902344 0.261719 c 0.320312 -0.175781 0.441406 -0.578125 0.265625 -0.902343 c -1.191407 -2.175782 -3.410157 -3.535157 -5.816407 -3.535157 z m 0 0"/>
        <path d="m 9.957031 7.910156 c 0 1.101563 -0.894531 1.992188 -1.992187 1.992188 c -1.101563 0 -1.992188 -0.890625 -1.992188 -1.992188 c 0 -1.097656 0.890625 -1.988281 1.992188 -1.988281 c 1.097656 0 1.992187 0.890625 1.992187 1.988281 z m 0 0"/>
        <path d="m 2.507812 13.003906 c -0.277343 0 -0.5 0.226563 -0.5 0.5 c 0 0.277344 0.222657 0.5 0.5 0.5 h 5 c 0.277344 0 0.5 -0.222656 0.5 -0.5 c 0 -0.273437 -0.222656 -0.5 -0.5 -0.5 z m 0 0"/>
        <path d="m 5.511719 15.007812 c -0.277344 0 -0.5 0.226563 -0.5 0.5 c 0 0.277344 0.222656 0.5 0.5 0.5 h 4.996093 c 0.273438 0 0.5 -0.222656 0.5 -0.5 c 0 -0.273437 -0.226562 -0.5 -0.5 -0.5 z m 0 0"/>
    </g>
</svg>
