<svg xmlns="http://www.w3.org/2000/svg" width="16" height="16">
    <g color="#000" font-weight="400" font-family="sans-serif" white-space="normal" fill="#2e3436">
        <path d="M3 0C1.355 0 0 1.355 0 3v10c0 1.645 1.355 3 3 3h10c1.645 0 3-1.355 3-3V3c0-1.645-1.355-3-3-3zm0 2h10c.571 0 1 .429 1 1v10c0 .571-.429 1-1 1H3c-.571 0-1-.429-1-1V3c0-.571.429-1 1-1z" style="line-height:normal;font-variant-ligatures:normal;font-variant-position:normal;font-variant-caps:normal;font-variant-numeric:normal;font-variant-alternates:normal;font-feature-settings:normal;text-indent:0;text-align:start;text-decoration-line:none;text-decoration-style:solid;text-decoration-color:#000;text-transform:none;text-orientation:mixed;shape-padding:0;isolation:auto;mix-blend-mode:normal" overflow="visible"/>
        <path d="M4.963 4A1 1 0 0 0 4 5v6a1 1 0 1 0 2 0V7.703L7.24 9.15a1 1 0 0 0 1.52 0L10 7.703V11a1 1 0 1 0 2 0V5a1 1 0 0 0-1.76-.65L8 6.963 5.76 4.35A1 1 0 0 0 4.963 4z" style="line-height:normal;font-variant-ligatures:normal;font-variant-position:normal;font-variant-caps:normal;font-variant-numeric:normal;font-variant-alternates:normal;font-feature-settings:normal;text-indent:0;text-align:start;text-decoration-line:none;text-decoration-style:solid;text-decoration-color:#000;text-transform:none;text-orientation:mixed;shape-padding:0;isolation:auto;mix-blend-mode:normal" overflow="visible"/>
    </g>
</svg>
