<svg xmlns="http://www.w3.org/2000/svg" width="16" height="16">
    <g color="#000" fill="#2e3436">
        <path d="M3 0C1.355 0 0 1.355 0 3v10c0 1.645 1.355 3 3 3h10c1.645 0 3-1.355 3-3V3c0-1.645-1.355-3-3-3zm0 2h10c.571 0 1 .429 1 1v10c0 .571-.429 1-1 1H3c-.571 0-1-.429-1-1V3c0-.571.429-1 1-1z" style="line-height:normal;font-variant-ligatures:normal;font-variant-position:normal;font-variant-caps:normal;font-variant-numeric:normal;font-variant-alternates:normal;font-feature-settings:normal;text-indent:0;text-align:start;text-decoration-line:none;text-decoration-style:solid;text-decoration-color:#000;text-transform:none;text-orientation:mixed;shape-padding:0;isolation:auto;mix-blend-mode:normal" font-weight="400" font-family="sans-serif" white-space="normal" overflow="visible"/>
        <path d="M10.005 4l.006 2h-2C7 6 6.989 6.998 6.989 6.998V7h3.022a1 1 0 0 1 1 1v1s-.011 3-3 3H6l.01-2h2c.99 0 1-1 1-1h-3a1 1 0 0 1-1-.978l-.02-1.03S5 4 8 4z" overflow="visible"/>
    </g>
</svg>
