<?xml version="1.0" encoding="UTF-8"?>
<svg height="16px" viewBox="0 0 16 16" width="16px" xmlns="http://www.w3.org/2000/svg" xmlns:xlink="http://www.w3.org/1999/xlink">
    <filter id="a" height="100%" width="100%" x="0%" y="0%">
        <feColorMatrix in="SourceGraphic" type="matrix" values="0 0 0 0 1 0 0 0 0 1 0 0 0 0 1 0 0 0 1 0"/>
    </filter>
    <mask id="b">
        <g filter="url(#a)">
            <path d="m 0 0 h 16 v 16 h -16 z" fill-opacity="0.3"/>
        </g>
    </mask>
    <clipPath id="c">
        <path d="m 0 0 h 800 v 800 h -800 z"/>
    </clipPath>
    <mask id="d">
        <g filter="url(#a)">
            <path d="m 0 0 h 16 v 16 h -16 z" fill-opacity="0.35"/>
        </g>
    </mask>
    <clipPath id="e">
        <path d="m 0 0 h 800 v 800 h -800 z"/>
    </clipPath>
    <mask id="f">
        <g filter="url(#a)">
            <path d="m 0 0 h 16 v 16 h -16 z" fill-opacity="0.35"/>
        </g>
    </mask>
    <clipPath id="g">
        <path d="m 0 0 h 800 v 800 h -800 z"/>
    </clipPath>
    <mask id="h">
        <g filter="url(#a)">
            <path d="m 0 0 h 16 v 16 h -16 z" fill-opacity="0.35"/>
        </g>
    </mask>
    <clipPath id="i">
        <path d="m 0 0 h 800 v 800 h -800 z"/>
    </clipPath>
    <mask id="j">
        <g filter="url(#a)">
            <path d="m 0 0 h 16 v 16 h -16 z" fill-opacity="0.35"/>
        </g>
    </mask>
    <clipPath id="k">
        <path d="m 0 0 h 800 v 800 h -800 z"/>
    </clipPath>
    <g clip-path="url(#c)" mask="url(#b)" transform="matrix(1 0 0 1 -100 -600)">
        <path d="m 142.5 351 h 10.449219 c -1.183594 0.492188 -1.296875 2.457031 0 3 h -10.449219 z m 0 0" fill="#2e3436"/>
    </g>
    <g clip-path="url(#e)" mask="url(#d)" transform="matrix(1 0 0 1 -100 -600)">
        <path d="m 104 502 c 0 0.550781 -0.449219 1 -1 1 s -1 -0.449219 -1 -1 s 0.449219 -1 1 -1 s 1 0.449219 1 1 z m 0 0" fill="#2e3436"/>
    </g>
    <g clip-path="url(#g)" mask="url(#f)" transform="matrix(1 0 0 1 -100 -600)">
        <path d="m 106 501 v 2 h 8 v -2 z m 0 0" fill="#2e3436" fill-rule="evenodd"/>
    </g>
    <g clip-path="url(#i)" mask="url(#h)" transform="matrix(1 0 0 1 -100 -600)">
        <path d="m 104 514 c 0 0.550781 -0.449219 1 -1 1 s -1 -0.449219 -1 -1 s 0.449219 -1 1 -1 s 1 0.449219 1 1 z m 0 0" fill="#2e3436"/>
    </g>
    <g clip-path="url(#k)" mask="url(#j)" transform="matrix(1 0 0 1 -100 -600)">
        <path d="m 106 513 v 2 h 8 v -2 z m 0 0" fill="#2e3436" fill-rule="evenodd"/>
    </g>
    <g fill="#2e3436">
        <path d="m 7.816406 3.003906 c 1.640625 -0.09375 3.09375 1.167969 3.1875 2.8125 c 0 1.398438 -0.378906 1.921875 -1.59375 2.84375 c -0.191406 0.140625 -0.328125 0.25 -0.375 0.3125 c -0.050781 0.0625 -0.03125 0.03125 -0.03125 0.03125 c 0.003906 0.527344 -0.472656 1 -1 1 c -0.53125 0 -1.007812 -0.472656 -1 -1 c 0 -0.503906 0.222656 -0.945312 0.46875 -1.25 c 0.242188 -0.308594 0.488282 -0.519531 0.71875 -0.6875 c 0.203125 -0.164062 0.460938 -0.386718 0.6875 -0.65625 c 0.09375 -0.113281 0.128906 -0.308594 0.125 -0.4375 v -0.03125 c -0.03125 -0.566406 -0.5 -0.96875 -1.0625 -0.9375 c -0.566406 0.03125 -0.96875 0.433594 -0.9375 1 h -2 c -0.09375 -1.644531 1.167969 -2.910156 2.8125 -3 z m 0.1875 8 c 0.550782 0 1 0.445313 1 1 c 0 0.550782 -0.449218 1 -1 1 c -0.554687 0 -1 -0.449218 -1 -1 c 0 -0.554687 0.445313 -1 1 -1 z m 0 0"/>
        <path d="m 3.03125 5 c -0.277344 -0.007812 -0.542969 0.097656 -0.738281 0.292969 l -2 2 c -0.3906252 0.390625 -0.3906252 1.023437 0 1.414062 l 2 2 c 0.390625 0.390625 1.023437 0.390625 1.414062 0 s 0.390625 -1.023437 0 -1.414062 l -1.292969 -1.292969 l 1.292969 -1.292969 c 0.390625 -0.390625 0.390625 -1.023437 0 -1.414062 c -0.179687 -0.179688 -0.421875 -0.285157 -0.675781 -0.292969 z m 0 0" fill-rule="evenodd"/>
        <path d="m 13.027344 5 c -0.277344 -0.007812 -0.542969 0.097656 -0.734375 0.292969 c -0.390625 0.394531 -0.390625 1.027343 0.003906 1.414062 l 1.296875 1.292969 l -1.296875 1.292969 c -0.394531 0.386719 -0.394531 1.019531 -0.003906 1.414062 c 0.386719 0.390625 1.019531 0.390625 1.410156 0 l 2.011719 -2 c 0.1875 -0.1875 0.292968 -0.441406 0.292968 -0.707031 s -0.105468 -0.519531 -0.292968 -0.707031 l -2.011719 -2 c -0.179687 -0.183594 -0.421875 -0.285157 -0.675781 -0.292969 z m 0 0" fill-rule="evenodd"/>
    </g>
</svg>
