<svg xmlns="http://www.w3.org/2000/svg" width="16.008" height="16"><path d="M27.815 323.002c1.642-.092 3.095 1.17 3.187 2.813 0 1.401-.377 1.922-1.593 2.844-.191.143-.326.25-.375.312-.05.062-.032.033-.032.031.007.529-.471 1-1 1-.528 0-1.007-.471-1-1 0-.502.225-.943.47-1.25a3.82 3.82 0 0 1 .718-.687c.204-.16.46-.385.687-.656.094-.113.13-.308.125-.438v-.031a.988.988 0 0 0-1.062-.938c-.563.032-.97.437-.938 1h-2c-.092-1.642 1.17-2.908 2.813-3zm.187 8a1 1 0 1 1 0 2 1 1 0 0 1 0-2z" style="color:#bebebe;display:inline;overflow:visible;visibility:visible;fill:#2e3436;fill-opacity:1;stroke:none;stroke-width:2;marker:none;enable-background:new" transform="translate(-20 -320)"/><path d="M22.98 324.99a1 1 0 0 0-.687.303l-2 2a1 1 0 0 0 0 1.414l2 2a1 1 0 1 0 1.414-1.414L22.414 328l1.293-1.293a1 1 0 0 0-.727-1.717zM32.988 324.99a1 1 0 0 0-.693 1.719L33.592 328l-1.297 1.291a1 1 0 1 0 1.41 1.418l2.008-2a1 1 0 0 0 0-1.418l-2.008-2a1 1 0 0 0-.717-.3z" style="color:#000;font-style:normal;font-variant:normal;font-weight:400;font-stretch:normal;font-size:medium;line-height:normal;font-family:sans-serif;font-variant-ligatures:normal;font-variant-position:normal;font-variant-caps:normal;font-variant-numeric:normal;font-variant-alternates:normal;font-feature-settings:normal;text-indent:0;text-align:start;text-decoration:none;text-decoration-line:none;text-decoration-style:solid;text-decoration-color:#000;letter-spacing:normal;word-spacing:normal;text-transform:none;writing-mode:lr-tb;direction:ltr;text-orientation:mixed;dominant-baseline:auto;baseline-shift:baseline;text-anchor:start;white-space:normal;shape-padding:0;clip-rule:nonzero;display:inline;overflow:visible;visibility:visible;opacity:1;isolation:auto;mix-blend-mode:normal;color-interpolation:sRGB;color-interpolation-filters:linearRGB;solid-color:#000;solid-opacity:1;vector-effect:none;fill:#2e3436;fill-opacity:1;fill-rule:evenodd;stroke:none;stroke-width:2;stroke-linecap:round;stroke-linejoin:round;stroke-miterlimit:4;stroke-dasharray:none;stroke-dashoffset:0;stroke-opacity:1;color-rendering:auto;image-rendering:auto;shape-rendering:auto;text-rendering:auto;enable-background:accumulate" transform="translate(-20 -320)"/></svg>