<svg xmlns="http://www.w3.org/2000/svg" width="16" height="16">
    <g font-weight="400" white-space="normal" fill="#2e3436">
        <path d="M8 1C4.148 1 1 4.147 1 8c0 3.852 3.148 7 7 7 3.853 0 7-3.148 7-7 0-3.853-3.147-7-7-7zm0 2c2.77 0 5 2.23 5 5s-2.23 5-5 5-5-2.23-5-5 2.23-5 5-5z" style="line-height:normal;font-variant-ligatures:normal;font-variant-position:normal;font-variant-caps:normal;font-variant-numeric:normal;font-variant-alternates:normal;font-feature-settings:normal;text-indent:0;text-align:start;text-decoration-line:none;text-decoration-style:solid;text-decoration-color:#000;text-transform:none;text-orientation:mixed;shape-padding:0;isolation:auto;mix-blend-mode:normal;marker:none" color="#bebebe" font-family="Andale Mono" overflow="visible"/>
        <path d="M8.906 4.619a3.499 3.499 0 1 0 1.776 5.63.75.75 0 1 0-1.149-.964 1.996 1.996 0 0 1-2.216.596A1.997 1.997 0 0 1 6 8c0-.844.524-1.59 1.317-1.879a1.996 1.996 0 0 1 2.216.594.75.75 0 1 0 1.149-.965 3.497 3.497 0 0 0-1.776-1.131z" style="line-height:normal;font-variant-ligatures:normal;font-variant-position:normal;font-variant-caps:normal;font-variant-numeric:normal;font-variant-alternates:normal;font-feature-settings:normal;text-indent:0;text-align:start;text-decoration-line:none;text-decoration-style:solid;text-decoration-color:#000;text-transform:none;text-orientation:mixed;shape-padding:0;isolation:auto;mix-blend-mode:normal" color="#000" font-family="sans-serif" overflow="visible"/>
    </g>
</svg>
