<svg xmlns="http://www.w3.org/2000/svg" width="16" height="16">
    <g fill="#2e3436">
        <path d="M4 5v1h1v4H4v1h4v-1H7V8.5c1 0 1 2.5 2 2.5h2c1 0 1-3 1-3h-1s0 1-1 1c-.471 0-1-1-1-1h.5c.831 0 1.5-.669 1.5-1.5S10.328 4.925 9.5 5H8zm3 1h1.5a.499.499 0 1 1 0 1H7z"/>
        <path d="M8 2C4.7 2 2 4.7 2 8s2.7 6 6 6 6-2.7 6-6-2.7-6-6-6zm0 2c2.218 0 4 1.782 4 4s-1.782 4-4 4-4-1.782-4-4 1.782-4 4-4z" style="line-height:normal;font-variant-ligatures:normal;font-variant-position:normal;font-variant-caps:normal;font-variant-numeric:normal;font-variant-alternates:normal;font-feature-settings:normal;text-indent:0;text-align:start;text-decoration-line:none;text-decoration-style:solid;text-decoration-color:#000;text-transform:none;text-orientation:mixed;shape-padding:0;isolation:auto;mix-blend-mode:normal;marker:none" color="#bebebe" font-weight="400" font-family="Andale Mono" white-space="normal" overflow="visible"/>
        <path d="M7.5 1h1c.277 0 .5.223.5.5v1c0 .277-.223.5-.5.5h-1a.499.499 0 0 1-.5-.5v-1c0-.277.223-.5.5-.5zM7.5 13h1c.277 0 .5.223.5.5v1c0 .277-.223.5-.5.5h-1a.499.499 0 0 1-.5-.5v-1c0-.277.223-.5.5-.5zM11.067 1.688l.866.5c.24.138.322.443.183.683l-.5.866a.499.499 0 0 1-.683.183l-.866-.5a.499.499 0 0 1-.183-.683l.5-.866a.499.499 0 0 1 .683-.183zM5.067 12.08l.866.5c.24.139.322.443.183.683l-.5.866a.499.499 0 0 1-.683.183l-.866-.5a.499.499 0 0 1-.183-.683l.5-.866a.499.499 0 0 1 .683-.183zM13.812 4.067l.5.866a.499.499 0 0 1-.183.683l-.866.5a.499.499 0 0 1-.683-.183l-.5-.866a.499.499 0 0 1 .183-.683l.866-.5a.499.499 0 0 1 .683.183zM3.42 10.067l.5.866a.499.499 0 0 1-.183.683l-.866.5a.499.499 0 0 1-.683-.183l-.5-.866a.499.499 0 0 1 .183-.683l.866-.5a.499.499 0 0 1 .683.183zM15 7.5v1c0 .277-.223.5-.5.5h-1a.499.499 0 0 1-.5-.5v-1c0-.277.223-.5.5-.5h1c.277 0 .5.223.5.5zM3 7.5v1c0 .277-.223.5-.5.5h-1a.499.499 0 0 1-.5-.5v-1c0-.277.223-.5.5-.5h1c.277 0 .5.223.5.5zM14.312 11.067l-.5.866a.499.499 0 0 1-.683.183l-.866-.5a.499.499 0 0 1-.183-.683l.5-.866a.499.499 0 0 1 .683-.183l.866.5c.24.138.322.443.183.683zM3.92 5.067l-.5.866a.499.499 0 0 1-.683.183l-.866-.5a.499.499 0 0 1-.183-.683l.5-.866a.499.499 0 0 1 .683-.183l.866.5c.24.138.321.443.183.683zM11.933 13.812l-.866.5a.499.499 0 0 1-.683-.183l-.5-.866a.499.499 0 0 1 .183-.683l.866-.5a.499.499 0 0 1 .683.183l.5.866a.499.499 0 0 1-.183.683zM5.933 3.42l-.866.5a.499.499 0 0 1-.683-.183l-.5-.866a.499.499 0 0 1 .183-.683l.866-.5a.499.499 0 0 1 .683.183l.5.866a.499.499 0 0 1-.183.683z" style="marker:none"/>
    </g>
</svg>
