<svg xmlns="http://www.w3.org/2000/svg" width="16" height="16">
    <path d="M12.97 1.988a1 1 0 0 0-.898.64L9.418 9.267 6.936 2.648A1 1 0 0 0 6 2H3a1 1 0 0 0 0 2h1.322l3.729 9.314.021.057A1 1 0 0 0 9 14a1 1 0 0 0 .928-.629 1 1 0 0 0 .004-.01l3.996-9.99a1 1 0 0 0-.957-1.383z" style="line-height:normal;font-variant-ligatures:normal;font-variant-position:normal;font-variant-caps:normal;font-variant-numeric:normal;font-variant-alternates:normal;font-feature-settings:normal;text-indent:0;text-align:start;text-decoration-line:none;text-decoration-style:solid;text-decoration-color:#000;text-transform:none;text-orientation:mixed;shape-padding:0;isolation:auto;mix-blend-mode:normal" color="#000" font-weight="400" font-family="sans-serif" white-space="normal" overflow="visible" fill="#2e3436" fill-rule="evenodd"/>
</svg>
