<svg xmlns="http://www.w3.org/2000/svg" width="16" height="16.006"><path d="M88 340c-1.792 0-3.422.35-4.69.984-1.267.634-2.31 1.647-2.31 3.016s1.043 2.382 2.31 3.016c1.268.634 2.898.984 4.69.984 1.792 0 3.422-.35 4.69-.984 1.267-.634 2.31-1.647 2.31-3.016s-1.043-2.382-2.31-3.016C91.421 340.35 89.791 340 88 340Zm0 2c1.522 0 2.891.322 3.795.773.904.452 1.205.939 1.205 1.227 0 .288-.301.775-1.205 1.227-.904.451-2.273.773-3.795.773-1.522 0-2.891-.322-3.795-.773-.904-.452-1.205-.939-1.205-1.227 0-.288.301-.775 1.205-1.227.904-.451 2.273-.773 3.795-.773ZM81 348c0 .892.482 1.678 1.148 2.256.667.577 1.541 1.004 2.575 1.303 2.066.596 4.488.596 6.554 0 1.034-.299 1.908-.726 2.575-1.303.666-.578 1.148-1.364 1.148-2.256h-2c0 .18-.09.425-.459.744-.369.32-.995.655-1.818.893-1.646.475-3.8.475-5.446 0-.823-.238-1.449-.573-1.818-.893-.369-.32-.459-.564-.459-.744Z" style="color:#000;font-style:normal;font-variant:normal;font-weight:400;font-stretch:normal;font-size:medium;line-height:normal;font-family:sans-serif;font-variant-ligatures:normal;font-variant-position:normal;font-variant-caps:normal;font-variant-numeric:normal;font-variant-alternates:normal;font-feature-settings:normal;text-indent:0;text-align:start;text-decoration:none;text-decoration-line:none;text-decoration-style:solid;text-decoration-color:#000;letter-spacing:normal;word-spacing:normal;text-transform:none;writing-mode:lr-tb;direction:ltr;text-orientation:mixed;dominant-baseline:auto;baseline-shift:baseline;text-anchor:start;white-space:normal;shape-padding:0;clip-rule:nonzero;display:inline;overflow:visible;visibility:visible;opacity:1;isolation:auto;mix-blend-mode:normal;color-interpolation:sRGB;color-interpolation-filters:linearRGB;solid-color:#000;solid-opacity:1;vector-effect:none;fill:#2e3436;fill-opacity:1;fill-rule:nonzero;stroke:none;stroke-width:2;stroke-linecap:butt;stroke-linejoin:round;stroke-miterlimit:4;stroke-dasharray:none;stroke-dashoffset:1;stroke-opacity:1;color-rendering:auto;image-rendering:auto;shape-rendering:auto;text-rendering:auto;enable-background:accumulate" transform="translate(-80 -340)"/><path d="M81 352c0 .892.482 1.678 1.148 2.256.667.577 1.541 1.004 2.575 1.303 2.066.596 4.488.596 6.554 0 1.034-.299 1.908-.726 2.575-1.303.666-.578 1.148-1.364 1.148-2.256h-2c0 .18-.09.425-.459.744-.369.32-.995.655-1.818.893-1.646.475-3.8.475-5.446 0-.823-.238-1.449-.573-1.818-.893-.369-.32-.459-.564-.459-.744Z" style="color:#000;font-style:normal;font-variant:normal;font-weight:400;font-stretch:normal;font-size:medium;line-height:normal;font-family:sans-serif;font-variant-ligatures:normal;font-variant-position:normal;font-variant-caps:normal;font-variant-numeric:normal;font-variant-alternates:normal;font-feature-settings:normal;text-indent:0;text-align:start;text-decoration:none;text-decoration-line:none;text-decoration-style:solid;text-decoration-color:#000;letter-spacing:normal;word-spacing:normal;text-transform:none;writing-mode:lr-tb;direction:ltr;text-orientation:mixed;dominant-baseline:auto;baseline-shift:baseline;text-anchor:start;white-space:normal;shape-padding:0;clip-rule:nonzero;display:inline;overflow:visible;visibility:visible;opacity:1;isolation:auto;mix-blend-mode:normal;color-interpolation:sRGB;color-interpolation-filters:linearRGB;solid-color:#000;solid-opacity:1;vector-effect:none;fill:#2e3436;fill-opacity:1;fill-rule:nonzero;stroke:none;stroke-width:2;stroke-linecap:butt;stroke-linejoin:round;stroke-miterlimit:4;stroke-dasharray:none;stroke-dashoffset:1;stroke-opacity:1;color-rendering:auto;image-rendering:auto;shape-rendering:auto;text-rendering:auto;enable-background:accumulate" transform="translate(-80 -340)"/><path d="M81 344v8h2v-8zM93 344v8h2v-8z" style="color:#000;font-style:normal;font-variant:normal;font-weight:400;font-stretch:normal;font-size:medium;line-height:normal;font-family:sans-serif;font-variant-ligatures:normal;font-variant-position:normal;font-variant-caps:normal;font-variant-numeric:normal;font-variant-alternates:normal;font-feature-settings:normal;text-indent:0;text-align:start;text-decoration:none;text-decoration-line:none;text-decoration-style:solid;text-decoration-color:#000;letter-spacing:normal;word-spacing:normal;text-transform:none;writing-mode:lr-tb;direction:ltr;text-orientation:mixed;dominant-baseline:auto;baseline-shift:baseline;text-anchor:start;white-space:normal;shape-padding:0;clip-rule:nonzero;display:inline;overflow:visible;visibility:visible;opacity:1;isolation:auto;mix-blend-mode:normal;color-interpolation:sRGB;color-interpolation-filters:linearRGB;solid-color:#000;solid-opacity:1;vector-effect:none;fill:#2e3436;fill-opacity:1;fill-rule:evenodd;stroke:none;stroke-width:2;stroke-linecap:butt;stroke-linejoin:miter;stroke-miterlimit:4;stroke-dasharray:none;stroke-dashoffset:0;stroke-opacity:1;color-rendering:auto;image-rendering:auto;shape-rendering:auto;text-rendering:auto;enable-background:accumulate" transform="translate(-80 -340)"/></svg>