<svg xmlns="http://www.w3.org/2000/svg" width="16" height="16">
    <g fill="#2e3436" fill-rule="evenodd">
        <path d="M10.162 1.994C10.065 1.99 10 2 10 2H6S5 2 5 3v2H3C2 5 2 6 2 6v4c0 1 1 1 1 1h2v-1c0-2 2-2 2-2h3s1 0 1.053-.918c0 0-.053-1.817-.053-2.082V3c.033-.862-.546-.994-.838-1.006zM7 3a1 1 0 0 1 1 1 1 1 0 0 1-1 1 1 1 0 0 1-1-1 1 1 0 0 1 1-1z"/>
        <path d="M11 4v2h1.5c.417 0 .35.06.418.197S13 6.5 13 6.5v3s-.014.166-.082.303c-.068.136-.001.197-.418.197H11a1 1 0 0 0-1 1v1.5c0 .417-.06.35-.197.418S9.5 13 9.5 13h-3s-.166-.014-.303-.082C6.061 12.85 6 12.917 6 12.5V11H4v1.5c0 1.083.69 1.9 1.303 2.207C5.916 15.014 6.5 15 6.5 15h3s.584.014 1.197-.293C11.311 14.4 12 13.583 12 12.5V12h.5c1.084 0 1.9-.69 2.207-1.303C15.014 10.084 15 9.5 15 9.5v-3s.014-.584-.293-1.197C14.4 4.689 13.584 4 12.5 4z" style="line-height:normal;font-variant-ligatures:normal;font-variant-position:normal;font-variant-caps:normal;font-variant-numeric:normal;font-variant-alternates:normal;font-feature-settings:normal;text-indent:0;text-align:start;text-decoration-line:none;text-decoration-style:solid;text-decoration-color:#000;text-transform:none;text-orientation:mixed;shape-padding:0;isolation:auto;mix-blend-mode:normal" color="#000" font-weight="400" font-family="sans-serif" white-space="normal" overflow="visible"/>
        <path d="M6.5 1s-.584-.014-1.197.293C4.689 1.6 4 2.417 4 3.5V4h-.5c-1.083 0-1.9.69-2.207 1.303C.986 5.916 1 6.5 1 6.5v3c0 1.083.69 1.9 1.303 2.207C2.916 12.014 3.5 12 3.5 12H5a1 1 0 0 0 1-1v-.5c0-.917.311-1.1.697-1.293C7.084 9.014 7.5 9 7.5 9h2c1.084 0 1.9-.69 2.207-1.303C12.014 7.084 12 6.5 12 6.5v-3c0-1.083-.689-1.9-1.303-2.207C10.084.986 9.5 1 9.5 1zm0 2h3s.166.014.303.082c.136.068.197 0 .197.418v3s-.014.166-.082.303C9.85 6.939 9.917 7 9.5 7h-2s-.834-.014-1.697.418C5.049 7.795 4.34 8.733 4.147 10H3.5s-.166-.014-.303-.082C3.061 9.85 3 9.917 3 9.5v-3s.014-.166.082-.303C3.15 6.061 3.084 6 3.5 6H5a1 1 0 0 0 1-1V3.5c0-.417.061-.35.197-.418C6.334 3.014 6.5 3 6.5 3z" style="line-height:normal;font-variant-ligatures:normal;font-variant-position:normal;font-variant-caps:normal;font-variant-numeric:normal;font-variant-alternates:normal;font-feature-settings:normal;text-indent:0;text-align:start;text-decoration-line:none;text-decoration-style:solid;text-decoration-color:#000;text-transform:none;text-orientation:mixed;shape-padding:0;isolation:auto;mix-blend-mode:normal" color="#000" font-weight="400" font-family="sans-serif" white-space="normal" overflow="visible"/>
    </g>
</svg>
