<svg xmlns="http://www.w3.org/2000/svg" width="16" height="16.006">
    <g color="#000" font-weight="400" font-family="sans-serif" white-space="normal" fill="#2e3436">
        <path d="M8 0C6.208 0 4.578.35 3.31.984 2.044 1.618 1 2.631 1 4s1.043 2.382 2.31 3.016C4.579 7.65 6.209 8 8 8c1.792 0 3.422-.35 4.69-.984C13.956 6.382 15 5.369 15 4S13.957 1.618 12.69.984C11.421.35 9.791 0 8 0zm0 2c1.522 0 2.891.322 3.795.773C12.699 3.225 13 3.712 13 4c0 .288-.301.775-1.205 1.227C10.89 5.678 9.522 6 8 6c-1.522 0-2.891-.322-3.795-.773C3.301 4.775 3 4.288 3 4c0-.288.301-.775 1.205-1.227C5.11 2.322 6.478 2 8 2zM1 8c0 .892.482 1.678 1.148 2.256.667.577 1.541 1.004 2.575 1.303 2.066.596 4.488.596 6.554 0 1.034-.299 1.908-.726 2.575-1.303C14.518 9.678 15 8.892 15 8h-2c0 .18-.09.425-.459.744-.369.32-.995.655-1.818.893-1.646.475-3.8.475-5.446 0-.823-.238-1.449-.573-1.818-.893C3.09 8.424 3 8.18 3 8z" style="line-height:normal;font-variant-ligatures:normal;font-variant-position:normal;font-variant-caps:normal;font-variant-numeric:normal;font-variant-alternates:normal;font-feature-settings:normal;text-indent:0;text-align:start;text-decoration-line:none;text-decoration-style:solid;text-decoration-color:#000;text-transform:none;text-orientation:mixed;shape-padding:0;isolation:auto;mix-blend-mode:normal" overflow="visible"/>
        <path d="M1 12c0 .892.482 1.678 1.148 2.256.667.577 1.541 1.004 2.575 1.303 2.066.596 4.488.596 6.554 0 1.034-.299 1.908-.726 2.575-1.303C14.518 13.678 15 12.892 15 12h-2c0 .18-.09.425-.459.744-.369.32-.995.655-1.818.893-1.646.475-3.8.475-5.446 0-.823-.238-1.449-.573-1.818-.893C3.09 12.424 3 12.18 3 12z" style="line-height:normal;font-variant-ligatures:normal;font-variant-position:normal;font-variant-caps:normal;font-variant-numeric:normal;font-variant-alternates:normal;font-feature-settings:normal;text-indent:0;text-align:start;text-decoration-line:none;text-decoration-style:solid;text-decoration-color:#000;text-transform:none;text-orientation:mixed;shape-padding:0;isolation:auto;mix-blend-mode:normal" overflow="visible"/>
        <path d="M1 4v8h2V4zM13 4v8h2V4z" style="line-height:normal;font-variant-ligatures:normal;font-variant-position:normal;font-variant-caps:normal;font-variant-numeric:normal;font-variant-alternates:normal;font-feature-settings:normal;text-indent:0;text-align:start;text-decoration-line:none;text-decoration-style:solid;text-decoration-color:#000;text-transform:none;text-orientation:mixed;shape-padding:0;isolation:auto;mix-blend-mode:normal" overflow="visible" fill-rule="evenodd"/>
    </g>
</svg>
