<svg xmlns="http://www.w3.org/2000/svg" width="16" height="16"><path d="M13.543 350.206a3.193 3.193 0 0 1-2.043.756c-.77 0-1.47-.287-2.027-.743-.717.33-1.47.999-1.471 2.118L8 354.242c0 .426.311.77.7.77h5.6c.389 0 .7-.344.7-.77v-1.896c0-.967-.637-1.793-1.457-2.14z" style="fill:#2e3436;fill-opacity:1;stroke:none" transform="translate(0 -340)"/><path d="M14 347.5a2.5 2.5 0 0 1-2.5 2.5 2.5 2.5 0 0 1-2.5-2.5 2.5 2.5 0 0 1 2.5-2.5 2.5 2.5 0 0 1 2.5 2.5Z" style="color:#bebebe;display:inline;overflow:visible;visibility:visible;fill:#2e3436;fill-opacity:1;fill-rule:nonzero;stroke:none;stroke-width:1.84614956;marker:none;enable-background:accumulate" transform="translate(0 -340)"/><path d="M6.625 346.237c-.578.491-1.314.8-2.125.8-.8 0-1.527-.301-2.102-.78-.693.342-1.395 1-1.396 2.08L1 350.242c0 .426.311.77.7.77h5.448A3.285 3.285 0 0 1 8 349.629v-1.283c0-.935-.595-1.743-1.375-2.11z" style="fill:#2e3436;fill-opacity:1;stroke:none" transform="translate(0 -340)"/><path d="M7 343.5a2.5 2.5 0 0 1-2.5 2.5 2.5 2.5 0 0 1-2.5-2.5 2.5 2.5 0 0 1 2.5-2.5 2.5 2.5 0 0 1 2.5 2.5Z" style="color:#bebebe;display:inline;overflow:visible;visibility:visible;fill:#2e3436;fill-opacity:1;fill-rule:nonzero;stroke:none;stroke-width:1.84614956;marker:none;enable-background:accumulate" transform="translate(0 -340)"/></svg>