<?xml version="1.0" encoding="UTF-8"?>
<svg height="16.054688px" viewBox="0 0 16.054688 16.054688" width="16.054688px" xmlns="http://www.w3.org/2000/svg" xmlns:xlink="http://www.w3.org/1999/xlink">
    <filter id="a" height="100%" width="100%" x="0%" y="0%">
        <feColorMatrix color-interpolation-filters="sRGB" values="0 0 0 0 1 0 0 0 0 1 0 0 0 0 1 0 0 0 1 0"/>
    </filter>
    <mask id="b">
        <g filter="url(#a)">
            <path d="m -1.605469 -1.605469 h 19.265625 v 19.265625 h -19.265625 z" fill-opacity="0.3"/>
        </g>
    </mask>
    <clipPath id="c">
        <path d="m 0 0 h 800 v 800 h -800 z"/>
    </clipPath>
    <mask id="d">
        <g filter="url(#a)">
            <path d="m -1.605469 -1.605469 h 19.265625 v 19.265625 h -19.265625 z" fill-opacity="0.35"/>
        </g>
    </mask>
    <clipPath id="e">
        <path d="m 0 0 h 800 v 800 h -800 z"/>
    </clipPath>
    <mask id="f">
        <g filter="url(#a)">
            <path d="m -1.605469 -1.605469 h 19.265625 v 19.265625 h -19.265625 z" fill-opacity="0.35"/>
        </g>
    </mask>
    <clipPath id="g">
        <path d="m 0 0 h 800 v 800 h -800 z"/>
    </clipPath>
    <mask id="h">
        <g filter="url(#a)">
            <path d="m -1.605469 -1.605469 h 19.265625 v 19.265625 h -19.265625 z" fill-opacity="0.35"/>
        </g>
    </mask>
    <clipPath id="i">
        <path d="m 0 0 h 800 v 800 h -800 z"/>
    </clipPath>
    <mask id="j">
        <g filter="url(#a)">
            <path d="m -1.605469 -1.605469 h 19.265625 v 19.265625 h -19.265625 z" fill-opacity="0.35"/>
        </g>
    </mask>
    <clipPath id="k">
        <path d="m 0 0 h 800 v 800 h -800 z"/>
    </clipPath>
    <g mask="url(#b)">
        <g clip-path="url(#c)" transform="matrix(1 0 0 1 -200 -640)">
            <path d="m 142.5 351 h 10.449219 c -1.183594 0.492188 -1.296875 2.457031 0 3 h -10.449219 z m 0 0" fill="#2e3436"/>
        </g>
    </g>
    <g mask="url(#d)">
        <g clip-path="url(#e)" transform="matrix(1 0 0 1 -200 -640)">
            <path d="m 104 502 c 0 0.550781 -0.449219 1 -1 1 s -1 -0.449219 -1 -1 s 0.449219 -1 1 -1 s 1 0.449219 1 1 z m 0 0" fill="#2e3436"/>
        </g>
    </g>
    <g mask="url(#f)">
        <g clip-path="url(#g)" transform="matrix(1 0 0 1 -200 -640)">
            <path d="m 106 501 v 2 h 8 v -2 z m 0 0" fill="#2e3436" fill-rule="evenodd"/>
        </g>
    </g>
    <g mask="url(#h)">
        <g clip-path="url(#i)" transform="matrix(1 0 0 1 -200 -640)">
            <path d="m 104 514 c 0 0.550781 -0.449219 1 -1 1 s -1 -0.449219 -1 -1 s 0.449219 -1 1 -1 s 1 0.449219 1 1 z m 0 0" fill="#2e3436"/>
        </g>
    </g>
    <g mask="url(#j)">
        <g clip-path="url(#k)" transform="matrix(1 0 0 1 -200 -640)">
            <path d="m 106 513 v 2 h 8 v -2 z m 0 0" fill="#2e3436" fill-rule="evenodd"/>
        </g>
    </g>
    <g fill="#2e3436">
        <path d="m 3.507812 6.316406 l -2.941406 8.820313 l 0.433594 0.863281 l 1.5625 -0.519531 l 2.4375 -7.316407 l 2.4375 7.316407 l 1.5625 0.519531 l 0.433594 -0.863281 l -2.941406 -8.820313 c -0.375 0.429688 -0.917969 0.679688 -1.492188 0.683594 c -0.574219 -0.003906 -1.117188 -0.253906 -1.492188 -0.683594 z m 0 0"/>
        <path d="m 4 1 v 1.171875 c -1.160156 0.417969 -2 1.53125 -2 2.828125 c 0 0.953125 0.457031 1.808594 1.15625 2.359375 l -1.789062 5.375 l 0.632812 1.265625 l 1.265625 -0.632812 l 1.734375 -5.203126 l 1.734375 5.203126 l 1.265625 0.632812 l 0.792969 -0.792969 l -1.953125 -5.847656 c 0.703125 -0.550781 1.160156 -1.40625 1.160156 -2.359375 c 0 -1.296875 -0.839844 -2.410156 -2 -2.828125 v -1.171875 z m 1 3 c 0.476562 0 0.859375 0.308594 0.96875 0.746094 c 0.003906 0.007812 0.003906 0.019531 0.007812 0.03125 v 0.003906 v 0.011719 c 0.003907 0 0.003907 0 0.003907 0.003906 c 0.003906 0.011719 0.003906 0.023437 0.003906 0.039063 c 0.003906 0.019531 0.007813 0.039062 0.007813 0.0625 c 0.003906 0.03125 0.007812 0.066406 0.007812 0.101562 c 0 0.550781 -0.449219 1 -1 1 s -1 -0.449219 -1 -1 c 0 -0.109375 0.019531 -0.214844 0.050781 -0.316406 c 0.128907 -0.402344 0.496094 -0.683594 0.949219 -0.683594 z m 0 0"/>
        <path d="m 1 11 c -0.550781 0 -1 0.449219 -1 1 s 0.449219 1 1 1 h 8 c 0.550781 0 1 -0.449219 1 -1 s -0.449219 -1 -1 -1 z m 0 0"/>
        <path d="m 8 0 v 1.007812 c 0.691406 0.515626 1.234375 1.203126 1.578125 1.992188 h 4.421875 v 11 h -5 v 2 h 6 c 0.550781 0 1 -0.449219 1 -1 v -14 c 0 -0.550781 -0.449219 -1 -1 -1 z m 0 0"/>
        <path d="m 6.949219 7.683594 l -1.898438 0.632812 l 2.558594 7.683594 h 2.109375 z m 0 0"/>
        <path d="m 9 4 l 1 1 l -1 1 h 3 c 0.554688 0 1 -0.445312 1 -1 s -0.445312 -1 -1 -1 z m 0 0"/>
        <path d="m 12 7 l -1 1 l 1 1 h -2 c -0.554688 0 -1 -0.445312 -1 -1 s 0.445312 -1 1 -1 z m 0 0"/>
        <path d="m 10 10 l 2 2 s 1 -0.445312 1 -1 s -0.445312 -1 -1 -1 z m 0 0"/>
    </g>
</svg>
