<?xml version="1.0" encoding="UTF-8"?>
<svg height="16px" viewBox="0 0 16 16" width="16px" xmlns="http://www.w3.org/2000/svg" xmlns:xlink="http://www.w3.org/1999/xlink">
    <filter id="a" height="100%" width="100%" x="0%" y="0%">
        <feColorMatrix in="SourceGraphic" type="matrix" values="0 0 0 0 1 0 0 0 0 1 0 0 0 0 1 0 0 0 1 0"/>
    </filter>
    <mask id="b">
        <g filter="url(#a)">
            <path d="m 0 0 h 16 v 16 h -16 z" fill-opacity="0.3"/>
        </g>
    </mask>
    <clipPath id="c">
        <path d="m 0 0 h 800 v 800 h -800 z"/>
    </clipPath>
    <mask id="d">
        <g filter="url(#a)">
            <path d="m 0 0 h 16 v 16 h -16 z" fill-opacity="0.35"/>
        </g>
    </mask>
    <clipPath id="e">
        <path d="m 0 0 h 800 v 800 h -800 z"/>
    </clipPath>
    <mask id="f">
        <g filter="url(#a)">
            <path d="m 0 0 h 16 v 16 h -16 z" fill-opacity="0.35"/>
        </g>
    </mask>
    <clipPath id="g">
        <path d="m 0 0 h 800 v 800 h -800 z"/>
    </clipPath>
    <mask id="h">
        <g filter="url(#a)">
            <path d="m 0 0 h 16 v 16 h -16 z" fill-opacity="0.35"/>
        </g>
    </mask>
    <clipPath id="i">
        <path d="m 0 0 h 800 v 800 h -800 z"/>
    </clipPath>
    <mask id="j">
        <g filter="url(#a)">
            <path d="m 0 0 h 16 v 16 h -16 z" fill-opacity="0.35"/>
        </g>
    </mask>
    <clipPath id="k">
        <path d="m 0 0 h 800 v 800 h -800 z"/>
    </clipPath>
    <g clip-path="url(#c)" mask="url(#b)" transform="matrix(1 0 0 1 -240 -620)">
        <path d="m 142.5 351 h 10.449219 c -1.183594 0.492188 -1.296875 2.457031 0 3 h -10.449219 z m 0 0" fill="#2e3436"/>
    </g>
    <g clip-path="url(#e)" mask="url(#d)" transform="matrix(1 0 0 1 -240 -620)">
        <path d="m 104 502 c 0 0.550781 -0.449219 1 -1 1 s -1 -0.449219 -1 -1 s 0.449219 -1 1 -1 s 1 0.449219 1 1 z m 0 0" fill="#2e3436"/>
    </g>
    <g clip-path="url(#g)" mask="url(#f)" transform="matrix(1 0 0 1 -240 -620)">
        <path d="m 106 501 v 2 h 8 v -2 z m 0 0" fill="#2e3436" fill-rule="evenodd"/>
    </g>
    <g clip-path="url(#i)" mask="url(#h)" transform="matrix(1 0 0 1 -240 -620)">
        <path d="m 104 514 c 0 0.550781 -0.449219 1 -1 1 s -1 -0.449219 -1 -1 s 0.449219 -1 1 -1 s 1 0.449219 1 1 z m 0 0" fill="#2e3436"/>
    </g>
    <g clip-path="url(#k)" mask="url(#j)" transform="matrix(1 0 0 1 -240 -620)">
        <path d="m 106 513 v 2 h 8 v -2 z m 0 0" fill="#2e3436" fill-rule="evenodd"/>
    </g>
    <g fill="#2e3436" fill-rule="evenodd">
        <path d="m 6.5 1 s -0.582031 -0.015625 -1.199219 0.292969 c -0.613281 0.308593 -1.300781 1.125 -1.300781 2.207031 v 0.5 h -0.5 c -1.082031 0 -1.898438 0.6875 -2.207031 1.300781 c -0.308594 0.617188 -0.292969 1.199219 -0.292969 1.199219 v 3 c 0 1.082031 0.6875 1.898438 1.300781 2.207031 c 0.617188 0.308594 1.199219 0.292969 1.199219 0.292969 h 1.5 c 0.550781 0 1 -0.449219 1 -1 v -0.5 c 0 -0.917969 0.3125 -1.101562 0.699219 -1.292969 c 0.382812 -0.191406 0.800781 -0.207031 0.800781 -0.207031 h 2 c 1.082031 0 1.898438 -0.6875 2.207031 -1.300781 c 0.308594 -0.617188 0.292969 -1.199219 0.292969 -1.199219 v -3 c 0 -1.082031 -0.6875 -1.898438 -1.300781 -2.207031 c -0.617188 -0.308594 -1.199219 -0.292969 -1.199219 -0.292969 z m 0.5 2 c 0.550781 0 1 0.449219 1 1 s -0.449219 1 -1 1 s -1 -0.449219 -1 -1 s 0.449219 -1 1 -1 z m 0 0"/>
        <path d="m 11 4 v 2 h 1.5 c 0.417969 0 0.351562 0.0625 0.417969 0.199219 c 0.066406 0.132812 0.082031 0.300781 0.082031 0.300781 v 3 s -0.015625 0.167969 -0.082031 0.300781 c -0.066407 0.136719 0 0.199219 -0.417969 0.199219 h -1.5 c -0.550781 0 -1 0.449219 -1 1 v 1.5 c 0 0.417969 -0.0625 0.351562 -0.199219 0.417969 c -0.132812 0.066406 -0.300781 0.082031 -0.300781 0.082031 h -3 s -0.167969 -0.015625 -0.300781 -0.082031 c -0.136719 -0.066407 -0.199219 0 -0.199219 -0.417969 v -1.5 h -2 v 1.5 c 0 1.082031 0.6875 1.898438 1.300781 2.207031 c 0.617188 0.308594 1.199219 0.292969 1.199219 0.292969 h 3 s 0.582031 0.015625 1.199219 -0.292969 c 0.613281 -0.308593 1.300781 -1.125 1.300781 -2.207031 v -0.5 h 0.5 c 1.082031 0 1.898438 -0.6875 2.207031 -1.300781 c 0.308594 -0.617188 0.292969 -1.199219 0.292969 -1.199219 v -3 s 0.015625 -0.582031 -0.292969 -1.199219 c -0.308593 -0.613281 -1.125 -1.300781 -2.207031 -1.300781 z m 0 0"/>
    </g>
</svg>
