<?xml version="1.0" encoding="utf-8"?>
<svg height="16px" viewBox="0 0 16 16" width="16px" xmlns="http://www.w3.org/2000/svg" xmlns:xlink="http://www.w3.org/1999/xlink">
  <filter id="a" height="100%" width="100%" x="0%" y="0%">
    <feColorMatrix in="SourceGraphic" type="matrix" values="0 0 0 0 1 0 0 0 0 1 0 0 0 0 1 0 0 0 1 0"/>
  </filter>
  <mask id="b">
      <g filter="url(#a)">
          <path d="m 0 0 h 16 v 16 h -16 z" fill-opacity="0.3"/>
      </g>
  </mask>
  <clipPath id="c">
      <path d="m 0 0 h 800 v 800 h -800 z"/>
  </clipPath>
  <mask id="d">
      <g filter="url(#a)">
          <path d="m 0 0 h 16 v 16 h -16 z" fill-opacity="0.35"/>
      </g>
  </mask>
  <clipPath id="e">
      <path d="m 0 0 h 800 v 800 h -800 z"/>
  </clipPath>
  <mask id="f">
      <g filter="url(#a)">
          <path d="m 0 0 h 16 v 16 h -16 z" fill-opacity="0.35"/>
      </g>
  </mask>
  <clipPath id="g">
      <path d="m 0 0 h 800 v 800 h -800 z"/>
  </clipPath>
  <mask id="h">
      <g filter="url(#a)">
          <path d="m 0 0 h 16 v 16 h -16 z" fill-opacity="0.35"/>
      </g>
  </mask>
  <clipPath id="i">
      <path d="m 0 0 h 800 v 800 h -800 z"/>
  </clipPath>
  <mask id="j">
      <g filter="url(#a)">
          <path d="m 0 0 h 16 v 16 h -16 z" fill-opacity="0.35"/>
      </g>
  </mask>
  <clipPath id="k">
      <path d="m 0 0 h 800 v 800 h -800 z"/>
  </clipPath>
  <g clip-path="url(#c)" mask="url(#b)" transform="matrix(1 0 0 1 -260 -600)">
      <path d="m 142.5 351 h 10.449219 c -1.183594 0.492188 -1.296875 2.457031 0 3 h -10.449219 z m 0 0" fill="#2e3436"/>
  </g>
  <g clip-path="url(#e)" mask="url(#d)" transform="matrix(1 0 0 1 -260 -600)">
      <path d="m 104 502 c 0 0.550781 -0.449219 1 -1 1 s -1 -0.449219 -1 -1 s 0.449219 -1 1 -1 s 1 0.449219 1 1 z m 0 0" fill="#2e3436"/>
  </g>
  <g clip-path="url(#g)" mask="url(#f)" transform="matrix(1 0 0 1 -260 -600)">
      <path d="m 106 501 v 2 h 8 v -2 z m 0 0" fill="#2e3436" fill-rule="evenodd"/>
  </g>
  <g clip-path="url(#i)" mask="url(#h)" transform="matrix(1 0 0 1 -260 -600)">
      <path d="m 104 514 c 0 0.550781 -0.449219 1 -1 1 s -1 -0.449219 -1 -1 s 0.449219 -1 1 -1 s 1 0.449219 1 1 z m 0 0" fill="#2e3436"/>
  </g>
  <g clip-path="url(#k)" mask="url(#j)" transform="matrix(1 0 0 1 -260 -600)">
      <path d="m 106 513 v 2 h 8 v -2 z m 0 0" fill="#2e3436" fill-rule="evenodd"/>
  </g>
  <path d="M 8.804 7.707 C 8.808 7.967 8.407 8.151 7.949 8.151 C 7.49 8.151 7.087 7.98 7.083 7.707 C 7.079 7.434 7.505 7.231 7.949 7.231 C 8.392 7.231 8.8 7.446 8.804 7.707 Z" fill="#2e3436"/>
  <path d="M 2.766 2.269 C 2.934 2.364 3.083 2.479 3.212 2.609 C 4.13 1.941 5.227 1.562 6.362 1.522 C 6.916 1.502 7.469 1.482 8.022 1.477 C 8.576 1.472 9.13 1.483 9.684 1.522 C 10.796 1.594 11.865 1.977 12.769 2.628 C 12.906 2.486 13.062 2.365 13.234 2.268 C 14.154 1.749 15.294 2.027 15.781 2.888 C 16.267 3.75 15.916 4.87 14.996 5.39 C 14.927 5.429 14.855 5.464 14.782 5.495 C 14.915 5.965 14.986 6.463 14.986 6.984 L 15.005 14.524 L 0.967 14.504 L 0.967 6.984 C 0.967 6.46 1.042 5.955 1.18 5.479 C 1.12 5.452 1.061 5.422 1.004 5.389 C 0.084 4.87 -0.268 3.75 0.219 2.89 C 0.706 2.028 1.846 1.75 2.766 2.27 L 2.766 2.269 Z M 3.308 4.144 C 2.825 4.633 2.552 5.292 2.548 5.979 C 2.548 6.683 2.848 7.354 3.308 7.813 C 3.768 8.273 4.438 8.573 5.142 8.573 C 5.352 8.573 5.56 8.546 5.76 8.497 C 5.733 8.719 5.827 8.939 6.006 9.073 C 6.143 9.171 6.348 9.235 6.565 9.271 C 6.661 9.286 6.765 9.298 6.875 9.306 L 6.875 10.13 C 6.883 10.261 6.935 10.386 7.022 10.485 C 7.103 10.565 7.252 10.624 7.377 10.631 L 8.527 10.631 C 8.658 10.623 8.782 10.571 8.881 10.485 C 8.968 10.386 9.02 10.261 9.028 10.13 L 9.028 9.306 C 9.174 9.294 9.312 9.276 9.433 9.252 C 9.623 9.212 9.807 9.144 9.926 9.046 C 10.098 8.897 10.176 8.667 10.129 8.444 C 10.272 8.47 10.419 8.484 10.569 8.484 C 11.248 8.484 11.896 8.194 12.339 7.75 C 12.806 7.278 13.07 6.642 13.074 5.978 C 13.074 5.299 12.784 4.651 12.34 4.207 C 11.868 3.74 11.232 3.477 10.568 3.473 C 9.888 3.473 9.24 3.763 8.797 4.207 C 8.33 4.679 8.067 5.314 8.063 5.978 C 8.063 6.301 8.128 6.617 8.244 6.907 C 8.015 6.867 7.78 6.873 7.554 6.927 C 7.671 6.63 7.737 6.308 7.737 5.979 C 7.737 5.275 7.437 4.604 6.977 4.144 C 6.488 3.661 5.829 3.388 5.142 3.384 C 4.438 3.384 3.767 3.684 3.308 4.144 Z M 13.965 3.944 C 14.055 3.849 14.148 3.774 14.238 3.714 C 14.778 3.682 14.955 4.074 14.955 4.074 C 15.011 4.099 15.077 4.09 15.125 4.052 C 15.173 4.014 15.196 3.952 15.185 3.892 C 15.092 3.752 15.01 3.671 14.944 3.587 C 14.909 3.559 14.871 3.534 14.831 3.513 C 14.917 3.507 15.004 3.514 15.088 3.534 C 15.207 3.482 15.225 3.322 15.121 3.245 C 15.119 3.243 15.116 3.242 15.114 3.24 C 14.952 3.205 14.809 3.21 14.619 3.208 C 14.401 3.241 14.076 3.371 13.726 3.686 C 13.631 3.782 13.675 3.946 13.806 3.98 C 13.862 3.995 13.921 3.981 13.965 3.944 Z M 2.135 3.998 C 2.2 3.927 2.196 3.816 2.125 3.75 C 1.775 3.435 1.45 3.305 1.232 3.272 C 1.066 3.242 0.952 3.267 0.737 3.304 C 0.629 3.376 0.639 3.537 0.755 3.594 C 0.758 3.596 0.76 3.597 0.763 3.598 C 0.763 3.598 0.863 3.568 1.02 3.578 C 0.98 3.599 0.942 3.623 0.907 3.651 C 0.811 3.745 0.736 3.868 0.666 3.956 C 0.655 4.016 0.678 4.078 0.726 4.116 C 0.774 4.154 0.84 4.163 0.896 4.138 C 0.896 4.138 1.072 3.746 1.613 3.779 C 1.703 3.838 1.795 3.913 1.886 4.008 C 1.957 4.073 2.068 4.069 2.134 3.998 L 2.135 3.998 Z" fill="#2e3436"/>
  <path d="M 9.363 8.909 C 9.206 8.939 9.046 8.957 8.886 8.964 C 8.242 8.993 7.642 8.976 7.024 8.965 C 6.889 8.959 6.754 8.946 6.621 8.925 C 6.429 8.895 6.303 8.855 6.211 8.788 C 6.126 8.728 6.105 8.692 6.105 8.58 C 6.105 8.431 6.166 8.32 6.315 8.185 C 6.472 8.045 6.597 7.98 6.796 7.903 C 6.867 8.053 6.918 8.153 7.132 8.287 C 7.34 8.417 7.644 8.502 7.949 8.502 C 8.253 8.502 8.557 8.416 8.765 8.287 C 8.92 8.203 9.039 8.067 9.102 7.903 C 9.301 7.98 9.426 8.045 9.582 8.185 C 9.731 8.321 9.792 8.431 9.792 8.58 C 9.792 8.683 9.775 8.717 9.704 8.775 C 9.627 8.837 9.526 8.877 9.363 8.909 Z M 7.225 9.324 L 7.227 10.131 C 7.219 10.185 7.232 10.199 7.27 10.236 C 7.307 10.273 7.322 10.289 7.377 10.281 L 8.525 10.281 C 8.58 10.289 8.595 10.273 8.633 10.236 C 8.67 10.199 8.685 10.186 8.678 10.131 L 8.678 9.324 L 7.225 9.324 Z M 12.234 5.487 C 12.059 5.319 11.828 5.224 11.586 5.219 C 11.344 5.224 11.113 5.319 10.938 5.487 C 10.77 5.662 10.675 5.893 10.67 6.135 C 10.67 6.375 10.782 6.627 10.938 6.783 C 11.113 6.951 11.344 7.046 11.586 7.051 C 11.826 7.051 12.078 6.939 12.234 6.783 C 12.402 6.608 12.497 6.377 12.502 6.135 C 12.497 5.893 12.402 5.662 12.234 5.487 Z M 6.944 5.487 C 6.769 5.319 6.538 5.224 6.296 5.219 C 6.054 5.224 5.823 5.319 5.648 5.487 C 5.48 5.662 5.385 5.893 5.38 6.135 C 5.38 6.375 5.492 6.627 5.648 6.783 C 5.823 6.951 6.054 7.046 6.296 7.051 C 6.536 7.051 6.788 6.939 6.944 6.783 C 7.112 6.609 7.208 6.377 7.213 6.135 C 7.208 5.893 7.112 5.661 6.944 5.487 Z" fill="#2e3436"/>
</svg>
