<?xml version="1.0" encoding="UTF-8" standalone="no"?>
<!-- Created with Inkscape (http://www.inkscape.org/) -->
<svg height="16" width="16.000002" xmlns="http://www.w3.org/2000/svg" xmlns:svg="http://www.w3.org/2000/svg" xmlns:rdf="http://www.w3.org/1999/02/22-rdf-syntax-ns#" xmlns:cc="http://creativecommons.org/ns#" xmlns:dc="http://purl.org/dc/elements/1.1/">
    <filter id="a" height="100%" width="100%" x="0%" y="0%">
        <feColorMatrix in="SourceGraphic" type="matrix" values="0 0 0 0 1 0 0 0 0 1 0 0 0 0 1 0 0 0 1 0"/>
    </filter>
    <mask id="b">
        <g filter="url(#a)">
            <path d="m 0 0 h 16 v 16 h -16 z" fill-opacity="0.3"/>
        </g>
    </mask>
    <clipPath id="c">
        <path d="m 0 0 h 800 v 800 h -800 z"/>
    </clipPath>
    <mask id="d">
        <g filter="url(#a)">
            <path d="m 0 0 h 16 v 16 h -16 z" fill-opacity="0.35"/>
        </g>
    </mask>
    <clipPath id="e">
        <path d="m 0 0 h 800 v 800 h -800 z"/>
    </clipPath>
    <mask id="f">
        <g filter="url(#a)">
            <path d="m 0 0 h 16 v 16 h -16 z" fill-opacity="0.35"/>
        </g>
    </mask>
    <clipPath id="g">
        <path d="m 0 0 h 800 v 800 h -800 z"/>
    </clipPath>
    <mask id="h">
        <g filter="url(#a)">
            <path d="m 0 0 h 16 v 16 h -16 z" fill-opacity="0.35"/>
        </g>
    </mask>
    <clipPath id="i">
        <path d="m 0 0 h 800 v 800 h -800 z"/>
    </clipPath>
    <mask id="j">
        <g filter="url(#a)">
            <path d="m 0 0 h 16 v 16 h -16 z" fill-opacity="0.35"/>
        </g>
    </mask>
    <clipPath id="k">
        <path d="m 0 0 h 800 v 800 h -800 z"/>
    </clipPath>
    <g clip-path="url(#c)" mask="url(#b)" transform="matrix(1 0 0 1 -140 -600)">
        <path d="m 142.5 351 h 10.449219 c -1.183594 0.492188 -1.296875 2.457031 0 3 h -10.449219 z m 0 0" fill="#2e3436"/>
    </g>
    <g clip-path="url(#e)" mask="url(#d)" transform="matrix(1 0 0 1 -140 -600)">
        <path d="m 104 502 c 0 0.550781 -0.449219 1 -1 1 s -1 -0.449219 -1 -1 s 0.449219 -1 1 -1 s 1 0.449219 1 1 z m 0 0" fill="#2e3436"/>
    </g>
    <g clip-path="url(#g)" mask="url(#f)" transform="matrix(1 0 0 1 -140 -600)">
        <path d="m 106 501 v 2 h 8 v -2 z m 0 0" fill="#2e3436" fill-rule="evenodd"/>
    </g>
    <g clip-path="url(#i)" mask="url(#h)" transform="matrix(1 0 0 1 -140 -600)">
        <path d="m 104 514 c 0 0.550781 -0.449219 1 -1 1 s -1 -0.449219 -1 -1 s 0.449219 -1 1 -1 s 1 0.449219 1 1 z m 0 0" fill="#2e3436"/>
    </g>
    <g clip-path="url(#k)" mask="url(#j)" transform="matrix(1 0 0 1 -140 -600)">
        <path d="m 106 513 v 2 h 8 v -2 z m 0 0" fill="#2e3436" fill-rule="evenodd"/>
    </g>
    <g fill="#2e3436" fill-rule="evenodd">
        <path d="m 8.804228 7.707065 c 0.004 0.26 -0.397 0.444 -0.855 0.444 c -0.459 0 -0.862 -0.171 -0.866 -0.444 s 0.422 -0.476 0.866 -0.476 c 0.443 0 0.851 0.215 0.855 0.476 z"/>
        <path d="m 2.766228 2.269065 c 0.168 0.095 0.317 0.21 0.446 0.34 c 0.918 -0.668 2.015 -1.047 3.15 -1.087 c 0.554 -0.02 1.107 -0.04 1.66 -0.045 c 0.554 -0.005 1.108 0.006 1.662 0.045 c 1.112 0.072 2.181 0.455 3.085 1.106 c 0.137 -0.142 0.293 -0.263 0.465 -0.36 c 0.92 -0.519 2.06 -0.241 2.547 0.62 c 0.486 0.862 0.135 1.982 -0.785 2.502 c -0.069 0.039 -0.141 0.074 -0.214 0.105 c 0.133 0.47 0.204 0.968 0.204 1.489 l 0.019 7.54 l -14.038 -0.02 v -7.52 c 0 -0.524 0.075 -1.029 0.213 -1.505 c -0.06 -0.027 -0.119 -0.057 -0.176 -0.09 c -0.92 -0.519 -1.272 -1.639 -0.785 -2.499 c 0.487 -0.862 1.627 -1.14 2.547 -0.62 z m 0.542 1.875 c -0.483 0.489 -0.756 1.148 -0.76 1.835 c 0 0.704 0.3 1.375 0.76 1.834 c 0.46 0.46 1.13 0.76 1.834 0.76 c 0.21 0 0.418 -0.027 0.618 -0.076 c -0.027 0.222 0.067 0.442 0.246 0.576 c 0.137 0.098 0.342 0.162 0.559 0.198 c 0.096 0.015 0.2 0.027 0.31 0.035 v 0.824 c 0.008 0.131 0.06 0.256 0.147 0.355 c 0.081 0.08 0.23 0.139 0.355 0.146 h 1.15 c 0.131 -0.008 0.255 -0.06 0.354 -0.146 c 0.087 -0.099 0.139 -0.224 0.147 -0.355 v -0.824 c 0.146 -0.012 0.284 -0.03 0.405 -0.054 c 0.19 -0.04 0.374 -0.108 0.493 -0.206 c 0.172 -0.149 0.25 -0.379 0.203 -0.602 c 0.143 0.026 0.29 0.04 0.44 0.04 c 0.679 0 1.327 -0.29 1.77 -0.734 c 0.467 -0.472 0.731 -1.108 0.735 -1.772 c 0 -0.679 -0.29 -1.327 -0.734 -1.771 c -0.472 -0.467 -1.108 -0.73 -1.772 -0.734 c -0.68 0 -1.328 0.29 -1.771 0.734 c -0.467 0.472 -0.73 1.107 -0.734 1.771 c 0 0.323 0.065 0.639 0.181 0.929 c -0.229 -0.04 -0.464 -0.034 -0.69 0.02 c 0.117 -0.297 0.183 -0.619 0.183 -0.948 c 0 -0.704 -0.3 -1.375 -0.76 -1.835 c -0.489 -0.483 -1.148 -0.756 -1.835 -0.76 c -0.704 0 -1.375 0.3 -1.834 0.76 z m 10.657 -0.2 c 0.09 -0.095 0.183 -0.17 0.273 -0.23 c 0.54 -0.032 0.717 0.36 0.717 0.36 c 0.056 0.025 0.122 0.016 0.17 -0.022 s 0.071 -0.1 0.06 -0.16 c -0.093 -0.14 -0.175 -0.221 -0.241 -0.305 c -0.035 -0.028 -0.073 -0.053 -0.113 -0.074 c 0.086 -0.006 0.173 0.001 0.257 0.021 c 0.119 -0.052 0.137 -0.212 0.033 -0.289 c -0.002 -0.002 -0.005 -0.003 -0.007 -0.005 c -0.162 -0.035 -0.305 -0.03 -0.495 -0.032 c -0.218 0.033 -0.543 0.163 -0.893 0.478 c -0.095 0.096 -0.051 0.26 0.08 0.294 c 0.056 0.015 0.115 0.001 0.159 -0.036 z m -11.83 0.054 c 0.065 -0.071 0.061 -0.182 -0.01 -0.248 c -0.35 -0.315 -0.675 -0.445 -0.893 -0.478 c -0.166 -0.03 -0.28 -0.005 -0.495 0.032 c -0.108 0.072 -0.098 0.233 0.018 0.29 c 0.003 0.002 0.005 0.003 0.008 0.004 c 0 0 0.1 -0.03 0.257 -0.02 c -0.04 0.021 -0.078 0.045 -0.113 0.073 c -0.096 0.094 -0.171 0.217 -0.241 0.305 c -0.011 0.06 0.012 0.122 0.06 0.16 s 0.114 0.047 0.17 0.022 c 0 0 0.176 -0.392 0.717 -0.359 c 0.09 0.059 0.182 0.134 0.273 0.229 c 0.071 0.065 0.182 0.061 0.248 -0.01 z"/>
        <path d="m 9.363228 8.909065 c -0.157 0.03 -0.317 0.048 -0.477 0.055 c -0.644 0.029 -1.244 0.012 -1.862 0.001 c -0.135 -0.006 -0.27 -0.019 -0.403 -0.04 c -0.192 -0.03 -0.318 -0.07 -0.41 -0.137 c -0.085 -0.06 -0.106 -0.096 -0.106 -0.208 c 0 -0.149 0.061 -0.26 0.21 -0.395 c 0.157 -0.14 0.282 -0.205 0.481 -0.282 c 0.071 0.15 0.122 0.25 0.336 0.384 c 0.208 0.13 0.512 0.215 0.817 0.215 c 0.304 0 0.608 -0.086 0.816 -0.215 c 0.155 -0.084 0.274 -0.22 0.337 -0.384 c 0.199 0.077 0.324 0.142 0.48 0.282 c 0.149 0.136 0.21 0.246 0.21 0.395 c 0 0.103 -0.017 0.137 -0.088 0.195 c -0.077 0.062 -0.178 0.102 -0.341 0.134 z m -2.138 0.415 l 0.002 0.807 c -0.008 0.054 0.005 0.068 0.043 0.105 c 0.037 0.037 0.052 0.053 0.107 0.045 h 1.148 c 0.055 0.008 0.07 -0.008 0.108 -0.045 c 0.037 -0.037 0.052 -0.05 0.045 -0.105 v -0.807 z m 5.009 -3.837 c -0.175 -0.168 -0.406 -0.263 -0.648 -0.268 c -0.242 0.005 -0.473 0.1 -0.648 0.268 c -0.168 0.175 -0.263 0.406 -0.268 0.648 c 0 0.24 0.112 0.492 0.268 0.648 c 0.175 0.168 0.406 0.263 0.648 0.268 c 0.24 0 0.492 -0.112 0.648 -0.268 c 0.168 -0.175 0.263 -0.406 0.268 -0.648 c -0.005 -0.242 -0.1 -0.473 -0.268 -0.648 z m -5.29 0 c -0.175 -0.168 -0.406 -0.263 -0.648 -0.268 c -0.242 0.005 -0.473 0.1 -0.648 0.268 c -0.168 0.175 -0.263 0.406 -0.268 0.648 c 0 0.24 0.112 0.492 0.268 0.648 c 0.175 0.168 0.406 0.263 0.648 0.268 c 0.24 0 0.492 -0.112 0.648 -0.268 c 0.168 -0.174 0.264 -0.406 0.269 -0.648 c -0.005 -0.242 -0.101 -0.474 -0.269 -0.648 z"/>
    </g>
</svg>
