<svg xmlns="http://www.w3.org/2000/svg" width="16" height="16"><path d="M70.014 323v2h1v6h-1v2h1c.833 0 1.525-.564 1.77-1.053.243-.488.23-.947.23-.947v-2h1a1 1 0 0 0 0-2h-1v-2s.013-.459-.23-.947c-.245-.489-.937-1.053-1.77-1.053ZM65 323c-.833 0-1.525.564-1.77 1.053-.244.488-.23.947-.23.947v2h-1a1 1 0 0 0 0 2h1v2s-.014.459.23.947c.245.489.937 1.053 1.77 1.053h1v-2h-1v-6h1v-2z" style="color:#000;font-style:normal;font-variant:normal;font-weight:400;font-stretch:normal;font-size:medium;line-height:normal;font-family:sans-serif;font-variant-ligatures:normal;font-variant-position:normal;font-variant-caps:normal;font-variant-numeric:normal;font-variant-alternates:normal;font-feature-settings:normal;text-indent:0;text-align:start;text-decoration:none;text-decoration-line:none;text-decoration-style:solid;text-decoration-color:#000;letter-spacing:normal;word-spacing:normal;text-transform:none;writing-mode:lr-tb;direction:ltr;text-orientation:mixed;dominant-baseline:auto;baseline-shift:baseline;text-anchor:start;white-space:normal;shape-padding:0;clip-rule:nonzero;display:inline;overflow:visible;visibility:visible;opacity:1;isolation:auto;mix-blend-mode:normal;color-interpolation:sRGB;color-interpolation-filters:linearRGB;solid-color:#000;solid-opacity:1;vector-effect:none;fill:#2e3436;fill-opacity:1;fill-rule:evenodd;stroke:none;stroke-width:2;stroke-linecap:butt;stroke-linejoin:round;stroke-miterlimit:4;stroke-dasharray:none;stroke-dashoffset:0;stroke-opacity:1;color-rendering:auto;image-rendering:auto;shape-rendering:auto;text-rendering:auto;enable-background:accumulate" transform="translate(-60 -320)"/></svg>