<?xml version="1.0" encoding="UTF-8" standalone="no"?>
<svg
   height="16px"
   viewBox="0 0 16 16"
   width="16px"
   version="1.1"
   id="svg17"
   sodipodi:docname="text-arduino-symbolic.svg"
   inkscape:version="1.4 (e7c3feb100, 2024-10-09)"
   xmlns:inkscape="http://www.inkscape.org/namespaces/inkscape"
   xmlns:sodipodi="http://sodipodi.sourceforge.net/DTD/sodipodi-0.dtd"
   xmlns="http://www.w3.org/2000/svg"
   xmlns:svg="http://www.w3.org/2000/svg">
  <defs
     id="defs17" />
  <sodipodi:namedview
     id="namedview17"
     pagecolor="#ffffff"
     bordercolor="#000000"
     borderopacity="0.25"
     inkscape:showpageshadow="2"
     inkscape:pageopacity="0.0"
     inkscape:pagecheckerboard="0"
     inkscape:deskcolor="#d1d1d1"
     showgrid="true"
     inkscape:zoom="45.254834"
     inkscape:cx="9.4354561"
     inkscape:cy="7.9218056"
     inkscape:window-width="1920"
     inkscape:window-height="1011"
     inkscape:window-x="0"
     inkscape:window-y="0"
     inkscape:window-maximized="1"
     inkscape:current-layer="g17">
    <inkscape:grid
       id="grid17"
       units="px"
       originx="0"
       originy="0"
       spacingx="1"
       spacingy="1"
       empcolor="#0099e5"
       empopacity="0.30196078"
       color="#0099e5"
       opacity="0.14901961"
       empspacing="5"
       enabled="true"
       visible="true" />
  </sodipodi:namedview>
  <filter
     id="a"
     height="1"
     width="1"
     x="0"
     y="0">
    <feColorMatrix
       in="SourceGraphic"
       type="matrix"
       values="0 0 0 0 1 0 0 0 0 1 0 0 0 0 1 0 0 0 1 0"
       id="feColorMatrix1" />
  </filter>
  <mask
     id="b">
    <g
       filter="url(#a)"
       id="g1">
      <path
         d="m 0 0 h 16 v 16 h -16 z"
         fill-opacity="0.3"
         id="path1" />
    </g>
  </mask>
  <clipPath
     id="c">
    <path
       d="m 0 0 h 800 v 800 h -800 z"
       id="path2" />
  </clipPath>
  <mask
     id="d">
    <g
       filter="url(#a)"
       id="g3">
      <path
         d="m 0 0 h 16 v 16 h -16 z"
         fill-opacity="0.35"
         id="path3" />
    </g>
  </mask>
  <clipPath
     id="e">
    <path
       d="m 0 0 h 800 v 800 h -800 z"
       id="path4" />
  </clipPath>
  <mask
     id="f">
    <g
       filter="url(#a)"
       id="g5">
      <path
         d="m 0 0 h 16 v 16 h -16 z"
         fill-opacity="0.35"
         id="path5" />
    </g>
  </mask>
  <clipPath
     id="g">
    <path
       d="m 0 0 h 800 v 800 h -800 z"
       id="path6" />
  </clipPath>
  <mask
     id="h">
    <g
       filter="url(#a)"
       id="g7">
      <path
         d="m 0 0 h 16 v 16 h -16 z"
         fill-opacity="0.35"
         id="path7" />
    </g>
  </mask>
  <clipPath
     id="i">
    <path
       d="m 0 0 h 800 v 800 h -800 z"
       id="path8" />
  </clipPath>
  <mask
     id="j">
    <g
       filter="url(#a)"
       id="g9">
      <path
         d="m 0 0 h 16 v 16 h -16 z"
         fill-opacity="0.35"
         id="path9" />
    </g>
  </mask>
  <clipPath
     id="k">
    <path
       d="m 0 0 h 800 v 800 h -800 z"
       id="path10" />
  </clipPath>
  <g
     clip-path="url(#c)"
     mask="url(#b)"
     transform="matrix(1 0 0 1 -240 -600)"
     id="g11">
    <path
       d="m 142.5 351 h 10.449219 c -1.183594 0.492188 -1.296875 2.457031 0 3 h -10.449219 z m 0 0"
       fill="#2e3436"
       id="path11" />
  </g>
  <g
     clip-path="url(#e)"
     mask="url(#d)"
     transform="matrix(1 0 0 1 -240 -600)"
     id="g12">
    <path
       d="m 104 502 c 0 0.550781 -0.449219 1 -1 1 s -1 -0.449219 -1 -1 s 0.449219 -1 1 -1 s 1 0.449219 1 1 z m 0 0"
       fill="#2e3436"
       id="path12" />
  </g>
  <g
     clip-path="url(#g)"
     mask="url(#f)"
     transform="matrix(1 0 0 1 -240 -600)"
     id="g13">
    <path
       d="m 106 501 v 2 h 8 v -2 z m 0 0"
       fill="#2e3436"
       fill-rule="evenodd"
       id="path13" />
  </g>
  <g
     clip-path="url(#i)"
     mask="url(#h)"
     transform="matrix(1 0 0 1 -240 -600)"
     id="g14">
    <path
       d="m 104 514 c 0 0.550781 -0.449219 1 -1 1 s -1 -0.449219 -1 -1 s 0.449219 -1 1 -1 s 1 0.449219 1 1 z m 0 0"
       fill="#2e3436"
       id="path14" />
  </g>
  <g
     clip-path="url(#k)"
     mask="url(#j)"
     transform="matrix(1 0 0 1 -240 -600)"
     id="g15">
    <path
       d="m 106 513 v 2 h 8 v -2 z m 0 0"
       fill="#2e3436"
       fill-rule="evenodd"
       id="path15" />
  </g>
  <g
     fill="#2e3436"
     id="g17">
    <path
       d="M 3,7 V 9 H 6 V 7 Z"
       id="path16"
       sodipodi:nodetypes="ccccc"
       style="stroke-width:1.06066" />
    <path
       d="m 10,7 v 2 h 3 V 7 Z"
       id="path16-6"
       sodipodi:nodetypes="ccccc"
       style="stroke-width:1.06066" />
    <path
       d="m 12,6 h -1 v 4 h 1 z"
       id="path16-6-6"
       sodipodi:nodetypes="ccccc"
       style="stroke-width:0.866022" />
    <path
       style="fill:none;fill-rule:evenodd;stroke:#2e3434;stroke-width:2;stroke-linecap:round;stroke-linejoin:round;stroke-dasharray:none"
       d="m 0.98281201,8.0000003 c 0,-2.6627443 1.51172709,-3.9941166 3.00733049,-3.9941166 3.0073305,0 4.009774,3.9941166 4.009774,3.9941166 0,0 1.0024434,-3.9941166 4.0097735,-3.9941166 1.573955,0 2.987744,1.331499 3.00733,3.9941166 0.01959,2.6627437 -1.531313,3.9941157 -3.00733,3.9941157 -3.0073301,0 -4.0097735,-3.9941157 -4.0097735,-3.9941157 0,0 -1.0024435,3.9941157 -4.009774,3.9941157 -1.5151911,0 -3.00733049,-1.331372 -3.00733049,-3.9941157 z"
       id="path18"
       sodipodi:nodetypes="sscssscss" />
  </g>
</svg>
