<?xml version="1.0" encoding="UTF-8"?>
<svg height="16px" viewBox="0 0 16 16" width="16px" xmlns="http://www.w3.org/2000/svg" xmlns:xlink="http://www.w3.org/1999/xlink">
    <filter id="a" height="100%" width="100%" x="0%" y="0%">
        <feColorMatrix in="SourceGraphic" type="matrix" values="0 0 0 0 1 0 0 0 0 1 0 0 0 0 1 0 0 0 1 0"/>
    </filter>
    <mask id="b">
        <g filter="url(#a)">
            <path d="m 0 0 h 16 v 16 h -16 z" fill-opacity="0.3"/>
        </g>
    </mask>
    <clipPath id="c">
        <path d="m 0 0 h 800 v 800 h -800 z"/>
    </clipPath>
    <mask id="d">
        <g filter="url(#a)">
            <path d="m 0 0 h 16 v 16 h -16 z" fill-opacity="0.35"/>
        </g>
    </mask>
    <clipPath id="e">
        <path d="m 0 0 h 800 v 800 h -800 z"/>
    </clipPath>
    <mask id="f">
        <g filter="url(#a)">
            <path d="m 0 0 h 16 v 16 h -16 z" fill-opacity="0.35"/>
        </g>
    </mask>
    <clipPath id="g">
        <path d="m 0 0 h 800 v 800 h -800 z"/>
    </clipPath>
    <mask id="h">
        <g filter="url(#a)">
            <path d="m 0 0 h 16 v 16 h -16 z" fill-opacity="0.35"/>
        </g>
    </mask>
    <clipPath id="i">
        <path d="m 0 0 h 800 v 800 h -800 z"/>
    </clipPath>
    <mask id="j">
        <g filter="url(#a)">
            <path d="m 0 0 h 16 v 16 h -16 z" fill-opacity="0.35"/>
        </g>
    </mask>
    <clipPath id="k">
        <path d="m 0 0 h 800 v 800 h -800 z"/>
    </clipPath>
    <g clip-path="url(#c)" mask="url(#b)" transform="matrix(1 0 0 1 -160 -620)">
        <path d="m 142.5 351 h 10.449219 c -1.183594 0.492188 -1.296875 2.457031 0 3 h -10.449219 z m 0 0" fill="#2e3436"/>
    </g>
    <g clip-path="url(#e)" mask="url(#d)" transform="matrix(1 0 0 1 -160 -620)">
        <path d="m 104 502 c 0 0.550781 -0.449219 1 -1 1 s -1 -0.449219 -1 -1 s 0.449219 -1 1 -1 s 1 0.449219 1 1 z m 0 0" fill="#2e3436"/>
    </g>
    <g clip-path="url(#g)" mask="url(#f)" transform="matrix(1 0 0 1 -160 -620)">
        <path d="m 106 501 v 2 h 8 v -2 z m 0 0" fill="#2e3436" fill-rule="evenodd"/>
    </g>
    <g clip-path="url(#i)" mask="url(#h)" transform="matrix(1 0 0 1 -160 -620)">
        <path d="m 104 514 c 0 0.550781 -0.449219 1 -1 1 s -1 -0.449219 -1 -1 s 0.449219 -1 1 -1 s 1 0.449219 1 1 z m 0 0" fill="#2e3436"/>
    </g>
    <g clip-path="url(#k)" mask="url(#j)" transform="matrix(1 0 0 1 -160 -620)">
        <path d="m 106 513 v 2 h 8 v -2 z m 0 0" fill="#2e3436" fill-rule="evenodd"/>
    </g>
    <g fill="#2e3436">
        <path d="m 8 0 c -1.792969 0 -3.421875 0.351562 -4.6875 0.984375 c -1.269531 0.632813 -2.3125 1.648437 -2.3125 3.015625 s 1.042969 2.382812 2.3125 3.015625 c 1.265625 0.632813 2.894531 0.984375 4.6875 0.984375 s 3.421875 -0.351562 4.6875 -0.984375 c 1.269531 -0.632813 2.3125 -1.648437 2.3125 -3.015625 s -1.042969 -2.382812 -2.3125 -3.015625 c -1.265625 -0.632813 -2.894531 -0.984375 -4.6875 -0.984375 z m 0 2 c 1.523438 0 2.890625 0.320312 3.792969 0.773438 c 0.90625 0.453124 1.207031 0.9375 1.207031 1.226562 s -0.300781 0.773438 -1.207031 1.226562 c -0.902344 0.453126 -2.269531 0.773438 -3.792969 0.773438 s -2.890625 -0.320312 -3.792969 -0.773438 c -0.90625 -0.453124 -1.207031 -0.9375 -1.207031 -1.226562 s 0.300781 -0.773438 1.207031 -1.226562 c 0.902344 -0.453126 2.269531 -0.773438 3.792969 -0.773438 z m 0 0"/>
        <path d="m 1 8 c 0 0.890625 0.480469 1.679688 1.148438 2.257812 c 0.667968 0.574219 1.539062 1.003907 2.574218 1.300782 c 2.066406 0.597656 4.488282 0.597656 6.554688 0 c 1.035156 -0.296875 1.90625 -0.726563 2.574218 -1.300782 c 0.667969 -0.578124 1.148438 -1.367187 1.148438 -2.257812 h -2 c 0 0.179688 -0.089844 0.425781 -0.457031 0.742188 c -0.371094 0.320312 -0.996094 0.65625 -1.820313 0.894531 c -1.644531 0.476562 -3.800781 0.476562 -5.445312 0 c -0.824219 -0.238281 -1.449219 -0.574219 -1.820313 -0.894531 c -0.367187 -0.316407 -0.457031 -0.5625 -0.457031 -0.742188 z m 0 0"/>
        <path d="m 1 12 c 0 0.890625 0.480469 1.679688 1.148438 2.257812 c 0.667968 0.574219 1.539062 1.003907 2.574218 1.300782 c 2.066406 0.597656 4.488282 0.597656 6.554688 0 c 1.035156 -0.296875 1.90625 -0.726563 2.574218 -1.300782 c 0.667969 -0.578124 1.148438 -1.367187 1.148438 -2.257812 h -2 c 0 0.179688 -0.089844 0.425781 -0.457031 0.742188 c -0.371094 0.320312 -0.996094 0.65625 -1.820313 0.894531 c -1.644531 0.476562 -3.800781 0.476562 -5.445312 0 c -0.824219 -0.238281 -1.449219 -0.574219 -1.820313 -0.894531 c -0.367187 -0.316407 -0.457031 -0.5625 -0.457031 -0.742188 z m 0 0"/>
        <path d="m 1 4 v 8 h 2 v -8 z m 0 0" fill-rule="evenodd"/>
        <path d="m 13 4 v 8 h 2 v -8 z m 0 0" fill-rule="evenodd"/>
    </g>
</svg>
