<svg xmlns="http://www.w3.org/2000/svg" width="16" height="16">
    <path d="M8 1s-1.275-.006-2.53.777C4.218 2.561 3 4.233 3 7v2c0 2.767 1.217 4.439 2.47 5.223C6.726 15.006 8 15 8 15c3.667 0 4.95-3.684 4.95-3.684a1 1 0 1 0-1.9-.632S10.334 13 8 13c0 0-.725-.006-1.47-.473C5.782 12.061 5 11.233 5 9V7c0-2.233.783-3.061 1.53-3.527C7.274 3.006 8 3 8 3c2.333 0 3.05 2.316 3.05 2.316a1 1 0 1 0 1.9-.632S11.666 1 8 1z" style="line-height:normal;font-variant-ligatures:normal;font-variant-position:normal;font-variant-caps:normal;font-variant-numeric:normal;font-variant-alternates:normal;font-feature-settings:normal;text-indent:0;text-align:start;text-decoration-line:none;text-decoration-style:solid;text-decoration-color:#000;text-transform:none;text-orientation:mixed;shape-padding:0;isolation:auto;mix-blend-mode:normal" color="#000" font-weight="400" font-family="sans-serif" white-space="normal" overflow="visible" fill="#2e3436" fill-rule="evenodd"/>
</svg>
