<svg xmlns="http://www.w3.org/2000/svg" width="16" height="16"><path d="M148 321s-1.275-.006-2.53.777c-1.253.784-2.47 2.456-2.47 5.223v2c0 2.767 1.217 4.439 2.47 5.223 1.255.783 2.53.777 2.53.777 3.667 0 4.95-3.684 4.95-3.684a1 1 0 1 0-1.9-.632S150.334 333 148 333c0 0-.725-.006-1.47-.473-.747-.466-1.53-1.294-1.53-3.527v-2c0-2.233.783-3.061 1.53-3.527.745-.467 1.47-.473 1.47-.473 2.333 0 3.05 2.316 3.05 2.316a1 1 0 1 0 1.9-.632S151.666 321 148 321z" style="color:#000;font-style:normal;font-variant:normal;font-weight:400;font-stretch:normal;font-size:medium;line-height:normal;font-family:sans-serif;font-variant-ligatures:normal;font-variant-position:normal;font-variant-caps:normal;font-variant-numeric:normal;font-variant-alternates:normal;font-feature-settings:normal;text-indent:0;text-align:start;text-decoration:none;text-decoration-line:none;text-decoration-style:solid;text-decoration-color:#000;letter-spacing:normal;word-spacing:normal;text-transform:none;writing-mode:lr-tb;direction:ltr;text-orientation:mixed;dominant-baseline:auto;baseline-shift:baseline;text-anchor:start;white-space:normal;shape-padding:0;clip-rule:nonzero;display:inline;overflow:visible;visibility:visible;opacity:1;isolation:auto;mix-blend-mode:normal;color-interpolation:sRGB;color-interpolation-filters:linearRGB;solid-color:#000;solid-opacity:1;vector-effect:none;fill:#2e3436;fill-opacity:1;fill-rule:evenodd;stroke:none;stroke-width:1.99999952px;stroke-linecap:round;stroke-linejoin:miter;stroke-miterlimit:4;stroke-dasharray:none;stroke-dashoffset:0;stroke-opacity:1;color-rendering:auto;image-rendering:auto;shape-rendering:auto;text-rendering:auto;enable-background:accumulate" transform="translate(-140 -320)"/></svg>