<?xml version="1.0" encoding="UTF-8"?>
<svg height="16px" viewBox="0 0 16 16" width="16px" xmlns="http://www.w3.org/2000/svg" xmlns:xlink="http://www.w3.org/1999/xlink">
    <filter id="a" height="100%" width="100%" x="0%" y="0%">
        <feColorMatrix in="SourceGraphic" type="matrix" values="0 0 0 0 1 0 0 0 0 1 0 0 0 0 1 0 0 0 1 0"/>
    </filter>
    <mask id="b">
        <g filter="url(#a)">
            <path d="m 0 0 h 16 v 16 h -16 z" fill-opacity="0.3"/>
        </g>
    </mask>
    <clipPath id="c">
        <path d="m 0 0 h 800 v 800 h -800 z"/>
    </clipPath>
    <mask id="d">
        <g filter="url(#a)">
            <path d="m 0 0 h 16 v 16 h -16 z" fill-opacity="0.35"/>
        </g>
    </mask>
    <clipPath id="e">
        <path d="m 0 0 h 800 v 800 h -800 z"/>
    </clipPath>
    <mask id="f">
        <g filter="url(#a)">
            <path d="m 0 0 h 16 v 16 h -16 z" fill-opacity="0.35"/>
        </g>
    </mask>
    <clipPath id="g">
        <path d="m 0 0 h 800 v 800 h -800 z"/>
    </clipPath>
    <mask id="h">
        <g filter="url(#a)">
            <path d="m 0 0 h 16 v 16 h -16 z" fill-opacity="0.35"/>
        </g>
    </mask>
    <clipPath id="i">
        <path d="m 0 0 h 800 v 800 h -800 z"/>
    </clipPath>
    <mask id="j">
        <g filter="url(#a)">
            <path d="m 0 0 h 16 v 16 h -16 z" fill-opacity="0.35"/>
        </g>
    </mask>
    <clipPath id="k">
        <path d="m 0 0 h 800 v 800 h -800 z"/>
    </clipPath>
    <g clip-path="url(#c)" mask="url(#b)" transform="matrix(1 0 0 1 -100 -620)">
        <path d="m 142.5 351 h 10.449219 c -1.183594 0.492188 -1.296875 2.457031 0 3 h -10.449219 z m 0 0" fill="#2e3436"/>
    </g>
    <g clip-path="url(#e)" mask="url(#d)" transform="matrix(1 0 0 1 -100 -620)">
        <path d="m 104 502 c 0 0.550781 -0.449219 1 -1 1 s -1 -0.449219 -1 -1 s 0.449219 -1 1 -1 s 1 0.449219 1 1 z m 0 0" fill="#2e3436"/>
    </g>
    <g clip-path="url(#g)" mask="url(#f)" transform="matrix(1 0 0 1 -100 -620)">
        <path d="m 106 501 v 2 h 8 v -2 z m 0 0" fill="#2e3436" fill-rule="evenodd"/>
    </g>
    <g clip-path="url(#i)" mask="url(#h)" transform="matrix(1 0 0 1 -100 -620)">
        <path d="m 104 514 c 0 0.550781 -0.449219 1 -1 1 s -1 -0.449219 -1 -1 s 0.449219 -1 1 -1 s 1 0.449219 1 1 z m 0 0" fill="#2e3436"/>
    </g>
    <g clip-path="url(#k)" mask="url(#j)" transform="matrix(1 0 0 1 -100 -620)">
        <path d="m 106 513 v 2 h 8 v -2 z m 0 0" fill="#2e3436" fill-rule="evenodd"/>
    </g>
    <g fill="#2e3436">
        <path d="m 8 1 c -3.851562 0 -7 3.148438 -7 7 s 3.148438 7 7 7 s 7 -3.148438 7 -7 s -3.148438 -7 -7 -7 z m 0 2 c 2.769531 0 5 2.230469 5 5 s -2.230469 5 -5 5 s -5 -2.230469 -5 -5 s 2.230469 -5 5 -5 z m 0 0"/>
        <path d="m 8.90625 4.617188 c -0.679688 -0.179688 -1.414062 -0.15625 -2.105469 0.09375 c -1.378906 0.503906 -2.300781 1.820312 -2.300781 3.289062 s 0.921875 2.785156 2.300781 3.289062 c 1.382813 0.503907 2.9375 0.085938 3.878907 -1.039062 c 0.269531 -0.316406 0.226562 -0.789062 -0.089844 -1.054688 c -0.316406 -0.269531 -0.789063 -0.226562 -1.058594 0.089844 c -0.539062 0.644532 -1.421875 0.882813 -2.214844 0.597656 c -0.792968 -0.289062 -1.316406 -1.039062 -1.316406 -1.882812 s 0.523438 -1.589844 1.316406 -1.878906 c 0.792969 -0.289063 1.675782 -0.050782 2.214844 0.59375 c 0.269531 0.316406 0.742188 0.359375 1.058594 0.089844 c 0.316406 -0.265626 0.359375 -0.738282 0.089844 -1.054688 c -0.46875 -0.5625 -1.09375 -0.949219 -1.773438 -1.132812 z m 0 0"/>
    </g>
</svg>
