<svg xmlns="http://www.w3.org/2000/svg" width="16" height="16"><path d="M43.98 324.99a1 1 0 0 0-.687.303l-2 2a1 1 0 0 0 0 1.414l2 2a1 1 0 1 0 1.414-1.414L43.414 328l1.293-1.293a1 1 0 0 0-.727-1.717zM51.988 324.99a1 1 0 0 0-.693 1.719L52.592 328l-1.297 1.291a1 1 0 1 0 1.41 1.418l2.008-2a1 1 0 0 0 0-1.418l-2.008-2a1 1 0 0 0-.717-.3zM49.033 322.986a1 1 0 0 0-1.004.772l-2 8a1 1 0 1 0 1.942.484l2-8a1 1 0 0 0-.938-1.256z" style="color:#000;font-style:normal;font-variant:normal;font-weight:400;font-stretch:normal;font-size:medium;line-height:normal;font-family:sans-serif;font-variant-ligatures:normal;font-variant-position:normal;font-variant-caps:normal;font-variant-numeric:normal;font-variant-alternates:normal;font-feature-settings:normal;text-indent:0;text-align:start;text-decoration:none;text-decoration-line:none;text-decoration-style:solid;text-decoration-color:#000;letter-spacing:normal;word-spacing:normal;text-transform:none;writing-mode:lr-tb;direction:ltr;text-orientation:mixed;dominant-baseline:auto;baseline-shift:baseline;text-anchor:start;white-space:normal;shape-padding:0;clip-rule:nonzero;display:inline;overflow:visible;visibility:visible;opacity:1;isolation:auto;mix-blend-mode:normal;color-interpolation:sRGB;color-interpolation-filters:linearRGB;solid-color:#000;solid-opacity:1;vector-effect:none;fill:#2e3436;fill-opacity:1;fill-rule:evenodd;stroke:none;stroke-width:2;stroke-linecap:round;stroke-linejoin:round;stroke-miterlimit:4;stroke-dasharray:none;stroke-dashoffset:0;stroke-opacity:1;color-rendering:auto;image-rendering:auto;shape-rendering:auto;text-rendering:auto;enable-background:accumulate" transform="translate(-40 -320)"/></svg>