<svg xmlns="http://www.w3.org/2000/svg" width="16" height="16">
    <g fill="#2e3436">
        <path d="M13.543 10.206a3.193 3.193 0 0 1-2.043.756c-.77 0-1.47-.287-2.027-.743-.717.33-1.47.999-1.471 2.118L8 14.242c0 .426.311.77.7.77h5.6c.389 0 .7-.344.7-.77v-1.896c0-.967-.637-1.793-1.457-2.14z"/>
        <path d="M14 7.5a2.5 2.5 0 0 1-2.5 2.5A2.5 2.5 0 0 1 9 7.5 2.5 2.5 0 0 1 11.5 5 2.5 2.5 0 0 1 14 7.5z" style="marker:none" color="#bebebe" overflow="visible"/>
        <path d="M6.625 6.237c-.578.491-1.314.8-2.125.8-.8 0-1.527-.301-2.102-.78-.693.342-1.395 1-1.396 2.08L1 10.242c0 .426.311.77.7.77h5.448A3.285 3.285 0 0 1 8 9.629V8.346c0-.935-.595-1.743-1.375-2.11z"/>
        <path d="M7 3.5A2.5 2.5 0 0 1 4.5 6 2.5 2.5 0 0 1 2 3.5 2.5 2.5 0 0 1 4.5 1 2.5 2.5 0 0 1 7 3.5z" style="marker:none" color="#bebebe" overflow="visible"/>
    </g>
</svg>
