<?xml version="1.0" encoding="UTF-8"?>
<svg height="16px" viewBox="0 0 16 16" width="16px" xmlns="http://www.w3.org/2000/svg" xmlns:xlink="http://www.w3.org/1999/xlink">
    <filter id="a" height="100%" width="100%" x="0%" y="0%">
        <feColorMatrix in="SourceGraphic" type="matrix" values="0 0 0 0 1 0 0 0 0 1 0 0 0 0 1 0 0 0 1 0"/>
    </filter>
    <mask id="b">
        <g filter="url(#a)">
            <path d="m 0 0 h 16 v 16 h -16 z" fill-opacity="0.3"/>
        </g>
    </mask>
    <clipPath id="c">
        <path d="m 0 0 h 800 v 800 h -800 z"/>
    </clipPath>
    <mask id="d">
        <g filter="url(#a)">
            <path d="m 0 0 h 16 v 16 h -16 z" fill-opacity="0.35"/>
        </g>
    </mask>
    <clipPath id="e">
        <path d="m 0 0 h 800 v 800 h -800 z"/>
    </clipPath>
    <mask id="f">
        <g filter="url(#a)">
            <path d="m 0 0 h 16 v 16 h -16 z" fill-opacity="0.35"/>
        </g>
    </mask>
    <clipPath id="g">
        <path d="m 0 0 h 800 v 800 h -800 z"/>
    </clipPath>
    <mask id="h">
        <g filter="url(#a)">
            <path d="m 0 0 h 16 v 16 h -16 z" fill-opacity="0.35"/>
        </g>
    </mask>
    <clipPath id="i">
        <path d="m 0 0 h 800 v 800 h -800 z"/>
    </clipPath>
    <mask id="j">
        <g filter="url(#a)">
            <path d="m 0 0 h 16 v 16 h -16 z" fill-opacity="0.35"/>
        </g>
    </mask>
    <clipPath id="k">
        <path d="m 0 0 h 800 v 800 h -800 z"/>
    </clipPath>
    <g clip-path="url(#c)" mask="url(#b)" transform="matrix(1 0 0 1 -200 -600)">
        <path d="m 142.5 351 h 10.449219 c -1.183594 0.492188 -1.296875 2.457031 0 3 h -10.449219 z m 0 0" fill="#2e3436"/>
    </g>
    <g clip-path="url(#e)" mask="url(#d)" transform="matrix(1 0 0 1 -200 -600)">
        <path d="m 104 502 c 0 0.550781 -0.449219 1 -1 1 s -1 -0.449219 -1 -1 s 0.449219 -1 1 -1 s 1 0.449219 1 1 z m 0 0" fill="#2e3436"/>
    </g>
    <g clip-path="url(#g)" mask="url(#f)" transform="matrix(1 0 0 1 -200 -600)">
        <path d="m 106 501 v 2 h 8 v -2 z m 0 0" fill="#2e3436" fill-rule="evenodd"/>
    </g>
    <g clip-path="url(#i)" mask="url(#h)" transform="matrix(1 0 0 1 -200 -600)">
        <path d="m 104 514 c 0 0.550781 -0.449219 1 -1 1 s -1 -0.449219 -1 -1 s 0.449219 -1 1 -1 s 1 0.449219 1 1 z m 0 0" fill="#2e3436"/>
    </g>
    <g clip-path="url(#k)" mask="url(#j)" transform="matrix(1 0 0 1 -200 -600)">
        <path d="m 106 513 v 2 h 8 v -2 z m 0 0" fill="#2e3436" fill-rule="evenodd"/>
    </g>
    <g fill="#2e3436" fill-rule="evenodd">
        <path d="m 9 5 c -0.832031 0 -1.578125 0.304688 -2.246094 0.574219 c -0.667968 0.265625 -1.203125 0.53125 -1.203125 0.53125 l 0.898438 1.789062 s 0.464843 -0.234375 1.046875 -0.46875 c 0.582031 -0.230469 1.335937 -0.425781 1.503906 -0.425781 c 1.222656 0 1.542969 0.390625 1.769531 0.761719 c 0.222657 0.375 0.230469 0.738281 0.230469 0.738281 v 5.5 h 2 v -5.5 s 0.007812 -0.886719 -0.519531 -1.761719 c -0.523438 -0.878906 -1.703125 -1.738281 -3.480469 -1.738281 z m 0 0"/>
        <path d="m 5 1 v 13 h 2 v -13 z m 0 0"/>
    </g>
</svg>
