<?xml version="1.0" encoding="UTF-8"?>
<svg height="16px" viewBox="0 0 16 16" width="16px" xmlns="http://www.w3.org/2000/svg" xmlns:xlink="http://www.w3.org/1999/xlink">
    <filter id="a" height="100%" width="100%" x="0%" y="0%">
        <feColorMatrix in="SourceGraphic" type="matrix" values="0 0 0 0 1 0 0 0 0 1 0 0 0 0 1 0 0 0 1 0"/>
    </filter>
    <mask id="b">
        <g filter="url(#a)">
            <path d="m 0 0 h 16 v 16 h -16 z" fill-opacity="0.3"/>
        </g>
    </mask>
    <clipPath id="c">
        <path d="m 0 0 h 800 v 800 h -800 z"/>
    </clipPath>
    <mask id="d">
        <g filter="url(#a)">
            <path d="m 0 0 h 16 v 16 h -16 z" fill-opacity="0.35"/>
        </g>
    </mask>
    <clipPath id="e">
        <path d="m 0 0 h 800 v 800 h -800 z"/>
    </clipPath>
    <mask id="f">
        <g filter="url(#a)">
            <path d="m 0 0 h 16 v 16 h -16 z" fill-opacity="0.35"/>
        </g>
    </mask>
    <clipPath id="g">
        <path d="m 0 0 h 800 v 800 h -800 z"/>
    </clipPath>
    <mask id="h">
        <g filter="url(#a)">
            <path d="m 0 0 h 16 v 16 h -16 z" fill-opacity="0.35"/>
        </g>
    </mask>
    <clipPath id="i">
        <path d="m 0 0 h 800 v 800 h -800 z"/>
    </clipPath>
    <mask id="j">
        <g filter="url(#a)">
            <path d="m 0 0 h 16 v 16 h -16 z" fill-opacity="0.35"/>
        </g>
    </mask>
    <clipPath id="k">
        <path d="m 0 0 h 800 v 800 h -800 z"/>
    </clipPath>
    <g clip-path="url(#c)" mask="url(#b)" transform="matrix(1 0 0 1 -220 -600)">
        <path d="m 142.5 351 h 10.449219 c -1.183594 0.492188 -1.296875 2.457031 0 3 h -10.449219 z m 0 0" fill="#2e3436"/>
    </g>
    <g clip-path="url(#e)" mask="url(#d)" transform="matrix(1 0 0 1 -220 -600)">
        <path d="m 104 502 c 0 0.550781 -0.449219 1 -1 1 s -1 -0.449219 -1 -1 s 0.449219 -1 1 -1 s 1 0.449219 1 1 z m 0 0" fill="#2e3436"/>
    </g>
    <g clip-path="url(#g)" mask="url(#f)" transform="matrix(1 0 0 1 -220 -600)">
        <path d="m 106 501 v 2 h 8 v -2 z m 0 0" fill="#2e3436" fill-rule="evenodd"/>
    </g>
    <g clip-path="url(#i)" mask="url(#h)" transform="matrix(1 0 0 1 -220 -600)">
        <path d="m 104 514 c 0 0.550781 -0.449219 1 -1 1 s -1 -0.449219 -1 -1 s 0.449219 -1 1 -1 s 1 0.449219 1 1 z m 0 0" fill="#2e3436"/>
    </g>
    <g clip-path="url(#k)" mask="url(#j)" transform="matrix(1 0 0 1 -220 -600)">
        <path d="m 106 513 v 2 h 8 v -2 z m 0 0" fill="#2e3436" fill-rule="evenodd"/>
    </g>
    <path d="m 8 1 s -1.273438 -0.007812 -2.53125 0.777344 c -1.253906 0.785156 -2.46875 2.457031 -2.46875 5.222656 v 2 c 0 2.765625 1.214844 4.4375 2.46875 5.222656 c 1.257812 0.785156 2.53125 0.777344 2.53125 0.777344 c 3.667969 0 4.949219 -3.683594 4.949219 -3.683594 c 0.085937 -0.25 0.066406 -0.527344 -0.054688 -0.765625 c -0.117187 -0.234375 -0.328125 -0.417969 -0.578125 -0.5 c -0.25 -0.085937 -0.527344 -0.066406 -0.765625 0.054688 c -0.234375 0.117187 -0.417969 0.328125 -0.5 0.578125 c 0 0 -0.71875 2.316406 -3.050781 2.316406 c 0 0 -0.726562 -0.007812 -1.46875 -0.472656 c -0.746094 -0.464844 -1.53125 -1.292969 -1.53125 -3.527344 v -2 c 0 -2.234375 0.785156 -3.0625 1.53125 -3.527344 c 0.742188 -0.464844 1.46875 -0.472656 1.46875 -0.472656 c 2.332031 0 3.050781 2.316406 3.050781 2.316406 c 0.082031 0.25 0.265625 0.460938 0.5 0.578125 c 0.238281 0.121094 0.515625 0.140625 0.765625 0.054688 c 0.25 -0.082031 0.460938 -0.265625 0.578125 -0.5 c 0.121094 -0.238281 0.140625 -0.515625 0.054688 -0.765625 c 0 0 -1.28125 -3.683594 -4.949219 -3.683594 z m 0 0" fill="#2e3436" fill-rule="evenodd"/>
</svg>
