<svg xmlns="http://www.w3.org/2000/svg" width="16" height="16" version="1.0"><defs><linearGradient id="h"><stop offset="0" stop-color="#9a999d"/><stop offset="1" stop-color="#87848e"/></linearGradient><linearGradient id="g"><stop offset="0" stop-color="#dddcdb"/><stop offset="1" stop-color="#b5b4b1" stop-opacity=".969"/></linearGradient><linearGradient id="f"><stop offset="0" stop-color="#dddcdb"/><stop offset="1" stop-color="#c0bfbc" stop-opacity=".971"/></linearGradient><linearGradient id="e"><stop offset="0" stop-color="#deddda"/><stop offset="1" stop-color="#9a9996"/></linearGradient><linearGradient id="d"><stop offset="0" stop-color="#918e97"/><stop offset="1" stop-color="#5e5c64"/></linearGradient><linearGradient id="a"><stop offset="0" stop-color="#d5d3cf"/><stop offset="1" stop-color="#f6f5f4"/></linearGradient><linearGradient id="b"><stop offset="0" stop-color="#d5d3cf"/><stop offset="1" stop-color="#949390"/></linearGradient><linearGradient id="c"><stop offset="0" stop-color="#9a9996"/><stop offset="1" stop-color="#77767b"/></linearGradient></defs><path style="line-height:normal;font-variant-ligatures:normal;font-variant-position:normal;font-variant-caps:normal;font-variant-numeric:normal;font-variant-alternates:normal;font-feature-settings:normal;text-indent:0;text-align:start;text-decoration-line:none;text-decoration-style:solid;text-decoration-color:#000;text-transform:none;text-orientation:mixed;white-space:normal;shape-padding:0;isolation:auto;mix-blend-mode:normal;solid-color:#000;solid-opacity:1" d="M3 2.988a1.986 1.986 0 0 0-1.988 2l.002 7.551c.019 1.542 2.162 2.018 2.851.639L4.951 11h6.178l1.086 2.178c.689 1.38 2.766.903 2.785-.639l-.02-7.55c0-1.109-.892-2-2-2zM4 4h2v2h2v2H6v2H4V8H2V6h2zm6.494.53a1 1 0 1 1 0 2 1 1 0 0 1 0-2zm2 3a1 1 0 1 1 0 2 1 1 0 0 1 0-2z" color="#000" font-weight="400" font-family="sans-serif" overflow="visible"/></svg>