<svg xmlns="http://www.w3.org/2000/svg" xmlns:xlink="http://www.w3.org/1999/xlink" width="128" height="128" version="1.0"><defs><linearGradient id="h"><stop offset="0" stop-color="#9a999d"/><stop offset="1" stop-color="#87848e"/></linearGradient><linearGradient id="g"><stop offset="0" stop-color="#dddcdb"/><stop offset="1" stop-color="#b5b4b1" stop-opacity=".969"/></linearGradient><linearGradient id="f"><stop offset="0" stop-color="#dddcdb"/><stop offset="1" stop-color="#c0bfbc" stop-opacity=".971"/></linearGradient><linearGradient id="i"><stop offset="0" stop-color="#9a9996"/><stop offset="1" stop-color="#9a9996" stop-opacity="0"/></linearGradient><linearGradient id="e"><stop offset="0" stop-color="#deddda"/><stop offset="1" stop-color="#9a9996"/></linearGradient><linearGradient id="d"><stop offset="0" stop-color="#918e97"/><stop offset="1" stop-color="#5e5c64"/></linearGradient><linearGradient id="a"><stop offset="0" stop-color="#d5d3cf"/><stop offset="1" stop-color="#f6f5f4"/></linearGradient><linearGradient id="b"><stop offset="0" stop-color="#d5d3cf"/><stop offset="1" stop-color="#949390"/></linearGradient><linearGradient id="c"><stop offset="0" stop-color="#9a9996"/><stop offset="1" stop-color="#77767b"/></linearGradient><linearGradient xlink:href="#i" id="j" x1="38" y1="248" x2="50" y2="248" gradientUnits="userSpaceOnUse" gradientTransform="matrix(1.33333 0 0 1.33333 -306.667 -414.667)"/><linearGradient xlink:href="#i" id="k" gradientUnits="userSpaceOnUse" gradientTransform="matrix(1.33333 0 0 1.33333 -306.667 -374.783)" x1="38" y1="248" x2="50" y2="248"/></defs><g transform="translate(0 -172)"><g fill="#77767b" stroke="none" color="#000" font-weight="400" font-family="sans-serif"><path d="M89.179 213.97l6.084 7.563 22.648-4.67 9.875 47.907a16.002 16.002 0 0 1-28.135 13.26l-35.404-44zM39.182 213.97l-6.084 7.563-22.649-4.67L.574 264.77a16.002 16.002 0 0 0 28.135 13.26l35.405-44z" style="line-height:normal;font-variant-ligatures:normal;font-variant-position:normal;font-variant-caps:normal;font-variant-numeric:normal;font-variant-alternates:normal;font-feature-settings:normal;text-indent:0;text-align:start;text-decoration-line:none;text-decoration-style:solid;text-decoration-color:#000;text-transform:none;text-orientation:mixed;white-space:normal;shape-padding:0;isolation:auto;mix-blend-mode:normal;solid-color:#000;solid-opacity:1" overflow="visible"/></g><path fill="#77767b" d="M41.116 200h46v32h-46z"/><path d="M60.45 231.28l-31.985 39.75a16.002 16.002 0 0 1-28.07-6.577l-.065.317a16.002 16.002 0 0 0 28.135 13.26l35.404-44zm7.1 0l-3.42 2.75 35.405 44a16.002 16.002 0 0 0 28.135-13.26l-.065-.317a16.002 16.002 0 0 1-28.07 6.576z" style="line-height:normal;font-variant-ligatures:normal;font-variant-position:normal;font-variant-caps:normal;font-variant-numeric:normal;font-variant-alternates:normal;font-feature-settings:normal;text-indent:0;text-align:start;text-decoration-line:none;text-decoration-style:solid;text-decoration-color:#000;text-transform:none;text-orientation:mixed;white-space:normal;shape-padding:0;isolation:auto;mix-blend-mode:normal;solid-color:#000;solid-opacity:1" color="#000" font-weight="400" font-family="sans-serif" overflow="visible" fill="#5e5c64" fill-opacity=".235"/><circle r="22" cy="221" cx="32.116" fill="#c0bfbc"/><path fill="#c0bfbc" d="M46.116 204h36v52h-36z"/><circle cx="96.116" cy="221" r="22" fill="#c0bfbc"/><path fill="#deddda" d="M46.116 204h36v48h-36z"/><circle style="marker:none" cx="44.116" cy="252" r="13.884" fill="#c0bfbc"/><circle r="13.884" cy="250" cx="44.116" style="marker:none" fill="#deddda"/><circle r="13.884" cy="252" cx="84.116" style="marker:none" fill="#c0bfbc"/><circle style="marker:none" cx="84.116" cy="250" r="13.884" fill="#deddda"/><circle cx="32.116" cy="219" r="22" fill="#deddda"/><circle r="22" cy="219" cx="96.116" fill="#deddda"/><path d="M30 208c-1.108 0-2 .892-2 2v6h-6c-1.108 0-2 .892-2 2v4c0 1.108.892 2 2 2h6v6c0 1.108.892 2 2 2h4c1.108 0 2-.892 2-2v-6h6c1.108 0 2-.892 2-2v-4c0-1.108-.892-2-2-2h-6v-6c0-1.108-.892-2-2-2z" fill="#3d3846"/><path d="M30 206c-1.108 0-2 .892-2 2v6h-6c-1.108 0-2 .892-2 2v4c0 1.108.892 2 2 2h6v6c0 1.108.892 2 2 2h4c1.108 0 2-.892 2-2v-6h6c1.108 0 2-.892 2-2v-4c0-1.108-.892-2-2-2h-6v-6c0-1.108-.892-2-2-2z" fill="#5e5c64"/><g transform="matrix(-1 0 0 1 -28.492 -180.773)"><g transform="translate(-208.492 146.773)"><path d="M70 256v2c0 3.324 2.676 6 6 6s6-2.676 6-6v-2z" fill="#c01c28"/><circle cy="256" cx="76" r="6" fill="#ed333b"/></g><path d="M-122.492 394.773v2c0 3.324 2.676 6 6 6s6-2.676 6-6v-2z" fill="#1a5fb4"/><circle r="6" cx="-116.492" cy="394.773" fill="#3584e4"/></g><circle style="marker:none" cx="44.116" cy="250" r="10" fill="#241f31"/><circle r="10" cy="250" cx="84.116" style="marker:none" fill="#241f31"/><circle r="10" cy="248" cx="44.116" style="marker:none" fill="#3d3846"/><circle style="marker:none" cx="84.116" cy="248" r="10" fill="#3d3846"/><circle transform="matrix(0 -1 -1 0 0 0)" r="8" cy="-84" cx="-248" style="marker:none" fill="url(#j)"/><circle style="marker:none" cx="-248" cy="-44.116" r="8" transform="matrix(0 -1 -1 0 0 0)" fill="url(#k)"/></g></svg>