<?xml version="1.0" encoding="UTF-8" standalone="no"?>
<!-- Created with Inkscape (http://www.inkscape.org/) -->

<svg
   xmlns:dc="http://purl.org/dc/elements/1.1/"
   xmlns:cc="http://creativecommons.org/ns#"
   xmlns:rdf="http://www.w3.org/1999/02/22-rdf-syntax-ns#"
   xmlns:svg="http://www.w3.org/2000/svg"
   xmlns="http://www.w3.org/2000/svg"
   xmlns:xlink="http://www.w3.org/1999/xlink"
   xmlns:sodipodi="http://sodipodi.sourceforge.net/DTD/sodipodi-0.dtd"
   xmlns:inkscape="http://www.inkscape.org/namespaces/inkscape"
   width="150.15742mm"
   height="150.15742mm"
   viewBox="0 0 150.15742 150.15742"
   version="1.1"
   id="svg385"
   inkscape:version="0.92.4 5da689c313, 2019-01-14"
   sodipodi:docname="org.gnome.gitg.svg">
  <defs
     id="defs379">
    <filter
       inkscape:collect="always"
       id="filter8603"
       x="-0.11084337"
       width="1.2216867"
       y="-0.11084337"
       height="1.2216867">
      <feGaussianBlur
         inkscape:collect="always"
         stdDeviation="9.1481681"
         id="feGaussianBlur8605" />
    </filter>
    <filter
       inkscape:collect="always"
       id="filter8807">
      <feGaussianBlur
         inkscape:collect="always"
         stdDeviation="1.9807773"
         id="feGaussianBlur8809" />
    </filter>
    <linearGradient
       inkscape:collect="always"
       xlink:href="#linearGradient8277"
       id="linearGradient8545"
       gradientUnits="userSpaceOnUse"
       x1="145.98178"
       y1="235.51752"
       x2="145.98178"
       y2="71.913452" />
    <linearGradient
       inkscape:collect="always"
       id="linearGradient8277">
      <stop
         style="stop-color:#cc0000;stop-opacity:1"
         offset="0"
         id="stop8279" />
      <stop
         style="stop-color:#ef2929;stop-opacity:1"
         offset="1"
         id="stop8281" />
    </linearGradient>
    <linearGradient
       inkscape:collect="always"
       xlink:href="#linearGradient8889"
       id="linearGradient8959"
       gradientUnits="userSpaceOnUse"
       x1="272.40521"
       y1="49.932758"
       x2="157.0276"
       y2="-65.444847" />
    <linearGradient
       inkscape:collect="always"
       id="linearGradient8889">
      <stop
         style="stop-color:#000000;stop-opacity:1;"
         offset="0"
         id="stop8891" />
      <stop
         style="stop-color:#a40000;stop-opacity:1"
         offset="1"
         id="stop8893" />
    </linearGradient>
    <clipPath
       clipPathUnits="userSpaceOnUse"
       id="clipPath8551">
      <rect
         style="color:#000000;display:inline;overflow:visible;visibility:visible;fill:none;stroke:#000000;stroke-width:0.89991421;stroke-miterlimit:4;stroke-dasharray:none;stroke-opacity:1;marker:none;enable-background:accumulate"
         id="rect8553"
         width="148.27692"
         height="148.27692"
         x="142.241"
         y="-69.440956"
         rx="13.284611"
         ry="13.284611" />
    </clipPath>
    <filter
       inkscape:collect="always"
       id="filter8567">
      <feGaussianBlur
         inkscape:collect="always"
         stdDeviation="1.5960969"
         id="feGaussianBlur8569" />
    </filter>
    <radialGradient
       inkscape:collect="always"
       xlink:href="#linearGradient8609-6"
       id="radialGradient8655"
       gradientUnits="userSpaceOnUse"
       gradientTransform="matrix(1.2933279,0,0,0.68855423,149.94223,51.830576)"
       cx="-5"
       cy="21.716555"
       fx="-5"
       fy="21.716555"
       r="213.42456" />
    <linearGradient
       inkscape:collect="always"
       id="linearGradient8609-6">
      <stop
         style="stop-color:#ffffff;stop-opacity:1;"
         offset="0"
         id="stop8611-9" />
      <stop
         style="stop-color:#ffffff;stop-opacity:0;"
         offset="1"
         id="stop8613-0" />
    </linearGradient>
    <filter
       inkscape:collect="always"
       id="filter8803">
      <feGaussianBlur
         inkscape:collect="always"
         stdDeviation="2.3639884"
         id="feGaussianBlur8805" />
    </filter>
    <radialGradient
       inkscape:collect="always"
       xlink:href="#linearGradient8609-6"
       id="radialGradient8883"
       gradientUnits="userSpaceOnUse"
       gradientTransform="matrix(0.65262363,0,0,0.65262363,165.39611,-63.814547)"
       cx="-101.5"
       cy="413.5"
       fx="-101.5"
       fy="413.5"
       r="95.5" />
    <radialGradient
       inkscape:collect="always"
       xlink:href="#linearGradient8609-6"
       id="radialGradient8887"
       gradientUnits="userSpaceOnUse"
       gradientTransform="matrix(-0.65262363,0,0,0.65262363,135.50373,-63.814547)"
       cx="-101.5"
       cy="413.5"
       fx="-101.5"
       fy="413.5"
       r="95.5" />
    <linearGradient
       inkscape:collect="always"
       xlink:href="#linearGradient8609-6"
       id="linearGradient9051"
       gradientUnits="userSpaceOnUse"
       x1="25.750032"
       y1="104.5"
       x2="25.750032"
       y2="557.84375" />
    <radialGradient
       r="213.42456"
       fy="21.716555"
       fx="-5"
       cy="21.716555"
       cx="-5"
       gradientTransform="matrix(1.2933279,0,0,0.68855423,149.94223,51.830576)"
       gradientUnits="userSpaceOnUse"
       id="radialGradient341"
       xlink:href="#linearGradient8609-6"
       inkscape:collect="always" />
  </defs>
  <sodipodi:namedview
     id="base"
     pagecolor="#ffffff"
     bordercolor="#666666"
     borderopacity="1.0"
     inkscape:pageopacity="0.0"
     inkscape:pageshadow="2"
     inkscape:zoom="0.35"
     inkscape:cx="292.33349"
     inkscape:cy="286.6192"
     inkscape:document-units="mm"
     inkscape:current-layer="layer1"
     showgrid="false"
     fit-margin-top="0"
     fit-margin-left="0"
     fit-margin-right="0"
     fit-margin-bottom="0"
     inkscape:window-width="3840"
     inkscape:window-height="2032"
     inkscape:window-x="0"
     inkscape:window-y="54"
     inkscape:window-maximized="1" />
  <metadata
     id="metadata382">
    <rdf:RDF>
      <cc:Work
         rdf:about="">
        <dc:format>image/svg+xml</dc:format>
        <dc:type
           rdf:resource="http://purl.org/dc/dcmitype/StillImage" />
        <dc:title></dc:title>
      </cc:Work>
    </rdf:RDF>
  </metadata>
  <g
     inkscape:label="Layer 1"
     inkscape:groupmode="layer"
     id="layer1"
     transform="translate(-28.486764,-74.510573)">
    <g
       style="display:inline;enable-background:new"
       id="g6903"
       transform="matrix(0.58801902,0,0,0.58801902,15.627255,56.476575)">
      <rect
         style="color:#000000;display:inline;overflow:visible;visibility:visible;opacity:0.33469388;fill:#000000;fill-opacity:1;fill-rule:nonzero;stroke:none;stroke-width:0.99999994;marker:none;filter:url(#filter8603);enable-background:accumulate"
         id="rect8589"
         width="147.80209"
         height="147.80209"
         x="142.54431"
         y="-68.951271"
         rx="13.24207"
         ry="13.24207"
         transform="rotate(45,-2.1725851,0.89991421)" />
      <rect
         transform="rotate(45,-2.1725851,0.89991421)"
         ry="13.24207"
         rx="13.24207"
         y="-68.951271"
         x="142.54431"
         height="147.80209"
         width="147.80209"
         id="rect8571"
         style="color:#000000;display:inline;overflow:visible;visibility:visible;opacity:0.8408163;fill:#000000;fill-opacity:1;fill-rule:nonzero;stroke:none;stroke-width:0.99999994;marker:none;filter:url(#filter8807);enable-background:accumulate" />
      <rect
         style="color:#000000;display:inline;overflow:visible;visibility:visible;fill:#ffffff;fill-opacity:1;fill-rule:nonzero;stroke:none;stroke-width:0.99999994;marker:none;enable-background:accumulate"
         id="rect7507"
         width="147.32727"
         height="147.32727"
         x="142.55675"
         y="-69.388786"
         rx="13.19953"
         ry="13.19953"
         transform="rotate(45)" />
      <path
         inkscape:connector-curvature="0"
         d="M 245.21974,147.49015 158.60942,60.88326 c -4.98562,-4.989054 -13.07538,-4.989054 -18.06768,0 l -17.98329,17.986516 22.81281,22.813644 c 5.30275,-1.790325 11.38286,-0.5887 15.6077,3.63698 4.25029,4.25206 5.44088,10.38441 3.60502,15.70549 l 21.98898,21.9864 c 5.32109,-1.83416 11.45606,-0.64852 15.70634,3.6076 5.93678,5.93508 5.93678,15.55634 0,21.49636 -5.94109,5.94021 -15.56041,5.94021 -21.50411,0 -4.46508,-4.46945 -5.56977,-11.031 -3.30557,-16.53277 l -20.50889,-20.50715 v 53.96408 c 1.44619,0.71672 2.81228,1.67135 4.01823,2.87379 5.93675,5.93614 5.93675,15.55636 0,21.50156 -5.93679,5.93417 -15.56302,5.93417 -21.49548,0 -5.93679,-5.9452 -5.93679,-15.56542 0,-21.50156 1.46734,-1.4656 3.16655,-2.57436 4.97958,-3.31658 v -54.4632 c -1.81303,-0.7422 -3.50813,-1.84169 -4.97958,-3.31747 -4.49643,-4.4949 -5.5784,-11.09529 -3.27195,-16.61801 L 113.72086,87.705007 54.33193,147.08881 c -4.988083,4.99315 -4.988083,13.08292 0,18.07177 l 86.61459,86.60705 c 4.98646,4.98805 13.07366,4.98805 18.06766,0 l 86.20556,-86.20572 c 4.9897,-4.98969 4.9897,-13.08361 0,-18.07176"
         style="fill:url(#linearGradient8545);fill-opacity:1;fill-rule:nonzero;stroke:none"
         id="path7427" />
      <rect
         transform="rotate(45)"
         ry="13.284611"
         rx="13.284611"
         y="-69.440956"
         x="142.241"
         height="148.27692"
         width="148.27692"
         id="rect8547"
         style="color:#000000;display:inline;overflow:visible;visibility:visible;fill:none;stroke:url(#linearGradient8959);stroke-width:1.79982841;stroke-miterlimit:4;stroke-dasharray:none;stroke-opacity:1;marker:none;filter:url(#filter8567);enable-background:accumulate"
         clip-path="url(#clipPath8551)" />
      <path
         style="display:inline;opacity:0.17142861;fill:url(#radialGradient341);fill-opacity:1;stroke:none;enable-background:new"
         d="m 53.934127,160.82464 c 0,0 -1.23738,-6.63687 1.34987,-10.01155 L 140.32589,65.883687 c 0,0 4.21044,-5.511975 8.99915,-5.511975 4.64273,0 7.98674,4.387082 7.98674,4.387082 l 87.40416,86.166786 c 1.91232,2.92472 0.89992,8.88666 -1.79983,11.69889 0,0 2.69974,-7.19932 -0.44996,-10.79897 L 156.07439,67.233558 c -3.90882,-3.492698 -8.9897,-3.251602 -12.5988,-0.449957 L 57.983747,152.72541 c -4.16211,3.82464 -4.04962,8.09923 -4.04962,8.09923 z"
         id="path8607"
         inkscape:connector-curvature="0"
         sodipodi:nodetypes="cccscccccccc" />
      <path
         sodipodi:nodetypes="cccscccccccc"
         inkscape:connector-curvature="0"
         id="path8781"
         d="m 53.934127,160.82464 c 0,0 -1.23738,-6.63687 1.34987,-10.01155 L 140.32589,65.883687 c 0,0 4.21044,-5.511975 8.99915,-5.511975 4.64273,0 7.98674,4.387082 7.98674,4.387082 l 87.40416,86.166786 c 1.91232,2.92472 0.89992,8.88666 -1.79983,11.69889 0,0 2.69974,-7.19932 -0.44996,-10.79897 L 156.07439,67.233558 c -3.90882,-3.492698 -8.9897,-3.251602 -12.5988,-0.449957 L 57.983747,152.72541 c -4.16211,3.82464 -4.04962,8.09923 -4.04962,8.09923 z"
         style="display:inline;opacity:0.46122448;fill:url(#radialGradient8655);fill-opacity:1;stroke:none;filter:url(#filter8803);enable-background:new" />
      <path
         style="display:inline;opacity:0.37551018;fill:none;stroke:url(#radialGradient8883);stroke-width:1.79982841;stroke-linecap:butt;stroke-linejoin:miter;stroke-miterlimit:4;stroke-dasharray:none;stroke-opacity:1;enable-background:new"
         d="m 57.083825,163.97433 84.141985,84.14198"
         id="path8811"
         inkscape:connector-curvature="0" />
      <path
         inkscape:connector-curvature="0"
         id="path8821"
         d="m 243.81602,163.97433 -84.14197,84.14198"
         style="display:inline;opacity:0.37551018;fill:none;stroke:url(#radialGradient8887);stroke-width:1.79982841;stroke-linecap:butt;stroke-linejoin:miter;stroke-miterlimit:4;stroke-dasharray:none;stroke-opacity:1;enable-background:new" />
      <path
         sodipodi:type="inkscape:offset"
         inkscape:radius="-6.7795496"
         inkscape:original="M 9.21875 87.6875 C 1.720142 87.6875 -5.7854287 90.566679 -11.53125 96.3125 L -201.5625 286.34375 C -213.05414 297.83539 -213.05414 316.35211 -201.5625 327.84375 L -140.0625 389.34375 C -97.964504 397.54117 -52.874285 402 -6 402 C 55.857907 402 114.59077 394.26768 167.46875 380.375 L 220 327.84375 C 231.49164 316.35211 231.49164 297.83539 220 286.34375 L 29.9375 96.3125 C 24.191679 90.566679 16.717358 87.6875 9.21875 87.6875 z "
         style="color:#000000;display:inline;overflow:visible;visibility:visible;opacity:0.33469388;fill:url(#linearGradient9051);fill-opacity:1;fill-rule:nonzero;stroke:none;stroke-width:0.99999994;marker:none;enable-background:accumulate"
         id="path9049"
         d="m 9.21875,94.466797 c -5.763216,0 -11.4978435,2.179484 -15.9570312,6.638673 L -196.76953,291.13672 c -8.91682,8.91682 -8.91682,22.99724 0,31.91406 l 59.97265,59.97266 C -95.691914,390.89683 -51.724525,395.2207 -6,395.2207 c 60.625887,0 118.17554,-7.52261 170.01562,-20.97851 l 51.19141,-51.19141 c 8.91646,-8.91646 8.91573,-22.99523 0,-31.91211 v -0.002 L 25.144531,101.10742 a 6.7802276,6.7802276 0 0 1 0,-0.002 C 20.676653,96.637591 14.981966,94.466797 9.21875,94.466797 Z"
         transform="matrix(0.4499571,0,0,0.4499571,145.72537,17.738277)" />
    </g>
  </g>
</svg>
