<svg xmlns="http://www.w3.org/2000/svg" width="16" height="16"><g color="#000" fill="#2e3436"><path d="m1.09 13.218.91-.221 1.433-1.418c.354.156 1.614.167 1.968 0l1.566 1.418.775.22.199.234v1.546H.936v-1.524zM7.535 1.987a1.528 1.528 0 0 0-1.528 1.527 1.528 1.528 0 0 0 .122.594L4.63 5.93a2.5 2.5 0 0 0-.189-.01 2.5 2.5 0 0 0-2.5 2.5 2.5 2.5 0 0 0 2.5 2.5 2.5 2.5 0 0 0 2.5-2.5 2.5 2.5 0 0 0-.293-1.173l.877-2.205a1.528 1.528 0 0 0 .01 0 1.528 1.528 0 0 0 1.355-.827l1.951.45a1.528 1.528 0 0 0 1.51 1.304 1.528 1.528 0 0 0 1.53-1.527 1.528 1.528 0 0 0-1.53-1.527 1.528 1.528 0 0 0-1.367.851L9.043 3.27a1.528 1.528 0 0 0-1.508-1.283z" style="isolation:auto;mix-blend-mode:normal;marker:none" overflow="visible"/><path d="m10.941 7.997-1.066 1.91.779 2.09h.531l-.244-2.469 1.219-.187.215 1.698.575-.004.21-1.663.937.093.094 2.5.562.032.594-2.563-1.395-1.219V6.987h-2.949z" style="isolation:auto;mix-blend-mode:normal;marker:none" overflow="visible"/></g></svg>