<?xml version="1.0" encoding="UTF-8" standalone="no"?>
<!-- Created with Inkscape (http://www.inkscape.org/) -->

<svg
   xmlns:osb="http://www.openswatchbook.org/uri/2009/osb"
   xmlns:dc="http://purl.org/dc/elements/1.1/"
   xmlns:cc="http://creativecommons.org/ns#"
   xmlns:rdf="http://www.w3.org/1999/02/22-rdf-syntax-ns#"
   xmlns:svg="http://www.w3.org/2000/svg"
   xmlns="http://www.w3.org/2000/svg"
   xmlns:sodipodi="http://sodipodi.sourceforge.net/DTD/sodipodi-0.dtd"
   xmlns:inkscape="http://www.inkscape.org/namespaces/inkscape"
   sodipodi:docname="builder-symbolic.svg"
   height="16"
   id="svg7384"
   version="1.1"
   inkscape:version="0.91 r13725"
   width="16">
  <metadata
     id="metadata90">
    <rdf:RDF>
      <cc:Work
         rdf:about="">
        <dc:format>image/svg+xml</dc:format>
        <dc:type
           rdf:resource="http://purl.org/dc/dcmitype/StillImage" />
        <dc:title>Gnome Symbolic Icon Theme</dc:title>
      </cc:Work>
    </rdf:RDF>
  </metadata>
  <sodipodi:namedview
     inkscape:bbox-paths="true"
     bordercolor="#666666"
     borderopacity="1"
     inkscape:current-layer="layer9"
     inkscape:cx="-5.5555357"
     inkscape:cy="1.9720474"
     gridtolerance="10"
     inkscape:guide-bbox="true"
     guidetolerance="10"
     id="namedview88"
     inkscape:object-nodes="false"
     inkscape:object-paths="false"
     objecttolerance="10"
     pagecolor="#555753"
     inkscape:pageopacity="1"
     inkscape:pageshadow="2"
     showborder="false"
     showgrid="false"
     showguides="true"
     inkscape:snap-bbox="true"
     inkscape:snap-bbox-midpoints="false"
     inkscape:snap-global="true"
     inkscape:snap-grids="true"
     inkscape:snap-nodes="true"
     inkscape:snap-others="false"
     inkscape:snap-to-guides="true"
     inkscape:window-height="1376"
     inkscape:window-maximized="1"
     inkscape:window-width="2560"
     inkscape:window-x="0"
     inkscape:window-y="27"
     inkscape:zoom="1">
    <inkscape:grid
       empspacing="2"
       enabled="true"
       id="grid4866"
       originx="-122.00002"
       originy="-321.99999"
       snapvisiblegridlinesonly="true"
       spacingx="1px"
       spacingy="1px"
       type="xygrid"
       visible="true" />
  </sodipodi:namedview>
  <title
     id="title9167">Gnome Symbolic Icon Theme</title>
  <defs
     id="defs7386">
    <linearGradient
       id="linearGradient7212"
       osb:paint="solid">
      <stop
         id="stop7214"
         offset="0"
         style="stop-color:#000000;stop-opacity:1;" />
    </linearGradient>
  </defs>
  <g
     inkscape:groupmode="layer"
     id="layer9"
     inkscape:label="apps"
     style="display:inline"
     transform="translate(-363.00022,104.99999)">
    <path
       inkscape:connector-curvature="0"
       d="m 364.14965,-90.77902 0.90953,-0.22097 1.43279,-1.41828 c 0.35417,0.15628 1.61431,0.16764 1.96848,0 l 1.56537,1.41828 0.77551,0.22097 0.19887,0.23347 0,1.54556 -7.00523,0 0,-1.52346 z"
       id="rect27311"
       sodipodi:nodetypes="ccccccccccc"
       style="color:#000000;clip-rule:nonzero;display:inline;overflow:visible;visibility:visible;opacity:1;isolation:auto;mix-blend-mode:normal;color-interpolation:sRGB;color-interpolation-filters:linearRGB;solid-color:#000000;solid-opacity:1;fill:#bebebe;fill-opacity:1;fill-rule:nonzero;stroke:none;stroke-width:1;stroke-linecap:butt;stroke-linejoin:miter;stroke-miterlimit:4;stroke-dasharray:none;stroke-dashoffset:0;stroke-opacity:1;marker:none;marker-start:none;marker-mid:none;marker-end:none;paint-order:normal;color-rendering:auto;image-rendering:auto;shape-rendering:auto;text-rendering:auto;enable-background:accumulate" />
    <path
       style="color:#000000;clip-rule:nonzero;display:inline;overflow:visible;visibility:visible;opacity:1;isolation:auto;mix-blend-mode:normal;color-interpolation:sRGB;color-interpolation-filters:linearRGB;solid-color:#000000;solid-opacity:1;fill:#bebebe;fill-opacity:1;fill-rule:nonzero;stroke:none;stroke-width:1;stroke-linecap:butt;stroke-linejoin:miter;stroke-miterlimit:4;stroke-dasharray:none;stroke-dashoffset:0;stroke-opacity:1;marker:none;marker-start:none;marker-mid:none;marker-end:none;paint-order:normal;color-rendering:auto;image-rendering:auto;shape-rendering:auto;text-rendering:auto;enable-background:accumulate"
       d="M 7.59375 2.9902344 A 1.5277282 1.5277282 0 0 0 6.0664062 4.5175781 A 1.5277282 1.5277282 0 0 0 6.1875 5.1113281 L 4.6894531 6.9335938 A 2.5 2.5 0 0 0 4.5 6.9238281 A 2.5 2.5 0 0 0 2 9.4238281 A 2.5 2.5 0 0 0 4.5 11.923828 A 2.5 2.5 0 0 0 7 9.4238281 A 2.5 2.5 0 0 0 6.7070312 8.25 L 7.5839844 6.0449219 A 1.5277282 1.5277282 0 0 0 7.59375 6.0449219 A 1.5277282 1.5277282 0 0 0 8.9492188 5.21875 L 10.900391 5.6679688 A 1.5277282 1.5277282 0 0 0 12.410156 6.9726562 A 1.5277282 1.5277282 0 0 0 13.939453 5.4453125 A 1.5277282 1.5277282 0 0 0 12.410156 3.9179688 A 1.5277282 1.5277282 0 0 0 11.042969 4.7695312 L 9.1015625 4.2734375 A 1.5277282 1.5277282 0 0 0 7.59375 2.9902344 z "
       transform="translate(363.00022,-104.99999)"
       id="path27313" />
    <path
       inkscape:connector-curvature="0"
       d="m 374.0002,-96 -1.06629,1.91069 0.77903,2.08931 0.53125,0 -0.24399,-2.46875 1.21875,-0.1875 0.21496,1.69887 0.57544,-0.004 0.2096,-1.66383 0.9375,0.0937 0.0937,2.5 0.5625,0.0312 0.59375,-2.5625 -1.39553,-1.21875 0,-1.22855 -2.94822,0 z"
       id="path27321"
       sodipodi:nodetypes="ccccccccccccccccc"
       style="color:#000000;clip-rule:nonzero;display:inline;overflow:visible;visibility:visible;opacity:1;isolation:auto;mix-blend-mode:normal;color-interpolation:sRGB;color-interpolation-filters:linearRGB;solid-color:#000000;solid-opacity:1;fill:#bebebe;fill-opacity:1;fill-rule:nonzero;stroke:none;stroke-width:1;stroke-linecap:butt;stroke-linejoin:miter;stroke-miterlimit:4;stroke-dasharray:none;stroke-dashoffset:0;stroke-opacity:1;marker:none;marker-start:none;marker-mid:none;marker-end:none;paint-order:normal;color-rendering:auto;image-rendering:auto;shape-rendering:auto;text-rendering:auto;enable-background:accumulate" />
  </g>
</svg>
