<?xml version="1.0" encoding="UTF-8" standalone="no"?>
<svg
   height="16px"
   viewBox="0 0 16 16"
   width="16px"
   version="1.1"
   id="svg2419"
   xmlns="http://www.w3.org/2000/svg"
   xmlns:svg="http://www.w3.org/2000/svg">
  <defs
     id="defs2423" />
  <filter
     id="a"
     height="1"
     width="1"
     x="0"
     y="0">
    <feColorMatrix
       in="SourceGraphic"
       type="matrix"
       values="0 0 0 0 1 0 0 0 0 1 0 0 0 0 1 0 0 0 1 0"
       id="feColorMatrix2398" />
  </filter>
  <mask
     id="b">
    <g
       filter="url(#a)"
       id="g2403">
      <rect
         fill-opacity="0.35"
         height="16"
         width="16"
         id="rect2401" />
    </g>
  </mask>
  <clipPath
     id="c">
    <rect
       height="152"
       width="192"
       id="rect2406" />
  </clipPath>
  <g
     clip-path="url(#c)"
     mask="url(#b)"
     transform="matrix(1 0 0 1 -168 -16)"
     id="g2411">
    <path
       d="m 173 17 h 8 c 1.65625 0 3 1.34375 3 3 v 7 c 0 1.65625 -1.34375 3 -3 3 h -8 c -1.65625 0 -3 -1.34375 -3 -3 v -7 c 0 -1.65625 1.34375 -3 3 -3 z m 0 0"
       fill="#241f31"
       id="path2409" />
  </g>
  <g
     fill="#241f31"
     id="g2417">
    <path
       d="m 4 12 v 4 h 1 l 4 -4 z m 0 0"
       id="path2413" />
    <path
       d="m 3 1 c -1.660156 0 -3 1.339844 -3 3 v 7 c 0 1.660156 1.339844 3 3 3 h 6.558594 c 0.660156 -0.410156 1.328125 -0.878906 1.992187 -1.429688 c 2.207031 -1.921874 2.878907 -5.460937 0.832031 -7.75 c -1.398437 -1.566406 -3.957031 -2.035156 -5.589843 -0.539062 c -1.082031 1 -1.40625 2.804688 -0.332031 3.929688 c 0.695312 0.730468 1.9375 0.941406 2.695312 0.1875 c 0.472656 -0.464844 0.609375 -1.292969 0.097656 -1.785157 c -0.304687 -0.296875 -0.835937 -0.378906 -1.144531 -0.039062 c -0.175781 0.1875 -0.222656 0.515625 -0.011719 0.699219 c 0.113282 0.097656 0.308594 0.121093 0.410156 -0.003907 c 0.046876 -0.066406 0.0625 -0.171875 -0.011718 -0.222656 c -0.035156 -0.023437 -0.089844 -0.027344 -0.109375 0.007813 c -0.007813 0.015624 -0.007813 0.042968 0.007812 0.050781 c 0.007813 0.003906 0.019531 0.003906 0.019531 0 v -0.007813 c -0.011718 -0.003906 0 -0.003906 0 -0.003906 c 0.007813 -0.003906 0.015626 0.003906 0.015626 0.011719 c 0.007812 0.015625 -0.011719 0.03125 -0.03125 0.039062 c -0.042969 0.007813 -0.070313 -0.035156 -0.082032 -0.070312 c -0.015625 -0.089844 0.070313 -0.15625 0.148438 -0.167969 c 0.160156 -0.015625 0.28125 0.136719 0.292968 0.285156 c 0.019532 0.277344 -0.246093 0.480469 -0.503906 0.488282 c -0.457031 0.023437 -0.769531 -0.414063 -0.78125 -0.835938 c -0.011718 -0.710938 0.667969 -1.203125 1.332032 -1.199219 c 1.070312 0.007813 1.796874 1.035157 1.773437 2.039063 c -0.039063 1.558594 -1.542969 2.605468 -3.015625 2.546875 c -2.210938 -0.09375 -3.6875 -2.234375 -3.570312 -4.332031 c 0.160156 -2.859376 2.773437 -4.816407 5.496093 -4.898438 z m 0 0"
       id="path2415" />
  </g>
  <rect
     style="display:inline;opacity:0.35;fill:#241f31;fill-opacity:1;stroke-width:0.25;enable-background:new"
     id="rect28104"
     width="14"
     height="13"
     x="2.0000005"
     y="1"
     rx="3"
     ry="3" />
</svg>
