<?xml version="1.0" encoding="UTF-8" standalone="no"?>
<!-- Created with Inkscape (http://www.inkscape.org/) -->

<svg
   xmlns:dc="http://purl.org/dc/elements/1.1/"
   xmlns:cc="http://creativecommons.org/ns#"
   xmlns:rdf="http://www.w3.org/1999/02/22-rdf-syntax-ns#"
   xmlns:svg="http://www.w3.org/2000/svg"
   xmlns="http://www.w3.org/2000/svg"
   xmlns:sodipodi="http://sodipodi.sourceforge.net/DTD/sodipodi-0.dtd"
   xmlns:inkscape="http://www.inkscape.org/namespaces/inkscape"
   width="16"
   height="16"
   viewBox="0 0 16 16.000001"
   version="1.1"
   id="svg2008"
   inkscape:version="0.92.4 5da689c313, 2019-01-14"
   sodipodi:docname="org.gnome.dfeet-symbolic.svg">
  <defs
     id="defs2002" />
  <sodipodi:namedview
     id="base"
     pagecolor="#ffffff"
     bordercolor="#666666"
     borderopacity="1.0"
     inkscape:pageopacity="0.0"
     inkscape:pageshadow="2"
     inkscape:zoom="45.254834"
     inkscape:cx="4.6852043"
     inkscape:cy="0.94029949"
     inkscape:document-units="px"
     inkscape:current-layer="layer1"
     showgrid="true"
     units="px"
     borderlayer="true"
     inkscape:showpageshadow="false">
    <inkscape:grid
       type="xygrid"
       id="grid2553" />
  </sodipodi:namedview>
  <metadata
     id="metadata2005">
    <rdf:RDF>
      <cc:Work
         rdf:about="">
        <dc:format>image/svg+xml</dc:format>
        <dc:type
           rdf:resource="http://purl.org/dc/dcmitype/StillImage" />
        <dc:title />
      </cc:Work>
    </rdf:RDF>
  </metadata>
  <g
     inkscape:label="Layer 1"
     inkscape:groupmode="layer"
     id="layer1"
     transform="translate(0,-1106.5197)">
    <path
       style="display:inline;opacity:1;vector-effect:none;fill:#000000;fill-opacity:1;stroke:none;stroke-width:4;stroke-linecap:round;stroke-linejoin:round;stroke-miterlimit:4;stroke-dasharray:none;stroke-dashoffset:0;stroke-opacity:1;marker:none;marker-start:none;marker-mid:none;marker-end:none;paint-order:normal;enable-background:new"
       d="m 10,1109.5197 c -1.108,0 -2,0.892 -2,2 v 3 h 4 v -3 c 0,-1.108 -0.892,-2 -2,-2 z"
       id="rect1969"
       inkscape:connector-curvature="0"
       sodipodi:nodetypes="ssccss" />
    <path
       sodipodi:nodetypes="ssccss"
       inkscape:connector-curvature="0"
       id="path1972"
       d="m 10,1118.5197 c -1.108,0 -2,-0.892 -2,-2 v -1 h 4 v 1 c 0,1.108 -0.892,2 -2,2 z"
       style="display:inline;opacity:1;vector-effect:none;fill:#000000;fill-opacity:1;stroke:none;stroke-width:4;stroke-linecap:round;stroke-linejoin:round;stroke-miterlimit:4;stroke-dasharray:none;stroke-dashoffset:0;stroke-opacity:1;marker:none;marker-start:none;marker-mid:none;marker-end:none;paint-order:normal;enable-background:new" />
    <path
       style="display:inline;opacity:1;vector-effect:none;fill:#000000;fill-opacity:1;stroke:none;stroke-width:4;stroke-linecap:round;stroke-linejoin:round;stroke-miterlimit:4;stroke-dasharray:none;stroke-dashoffset:0;stroke-opacity:1;marker:none;marker-start:none;marker-mid:none;marker-end:none;paint-order:normal;enable-background:new"
       d="m 4,1112.5197 c 1.108,0 2,0.892 2,2 v 3 H 5.27734 c -0.94474,-0.8696 -1.54492,-2.1073 -1.54492,-3.5 0,-0.5283 0.10678,-1.026 0.26367,-1.5 10e-4,0 0.003,0 0.004,0 z m -1.98242,1.834 c 0.0597,1.1613 0.42327,2.2424 1.01758,3.166 H 2 v -3 c 0,-0.057 0.013,-0.1103 0.0176,-0.166 z"
       id="path1974"
       inkscape:connector-curvature="0" />
    <path
       style="display:inline;opacity:1;vector-effect:none;fill:#000000;fill-opacity:1;stroke:none;stroke-width:2;stroke-linecap:round;stroke-linejoin:round;stroke-miterlimit:4;stroke-dasharray:none;stroke-dashoffset:0;stroke-opacity:1;marker:none;marker-start:none;marker-mid:none;marker-end:none;paint-order:normal;enable-background:new"
       d="M 8.5 0 C 4.369709 0 1 3.3697 1 7.5 C 1 9.0628162 1.4830998 10.515066 2.3066406 11.71875 L 0 14 L 0 16 L 2 16 L 4.296875 13.703125 C 5.4974125 14.519964 6.9441527 15 8.5 15 C 12.630291 15 16 11.6303 16 7.5 C 16 3.3697 12.630291 0 8.5 0 z M 8.5 2 C 11.549411 2 14 4.4506 14 7.5 C 14 10.5494 11.549411 13 8.5 13 C 5.4505892 13 3 10.5494 3 7.5 C 3 4.4506 5.4505892 2 8.5 2 z "
       transform="translate(0,1106.5197)"
       id="path1987" />
  </g>
</svg>
